<svg xmlns="http://www.w3.org/2000/svg" viewBox="0 0 128 128"><defs><style>.cls-1{fill:none;}.cls-2{fill:#0b0b0b;}</style></defs><g id="OUTLINES_copy_2" data-name="OUTLINES copy 2"><path class="cls-1" d="M85,80.93a2.49,2.49,0,0,1-.35-3.85,29.27,29.27,0,0,0,4.47-5.59l0,0c.24-.39.48-.8.7-1.21l0-.06c.22-.41.42-.8.62-1.19s.41-.87.59-1.28a1.17,1.17,0,0,0,.05-.11c.17-.4.33-.79.47-1.18a.76.76,0,0,0,.06-.16c.16-.41.29-.79.41-1.18l.06-.18c.14-.43.24-.8.35-1.18l.08-.31c.09-.34.17-.71.25-1.07l.09-.36c.07-.35.13-.7.19-1l.07-.42c0-.32.09-.64.13-1l.06-.5c0-.36.06-.71.08-1.06l0-.46c0-.52,0-1,0-1.54V32c0-6.56-6.94-13.5-13.5-13.5H33.19c-1.46,2.12-4.75,8.79,1.05,20.38.64,1.3,1.34,2.63,2.19,4.18a2.48,2.48,0,0,1,.13,2.11,29.52,29.52,0,0,0-1.81,7v.06c-.07.57-.13,1.13-.17,1.71l0,.21c0,.6-.06,1.22-.06,1.84s0,1,0,1.53l0,.41c0,.41,0,.76.09,1.1l.05.45c0,.4.09.72.14,1l.07.42c.06.34.12.69.19,1l.09.36c.08.37.16.73.25,1.09l.09.3c.1.37.2.75.32,1.12l.08.24q.18.57.39,1.14a1.34,1.34,0,0,1,.07.18c.15.4.31.79.48,1.18l0,.12c.18.41.36.81.55,1.21l.66,1.27,0,.06c.22.39.44.78.68,1.17l0,0a29.78,29.78,0,0,0,4.48,5.6A2.49,2.49,0,0,1,43,80.93,37.5,37.5,0,0,0,26.58,109.5h74.84A37.5,37.5,0,0,0,85,80.93Z"/><path class="cls-2" d="M90.14,78.51a33.75,33.75,0,0,0,3.22-4.4h0c.29-.45.56-.92.82-1.39l0-.06c.26-.46.5-.94.73-1.4l.06-.11c.22-.46.44-.93.65-1.42l.06-.13c.19-.45.38-.91.56-1.41l.08-.18c.16-.44.31-.89.48-1.42l.07-.2c.14-.43.26-.87.38-1.32l.1-.35c.11-.41.2-.84.3-1.27l.09-.41c.09-.41.16-.82.23-1.24l0-.15.06-.34c.05-.38.1-.76.15-1.21l0-.15c0-.13,0-.26,0-.37,0-.41.07-.82.1-1.29v-.14c0-.12,0-.23,0-.34,0-.59,0-1.19,0-1.79V32c0-9.34-9.16-18.5-18.5-18.5H32a2.51,2.51,0,0,0-1.77.73c-.38.38-9.17,9.48-.47,26.89.53,1.06,1.1,2.14,1.74,3.33a34.16,34.16,0,0,0-1.7,7,.19.19,0,0,1,0,.08c-.08.68-.15,1.36-.2,2l0,.26c0,.71-.07,1.43-.07,2.16s0,1.2.05,1.77c0,.12,0,.24,0,.36l0,.21c0,.4.05.81.09,1.21,0,.12,0,.24,0,.35l0,.25c0,.38.09.77.15,1.15,0,.11,0,.22.05.33l0,.16c.07.41.14.82.23,1.22l.09.43c.1.43.19.85.3,1.27l.1.35c.12.44.24.87.38,1.31l.09.28c.15.45.3.9.46,1.33l.09.22c.17.46.35.92.56,1.41l.06.12c.2.47.41.94.64,1.4a.93.93,0,0,1,0,.1c.24.47.48.94.76,1.45s.54.95.83,1.42l0,.05a34.86,34.86,0,0,0,3.2,4.36A42.42,42.42,0,0,0,21.5,112a2.5,2.5,0,0,0,2.5,2.5h80a2.5,2.5,0,0,0,2.5-2.5A42.42,42.42,0,0,0,90.14,78.51Zm-63.56,31A37.5,37.5,0,0,1,43,80.93a2.49,2.49,0,0,0,.35-3.85,29.78,29.78,0,0,1-4.48-5.6l0,0c-.24-.39-.46-.78-.68-1.17l0-.06-.66-1.27c-.19-.4-.37-.8-.55-1.21l0-.12c-.17-.39-.33-.78-.48-1.18a1.34,1.34,0,0,0-.07-.18q-.21-.57-.39-1.14l-.08-.24c-.12-.37-.22-.75-.32-1.12l-.09-.3c-.09-.36-.17-.72-.25-1.09L35.11,62c-.07-.35-.13-.7-.19-1l-.07-.42c-.05-.33-.09-.65-.14-1L34.66,59c0-.34-.06-.69-.09-1.1l0-.41c0-.51,0-1,0-1.53s0-1.24.06-1.84l0-.21c0-.58.1-1.14.17-1.71v-.06a29.52,29.52,0,0,1,1.81-7,2.48,2.48,0,0,0-.13-2.11c-.85-1.55-1.55-2.88-2.19-4.18-5.8-11.59-2.51-18.26-1.05-20.38H80c6.56,0,13.5,6.94,13.5,13.5V56c0,.51,0,1,0,1.54l0,.46c0,.35,0,.7-.08,1.06l-.06.5c0,.33-.08.65-.13,1l-.07.42c-.06.35-.12.7-.19,1l-.09.36c-.08.36-.16.73-.25,1.07l-.08.31c-.11.38-.21.75-.35,1.18l-.06.18c-.12.39-.25.77-.41,1.18a.76.76,0,0,1-.06.16c-.14.39-.3.78-.47,1.18a1.17,1.17,0,0,1-.05.11c-.18.41-.36.81-.59,1.28s-.4.78-.62,1.19l0,.06c-.22.41-.46.82-.7,1.21l0,0a29.27,29.27,0,0,1-4.47,5.59A2.49,2.49,0,0,0,85,80.93a37.5,37.5,0,0,1,16.44,28.57Z"/></g></svg>