<svg xmlns="http://www.w3.org/2000/svg" viewBox="0 0 128 128"><defs><style>.cls-1{fill:none;}.cls-2{fill:#0b0b0b;}</style></defs><g id="OUTLINES_copy_2" data-name="OUTLINES copy 2"><path class="cls-1" d="M43,80.93A37.5,37.5,0,0,0,26.58,109.5h74.84A37.5,37.5,0,0,0,85,80.93a2.49,2.49,0,0,1-.35-3.85A29.29,29.29,0,0,0,93.5,56v-.25l-.22.08c-.61.26-1.23.49-1.85.7l-.41.16c-.78.26-1.58.5-2.39.71h-.06A34.41,34.41,0,0,1,54,46.7,26.71,26.71,0,0,1,41,56.91s0,0-.09.05a26.54,26.54,0,0,1-3.24.93h-.07c-.55.12-1.1.22-1.64.3l-.52.07c-.27,0-.54.08-.82.1a29.29,29.29,0,0,0,8.78,18.71A2.49,2.49,0,0,1,43,80.93Z"/><path class="cls-1" d="M50.82,42.4l-.11-.19c-.44-.7-.85-1.42-1.23-2.15l-.17-.34c-.32-.63-.63-1.27-.91-1.91-.1-.24-.2-.47-.29-.71-.24-.58-.46-1.16-.67-1.76-.07-.2-.15-.41-.22-.62-.25-.78-.48-1.56-.68-2.36l0-.11A29.62,29.62,0,0,0,34.62,53.34,21.66,21.66,0,0,0,50.82,42.4Z"/><path class="cls-1" d="M80,53.5a29.6,29.6,0,0,0,13-3,29.5,29.5,0,0,0-42-21,29.5,29.5,0,0,0,29,24Z"/><path class="cls-2" d="M21.5,112a2.5,2.5,0,0,0,2.5,2.5h80a2.5,2.5,0,0,0,2.5-2.5A42.43,42.43,0,0,0,90.14,78.51,34.21,34.21,0,0,0,98.5,56a35.85,35.85,0,0,0-.29-4.45h0A34.5,34.5,0,0,0,29.5,56a34.21,34.21,0,0,0,8.36,22.51A42.43,42.43,0,0,0,21.5,112ZM55.74,27.68A29.5,29.5,0,0,1,93,50.49a29.5,29.5,0,0,1-42-21A29.73,29.73,0,0,1,55.74,27.68Zm-9.23,4.57,0,.11c.2.8.43,1.58.68,2.36.07.21.15.42.22.62.21.6.43,1.18.67,1.76.09.24.19.47.29.71.28.64.59,1.28.91,1.91l.17.34c.38.73.79,1.45,1.23,2.15l.11.19a21.66,21.66,0,0,1-16.2,10.94A29.62,29.62,0,0,1,46.51,32.25ZM43.37,77.08a29.29,29.29,0,0,1-8.78-18.71c.28,0,.55-.07.82-.1l.52-.07c.54-.08,1.09-.18,1.64-.3h.07A26.54,26.54,0,0,0,40.88,57s.06,0,.09-.05A26.71,26.71,0,0,0,54,46.7,34.41,34.41,0,0,0,88.57,57.41h.06c.81-.21,1.61-.45,2.39-.71l.41-.16c.62-.21,1.24-.44,1.85-.7l.22-.08V56a29.29,29.29,0,0,1-8.87,21.08A2.49,2.49,0,0,0,85,80.93a37.5,37.5,0,0,1,16.44,28.57H26.58A37.5,37.5,0,0,1,43,80.93a2.49,2.49,0,0,0,.35-3.85Z"/></g></svg>