<svg xmlns="http://www.w3.org/2000/svg" viewBox="0 0 128 128"><defs><style>.cls-1{fill:none;}.cls-2{fill:#0b0b0b;}</style></defs><g id="OUTLINES_copy_2" data-name="OUTLINES copy 2"><path class="cls-1" d="M93.78,57.15a42.06,42.06,0,0,1-4.1-13.48c-.67-4-1.2-7.12-3.62-10.09-3.92-4.83-11.36-7.23-22-7.08-10.74-.12-18.17,2.25-22.09,7.08-2.42,3-2.95,6.11-3.62,10.09a42.06,42.06,0,0,1-4.1,13.48A41.19,41.19,0,0,1,20.1,72.4a49.84,49.84,0,0,0,16.27,9.14A2.5,2.5,0,0,1,38,83.33a2.54,2.54,0,0,1-.66,2.33A37.22,37.22,0,0,0,26.58,109.5h74.84A37.22,37.22,0,0,0,90.67,85.66,2.54,2.54,0,0,1,90,83.33a2.5,2.5,0,0,1,1.62-1.79A49.84,49.84,0,0,0,107.9,72.4,41.19,41.19,0,0,1,93.78,57.15Z"/><path class="cls-2" d="M114.48,71.67a2.48,2.48,0,0,0-1.23-1.83c-6.87-4-11.93-9-15-15a37.39,37.39,0,0,1-3.61-12c-.73-4.32-1.42-8.41-4.67-12.41C85,24.36,76.27,21.34,64,21.5c-12.33-.14-21,2.86-26,8.92-3.25,4-3.94,8.09-4.67,12.41a37.39,37.39,0,0,1-3.61,12c-3.1,6-8.16,11-15,15a2.48,2.48,0,0,0-1.23,1.83,2.52,2.52,0,0,0,.71,2.1,52,52,0,0,0,17,11.16A42.18,42.18,0,0,0,21.5,112a2.5,2.5,0,0,0,2.5,2.5h80a2.5,2.5,0,0,0,2.5-2.5,42.18,42.18,0,0,0-9.74-27.07,52,52,0,0,0,17-11.16A2.52,2.52,0,0,0,114.48,71.67ZM91.63,81.54A2.5,2.5,0,0,0,90,83.33a2.54,2.54,0,0,0,.66,2.33,37.22,37.22,0,0,1,10.75,23.84H26.58A37.22,37.22,0,0,1,37.33,85.66,2.54,2.54,0,0,0,38,83.33a2.5,2.5,0,0,0-1.62-1.79A49.84,49.84,0,0,1,20.1,72.4,41.19,41.19,0,0,0,34.22,57.15a42.06,42.06,0,0,0,4.1-13.48c.67-4,1.2-7.12,3.62-10.09,3.92-4.83,11.35-7.2,22.09-7.08,10.67-.15,18.11,2.25,22,7.08,2.42,3,3,6.11,3.62,10.09a42.06,42.06,0,0,0,4.1,13.48A41.19,41.19,0,0,0,107.9,72.4,49.84,49.84,0,0,1,91.63,81.54Z"/></g></svg>