<svg xmlns="http://www.w3.org/2000/svg" viewBox="0 0 128 128"><defs><style>.cls-1{fill:none;}.cls-2{fill:#0b0b0b;}</style></defs><g id="OUTLINES_copy_2" data-name="OUTLINES copy 2"><circle class="cls-1" cx="48" cy="64" r="5.5"/><path class="cls-1" d="M26.5,109.5h75v-67h-75ZM49.5,96a1.5,1.5,0,0,1-3,0V88a1.5,1.5,0,0,1,3,0Zm32,0a1.5,1.5,0,0,1-3,0V88a1.5,1.5,0,0,1,3,0ZM80,53.5A10.5,10.5,0,1,1,69.5,64,10.51,10.51,0,0,1,80,53.5ZM62.5,88a1.5,1.5,0,0,1,3,0v8a1.5,1.5,0,0,1-3,0ZM48,53.5A10.5,10.5,0,1,1,37.5,64,10.51,10.51,0,0,1,48,53.5Z"/><circle class="cls-1" cx="80" cy="64" r="5.5"/><rect class="cls-1" x="106.5" y="66.5" width="11" height="19"/><circle class="cls-1" cx="64" cy="16" r="5.5"/><rect class="cls-1" x="10.5" y="66.5" width="11" height="19"/><path class="cls-2" d="M120,61.5H106.5V40a2.5,2.5,0,0,0-2.5-2.5H66.5V26.19a10.5,10.5,0,1,0-5,0V37.5H24A2.5,2.5,0,0,0,21.5,40V61.5H8A2.5,2.5,0,0,0,5.5,64V88A2.5,2.5,0,0,0,8,90.5H21.5V112a2.5,2.5,0,0,0,2.5,2.5h80a2.5,2.5,0,0,0,2.5-2.5V90.5H120a2.5,2.5,0,0,0,2.5-2.5V64A2.5,2.5,0,0,0,120,61.5Zm-98.5,24h-11v-19h11ZM58.5,16A5.5,5.5,0,1,1,64,21.5,5.51,5.51,0,0,1,58.5,16Zm43,93.5h-75v-67h75Zm16-24h-11v-19h11Z"/><path class="cls-2" d="M48,86.5A1.5,1.5,0,0,0,46.5,88v8a1.5,1.5,0,0,0,3,0V88A1.5,1.5,0,0,0,48,86.5Z"/><path class="cls-2" d="M64,97.5A1.5,1.5,0,0,0,65.5,96V88a1.5,1.5,0,0,0-3,0v8A1.5,1.5,0,0,0,64,97.5Z"/><path class="cls-2" d="M80,86.5A1.5,1.5,0,0,0,78.5,88v8a1.5,1.5,0,0,0,3,0V88A1.5,1.5,0,0,0,80,86.5Z"/><path class="cls-2" d="M48,74.5A10.5,10.5,0,1,0,37.5,64,10.51,10.51,0,0,0,48,74.5Zm0-16A5.5,5.5,0,1,1,42.5,64,5.51,5.51,0,0,1,48,58.5Z"/><path class="cls-2" d="M80,74.5A10.5,10.5,0,1,0,69.5,64,10.51,10.51,0,0,0,80,74.5Zm0-16A5.5,5.5,0,1,1,74.5,64,5.51,5.51,0,0,1,80,58.5Z"/></g></svg>