<svg xmlns="http://www.w3.org/2000/svg" viewBox="0 0 128 128"><defs><style>.cls-1{fill:none;}.cls-2{fill:#0b0b0b;}</style></defs><g id="OUTLINES_copy_2" data-name="OUTLINES copy 2"><path class="cls-1" d="M104,42.5a14.25,14.25,0,0,0-1.92.15,2.49,2.49,0,0,1-2.49-3.75A13.49,13.49,0,0,0,80.48,20.79a2.49,2.49,0,0,1-3.75-1.25,13.48,13.48,0,0,0-25.46,0,2.49,2.49,0,0,1-3.75,1.25A13.49,13.49,0,0,0,28.41,38.9a2.49,2.49,0,0,1-2.49,3.75A14.25,14.25,0,0,0,24,42.5a13.53,13.53,0,1,0,11.59,6.6,2.49,2.49,0,0,1,2.49-3.75A14.25,14.25,0,0,0,40,45.5a13.51,13.51,0,0,0,12.73-9,2.49,2.49,0,0,1,3.75-1.25,13.49,13.49,0,0,0,15,0,2.49,2.49,0,0,1,3.75,1.25A13.51,13.51,0,0,0,88,45.5a14.25,14.25,0,0,0,1.92-.15,2,2,0,0,1,.35,0,2.5,2.5,0,0,1,2.14,3.78A13.49,13.49,0,1,0,104,42.5Z"/><circle class="cls-1" cx="64" cy="80" r="5.5"/><path class="cls-1" d="M72,90.5H56a5.5,5.5,0,0,0,0,11H72a5.5,5.5,0,0,0,0-11Z"/><path class="cls-1" d="M85.5,56a18.47,18.47,0,0,1,.87-5.57A18.54,18.54,0,0,1,71.74,40.8a18.75,18.75,0,0,1-15.48,0,18.54,18.54,0,0,1-14.63,9.63A18.46,18.46,0,0,1,27.87,74.09,37.24,37.24,0,0,0,41.5,94a2.49,2.49,0,0,1,1,2v8A13.52,13.52,0,0,0,56,117.5H72A13.52,13.52,0,0,0,85.5,104V96a2.49,2.49,0,0,1,1-2,37.24,37.24,0,0,0,13.63-19.91A18.54,18.54,0,0,1,85.5,56Zm-40,8a2.5,2.5,0,0,1,5,0v8a2.5,2.5,0,0,1-5,0ZM72,106.5H56a10.49,10.49,0,0,1-.9-21,10.5,10.5,0,1,1,17.8,0,10.49,10.49,0,0,1-.9,21ZM82.5,72a2.5,2.5,0,0,1-5,0V64a2.5,2.5,0,0,1,5,0Z"/><path class="cls-2" d="M80,61.5A2.5,2.5,0,0,0,77.5,64v8a2.5,2.5,0,0,0,5,0V64A2.5,2.5,0,0,0,80,61.5Z"/><path class="cls-2" d="M48,74.5A2.5,2.5,0,0,0,50.5,72V64a2.5,2.5,0,0,0-5,0v8A2.5,2.5,0,0,0,48,74.5Z"/><path class="cls-2" d="M72.9,85.55a10.5,10.5,0,1,0-17.8,0,10.49,10.49,0,0,0,.9,21H72a10.49,10.49,0,0,0,.9-21ZM64,74.5A5.5,5.5,0,1,1,58.5,80,5.51,5.51,0,0,1,64,74.5Zm8,27H56a5.5,5.5,0,0,1,0-11H72a5.5,5.5,0,0,1,0,11Z"/><path class="cls-2" d="M105.63,37.57A18.49,18.49,0,0,0,80.26,15.2a18.48,18.48,0,0,0-32.52,0A18.32,18.32,0,0,0,40,13.5,18.47,18.47,0,0,0,22.37,37.57a18.49,18.49,0,0,0,.42,36.87A42.18,42.18,0,0,0,37.5,97.23V104A18.52,18.52,0,0,0,56,122.5H72A18.52,18.52,0,0,0,90.5,104V97.23a42.18,42.18,0,0,0,14.71-22.79,18.49,18.49,0,0,0,.42-36.87ZM86.5,94a2.49,2.49,0,0,0-1,2v8A13.52,13.52,0,0,1,72,117.5H56A13.52,13.52,0,0,1,42.5,104V96a2.49,2.49,0,0,0-1-2A37.24,37.24,0,0,1,27.87,74.09,18.46,18.46,0,0,0,41.63,50.43,18.54,18.54,0,0,0,56.26,40.8a18.75,18.75,0,0,0,15.48,0,18.54,18.54,0,0,0,14.63,9.63,18.46,18.46,0,0,0,13.76,23.66A37.24,37.24,0,0,1,86.5,94ZM104,69.5A13.48,13.48,0,0,1,92.41,49.1a2.5,2.5,0,0,0-2.14-3.78,2,2,0,0,0-.35,0A14.25,14.25,0,0,1,88,45.5a13.51,13.51,0,0,1-12.73-9,2.49,2.49,0,0,0-3.75-1.25,13.49,13.49,0,0,1-15,0,2.49,2.49,0,0,0-3.75,1.25A13.51,13.51,0,0,1,40,45.5a14.25,14.25,0,0,1-1.92-.15,2.49,2.49,0,0,0-2.49,3.75A13.49,13.49,0,1,1,24,42.5a14.25,14.25,0,0,1,1.92.15,2.49,2.49,0,0,0,2.49-3.75A13.49,13.49,0,0,1,47.52,20.79a2.49,2.49,0,0,0,3.75-1.25,13.48,13.48,0,0,1,25.46,0,2.49,2.49,0,0,0,3.75,1.25A13.49,13.49,0,0,1,99.59,38.9a2.49,2.49,0,0,0,2.49,3.75A14.25,14.25,0,0,1,104,42.5a13.5,13.5,0,0,1,0,27Z"/></g></svg>