<svg xmlns="http://www.w3.org/2000/svg" viewBox="0 0 128 128"><defs><style>.cls-1{fill:none;}.cls-2{fill:#0b0b0b;}</style></defs><g id="OUTLINES_copy_2" data-name="OUTLINES copy 2"><path class="cls-1" d="M64,18.5C42.27,18.5,26.5,30.91,26.5,48,26.5,79.09,48,109.5,64,109.5S101.5,79.09,101.5,48C101.5,30.91,85.73,18.5,64,18.5Zm-13.57,63A2.54,2.54,0,0,1,49,83.16a2.5,2.5,0,0,1-1,.23,2.46,2.46,0,0,1-1.12-.27A30.72,30.72,0,0,1,29.5,56.89a2.5,2.5,0,0,1,1.71-2.37c.42-.14,10.27-3.34,16.45,2.39C52.46,61.35,53.39,69.63,50.43,81.5Zm30.69,1.62a2.46,2.46,0,0,1-1.12.27,2.5,2.5,0,0,1-1-.23,2.54,2.54,0,0,1-1.39-1.66c-3-11.87-2-20.15,2.77-24.59,6.18-5.73,16-2.53,16.45-2.39a2.5,2.5,0,0,1,1.71,2.37A30.72,30.72,0,0,1,81.12,83.12Z"/><path class="cls-2" d="M64,13.5C39.37,13.5,21.5,28,21.5,48c0,31.7,22.24,66.5,42.5,66.5S106.5,79.7,106.5,48C106.5,28,88.63,13.5,64,13.5Zm0,96c-16,0-37.5-30.41-37.5-61.5,0-17.09,15.77-29.5,37.5-29.5S101.5,30.91,101.5,48C101.5,79.09,80,109.5,64,109.5Z"/><path class="cls-2" d="M96.79,54.52c-.42-.14-10.27-3.34-16.45,2.39-4.8,4.44-5.73,12.72-2.77,24.59A2.54,2.54,0,0,0,79,83.16a2.5,2.5,0,0,0,1,.23,2.46,2.46,0,0,0,1.12-.27A30.72,30.72,0,0,0,98.5,56.89,2.5,2.5,0,0,0,96.79,54.52Z"/><path class="cls-2" d="M31.21,54.52a2.5,2.5,0,0,0-1.71,2.37A30.72,30.72,0,0,0,46.88,83.12a2.46,2.46,0,0,0,1.12.27,2.5,2.5,0,0,0,1-.23,2.54,2.54,0,0,0,1.39-1.66c3-11.87,2-20.15-2.77-24.59C41.48,51.18,31.63,54.38,31.21,54.52Z"/></g></svg>