<svg xmlns="http://www.w3.org/2000/svg" viewBox="0 0 128 128"><defs><style>.cls-1{fill:none;}.cls-2{fill:#0b0b0b;}</style></defs><g id="OUTLINES_copy_2" data-name="OUTLINES copy 2"><path class="cls-1" d="M64,97.5c25.09,0,45.5-11.72,45.5-26.13,0-6.88-4.68-12.06-8.61-15.19a2.5,2.5,0,0,1-.85-2.6,19.2,19.2,0,0,0,.66-4.95c0-10-7.67-18.13-17.1-18.13-7.49,0-14.23,5.32-16.37,12.93a2.51,2.51,0,0,1-2.41,1.82H63.18a2.51,2.51,0,0,1-2.41-1.82C58.63,35.82,51.89,30.5,44.4,30.5c-9.43,0-17.1,8.13-17.1,18.13A19.2,19.2,0,0,0,28,53.58a2.5,2.5,0,0,1-.85,2.6c-3.93,3.13-8.61,8.31-8.61,15.19C18.5,85.78,38.91,97.5,64,97.5Zm20-56A6.5,6.5,0,1,1,77.5,48,6.51,6.51,0,0,1,84,41.5Zm-40,0A6.5,6.5,0,1,1,37.5,48,6.51,6.51,0,0,1,44,41.5ZM35.39,61.57a2.51,2.51,0,0,1,3,1.81c.17.62,4,14.12,25.58,14.12S89.43,64,89.58,63.38a2.5,2.5,0,0,1,4.85,1.23C94.24,65.34,89.66,82.5,64,82.5S33.76,65.34,33.57,64.61A2.51,2.51,0,0,1,35.39,61.57Z"/><path class="cls-2" d="M64,102.5c27.85,0,50.5-14,50.5-31.13,0-6.59-3.2-12.82-9.27-18.08a23.76,23.76,0,0,0,.47-4.66c0-12.75-9.91-23.13-22.1-23.13A22.15,22.15,0,0,0,64,38,22.15,22.15,0,0,0,44.4,25.5c-12.19,0-22.1,10.38-22.1,23.13a23.76,23.76,0,0,0,.47,4.66C16.7,58.55,13.5,64.78,13.5,71.37,13.5,88.53,36.15,102.5,64,102.5ZM27.11,56.18a2.5,2.5,0,0,0,.85-2.6,19.2,19.2,0,0,1-.66-4.95c0-10,7.67-18.13,17.1-18.13,7.49,0,14.23,5.32,16.37,12.93a2.51,2.51,0,0,0,2.41,1.82h1.64a2.51,2.51,0,0,0,2.41-1.82C69.37,35.82,76.11,30.5,83.6,30.5c9.43,0,17.1,8.13,17.1,18.13a19.2,19.2,0,0,1-.66,4.95,2.5,2.5,0,0,0,.85,2.6c3.93,3.13,8.61,8.31,8.61,15.19C109.5,85.78,89.09,97.5,64,97.5S18.5,85.78,18.5,71.37C18.5,64.49,23.18,59.31,27.11,56.18Z"/><path class="cls-2" d="M64,82.5c25.66,0,30.24-17.16,30.43-17.89a2.5,2.5,0,0,0-4.85-1.23C89.43,64,85.6,77.5,64,77.5S38.59,64,38.42,63.38a2.5,2.5,0,0,0-4.85,1.23C33.76,65.34,38.34,82.5,64,82.5Z"/><circle class="cls-2" cx="44" cy="48" r="6.5"/><circle class="cls-2" cx="84" cy="48" r="6.5"/></g></svg>