<svg xmlns="http://www.w3.org/2000/svg" viewBox="0 0 128 128"><defs><style>.cls-1{fill:none;}.cls-2{fill:#0b0b0b;}</style></defs><g id="OUTLINES_copy_2" data-name="OUTLINES copy 2"><path class="cls-1" d="M54.23,54.23a2.52,2.52,0,0,1,3.54,0,2.51,2.51,0,0,1,0,3.54L34.5,81V93.5h59V48.83L70.35,18,58.5,12V24A2.5,2.5,0,0,1,56,26.5H41L18.5,49V61.5H47Z"/><polygon class="cls-1" points="26.5 98.5 26.5 109.5 101.5 109.5 101.5 98.5 96 98.5 32 98.5 26.5 98.5"/><path class="cls-2" d="M16,66.5H42L30.23,78.23A2.51,2.51,0,0,0,29.5,80V93.5H24A2.5,2.5,0,0,0,21.5,96v16a2.5,2.5,0,0,0,2.5,2.5h80a2.5,2.5,0,0,0,2.5-2.5V96a2.5,2.5,0,0,0-2.5-2.5H98.5V48a2.53,2.53,0,0,0-.5-1.5l-24-32a2.62,2.62,0,0,0-.88-.74l-16-8A2.5,2.5,0,0,0,53.5,8V21.5H40a2.51,2.51,0,0,0-1.77.73l-24,24A2.51,2.51,0,0,0,13.5,48V64A2.5,2.5,0,0,0,16,66.5Zm85.5,32v11h-75v-11h75ZM18.5,49,41,26.5H56A2.5,2.5,0,0,0,58.5,24V12L70.35,18,93.5,48.83V93.5h-59V81L57.77,57.77a2.51,2.51,0,0,0,0-3.54,2.52,2.52,0,0,0-3.54,0L47,61.5H18.5Z"/></g></svg>