<svg xmlns="http://www.w3.org/2000/svg" viewBox="0 0 128 128"><defs><style>.cls-1{fill:none;}.cls-2{fill:#0b0b0b;}</style></defs><g id="OUTLINES_copy_2" data-name="OUTLINES copy 2"><polygon class="cls-1" points="77.5 50.5 69.5 50.5 58.5 50.5 50.5 50.5 50.5 61.5 77.5 61.5 77.5 50.5"/><path class="cls-1" d="M76,93.5l-6.2-12.38A2.56,2.56,0,0,1,69.5,80V66.5h-11V80a2.56,2.56,0,0,1-.26,1.12L52,93.5Z"/><circle class="cls-1" cx="64" cy="32" r="13.5"/><polygon class="cls-1" points="42.5 98.5 42.5 109.5 85.5 109.5 85.5 98.5 80 98.5 48 98.5 42.5 98.5"/><path class="cls-2" d="M46.45,93.5H40A2.5,2.5,0,0,0,37.5,96v16a2.5,2.5,0,0,0,2.5,2.5H88a2.5,2.5,0,0,0,2.5-2.5V96A2.5,2.5,0,0,0,88,93.5H81.55l-7-14.09V66.5H80A2.5,2.5,0,0,0,82.5,64V48A2.5,2.5,0,0,0,80,45.5H76.61a18.5,18.5,0,1,0-25.22,0H48A2.5,2.5,0,0,0,45.5,48V64A2.5,2.5,0,0,0,48,66.5h5.5V79.41Zm39.05,5v11h-43v-11h43ZM50.5,32A13.5,13.5,0,1,1,64,45.5,13.52,13.52,0,0,1,50.5,32Zm0,29.5v-11h27v11Zm7.74,19.62A2.56,2.56,0,0,0,58.5,80V66.5h11V80a2.56,2.56,0,0,0,.26,1.12L76,93.5H52Z"/></g></svg>