<svg xmlns="http://www.w3.org/2000/svg" viewBox="0 0 128 128"><defs><style>.cls-1{fill:none;}.cls-2{fill:#0b0b0b;}</style></defs><g id="OUTLINES_copy_2" data-name="OUTLINES copy 2"><polygon class="cls-1" points="34.5 93.5 93.5 93.5 93.5 82.5 88 82.5 40 82.5 34.5 82.5 34.5 93.5"/><rect class="cls-1" x="42.5" y="58.5" width="43" height="19"/><polygon class="cls-1" points="93.5 42.5 85.5 42.5 42.5 42.5 34.5 42.5 34.5 53.5 93.5 53.5 93.5 42.5"/><path class="cls-1" d="M88,37.5h13.5v-19h-11V24A2.5,2.5,0,0,1,88,26.5H72A2.5,2.5,0,0,1,69.5,24V18.5h-11V24A2.5,2.5,0,0,1,56,26.5H40A2.5,2.5,0,0,1,37.5,24V18.5h-11v19H88Z"/><polygon class="cls-1" points="26.5 98.5 26.5 109.5 101.5 109.5 101.5 98.5 96 98.5 32 98.5 26.5 98.5"/><path class="cls-2" d="M32,77.5A2.5,2.5,0,0,0,29.5,80V93.5H24A2.5,2.5,0,0,0,21.5,96v16a2.5,2.5,0,0,0,2.5,2.5h80a2.5,2.5,0,0,0,2.5-2.5V96a2.5,2.5,0,0,0-2.5-2.5H98.5V80A2.5,2.5,0,0,0,96,77.5H90.5v-19H96A2.5,2.5,0,0,0,98.5,56V42.5H104a2.5,2.5,0,0,0,2.5-2.5V16a2.5,2.5,0,0,0-2.5-2.5H88A2.5,2.5,0,0,0,85.5,16v5.5h-11V16A2.5,2.5,0,0,0,72,13.5H56A2.5,2.5,0,0,0,53.5,16v5.5h-11V16A2.5,2.5,0,0,0,40,13.5H24A2.5,2.5,0,0,0,21.5,16V40A2.5,2.5,0,0,0,24,42.5h5.5V56A2.5,2.5,0,0,0,32,58.5h5.5v19Zm69.5,21v11h-75v-11h75Zm-75-61v-19h11V24A2.5,2.5,0,0,0,40,26.5H56A2.5,2.5,0,0,0,58.5,24V18.5h11V24A2.5,2.5,0,0,0,72,26.5H88A2.5,2.5,0,0,0,90.5,24V18.5h11v19h-75Zm8,16v-11h59v11Zm51,5v19h-43v-19ZM40,82.5H93.5v11h-59v-11Z"/></g></svg>