<svg xmlns="http://www.w3.org/2000/svg" viewBox="0 0 128 128"><defs><style>.cls-1{fill:none;}.cls-2{fill:#0b0b0b;}</style></defs><g id="OUTLINES_copy_2" data-name="OUTLINES copy 2"><polygon class="cls-1" points="46.66 82.5 43.36 93.5 84.64 93.5 81.34 82.5 46.66 82.5"/><polygon class="cls-1" points="34.5 98.5 34.5 109.5 93.5 109.5 93.5 98.5 88 98.5 40 98.5 34.5 98.5"/><path class="cls-1" d="M71.23,19.13a2.49,2.49,0,0,1-2-2c-.74-3.85-2.94-6.64-5.23-6.64s-4.49,2.79-5.23,6.64a2.49,2.49,0,0,1-2,2C42,21.84,34.5,32.9,34.5,52c0,10.21,5.45,19.35,12.28,25.5H81.22C88.05,71.35,93.5,62.21,93.5,52,93.5,32.9,86,21.84,71.23,19.13ZM80,42.5H66.5V64a2.5,2.5,0,0,1-5,0V42.5H48a2.5,2.5,0,0,1,0-5H61.5V32a2.5,2.5,0,0,1,5,0v5.5H80a2.5,2.5,0,0,1,0,5Z"/><path class="cls-2" d="M73.74,14.54c-1.57-5.47-5.34-9-9.74-9s-8.17,3.57-9.74,9C42.6,17.2,29.5,26,29.5,52c0,10.75,5.37,20.87,12.68,28l-4,13.47H32A2.5,2.5,0,0,0,29.5,96v16a2.5,2.5,0,0,0,2.5,2.5H96a2.5,2.5,0,0,0,2.5-2.5V96A2.5,2.5,0,0,0,96,93.5H89.86L85.82,80C93.13,72.87,98.5,62.75,98.5,52,98.5,26,85.4,17.2,73.74,14.54ZM88,98.5h5.5v11h-59v-11H88Zm-44.64-5,3.3-11H81.34l3.3,11Zm37.86-16H46.78C40,71.35,34.5,62.21,34.5,52c0-19.1,7.49-30.16,22.27-32.87a2.49,2.49,0,0,0,2-2c.74-3.85,2.94-6.64,5.23-6.64s4.49,2.79,5.23,6.64a2.49,2.49,0,0,0,2,2C86,21.84,93.5,32.9,93.5,52,93.5,62.21,88.05,71.35,81.22,77.5Z"/><path class="cls-2" d="M80,37.5H66.5V32a2.5,2.5,0,0,0-5,0v5.5H48a2.5,2.5,0,0,0,0,5H61.5V64a2.5,2.5,0,0,0,5,0V42.5H80a2.5,2.5,0,0,0,0-5Z"/></g></svg>