<svg xmlns="http://www.w3.org/2000/svg" viewBox="0 0 128 128"><defs><style>.cls-1{fill:none;}.cls-2{fill:#0b0b0b;}</style></defs><g id="OUTLINES_copy_2" data-name="OUTLINES copy 2"><polygon class="cls-1" points="32 98.5 26.5 98.5 26.5 109.5 101.5 109.5 101.5 98.5 96 98.5 32 98.5"/><circle class="cls-1" cx="88" cy="24" r="5.5"/><circle class="cls-1" cx="112" cy="40" r="5.5"/><rect class="cls-1" x="34.5" y="82.5" width="59" height="11"/><circle class="cls-1" cx="64" cy="16" r="5.5"/><circle class="cls-1" cx="16" cy="40" r="5.5"/><path class="cls-1" d="M94.31,77.5l11.59-29a11,11,0,0,1-1-.8L89.39,58.08A2.5,2.5,0,0,1,85.5,56V34.19a10.16,10.16,0,0,1-1.07-.33L74.08,49.39a2.51,2.51,0,0,1-4.51-.78L64.05,26.5H64L58.43,48.61a2.51,2.51,0,0,1-4.51.78L43.57,33.86a10.16,10.16,0,0,1-1.07.33V56a2.5,2.5,0,0,1-3.89,2.08L23.08,47.73a11,11,0,0,1-1,.8l11.59,29Z"/><circle class="cls-1" cx="40" cy="24" r="5.5"/><path class="cls-2" d="M16,50.5a11.66,11.66,0,0,0,1.46-.11l12,30.09v13H24A2.5,2.5,0,0,0,21.5,96v16a2.5,2.5,0,0,0,2.5,2.5h80a2.5,2.5,0,0,0,2.5-2.5V96a2.5,2.5,0,0,0-2.5-2.5H98.5v-13l12-30.09a11.66,11.66,0,0,0,1.46.11A10.5,10.5,0,1,0,101.5,40a10.36,10.36,0,0,0,.64,3.57L90.5,51.33V34.19a10.52,10.52,0,1,0-10.23-3.11L73.05,41.91,68.9,25.28a10.5,10.5,0,1,0-9.8,0L55,41.91,47.73,31.08A10.49,10.49,0,1,0,37.5,34.19V51.33L25.86,43.57A10.36,10.36,0,0,0,26.5,40,10.5,10.5,0,1,0,16,50.5Zm85.5,48v11h-75v-11h75Zm-67-5v-11h59v11Zm77.5-59a5.5,5.5,0,1,1-5.5,5.5A5.51,5.51,0,0,1,112,34.5Zm-24-16A5.5,5.5,0,1,1,82.5,24,5.51,5.51,0,0,1,88,18.5ZM58.5,16A5.5,5.5,0,1,1,64,21.5,5.51,5.51,0,0,1,58.5,16Zm-24,8A5.5,5.5,0,1,1,40,29.5,5.51,5.51,0,0,1,34.5,24ZM23.08,47.73,38.61,58.08A2.5,2.5,0,0,0,42.5,56V34.19a10.16,10.16,0,0,0,1.07-.33L53.92,49.39a2.51,2.51,0,0,0,4.51-.78L64,26.5h.1l5.52,22.11a2.51,2.51,0,0,0,4.51.78L84.43,33.86a10.16,10.16,0,0,0,1.07.33V56a2.5,2.5,0,0,0,3.89,2.08l15.53-10.35a11,11,0,0,0,1,.8l-11.59,29H33.69l-11.59-29A11,11,0,0,0,23.08,47.73ZM16,34.5A5.5,5.5,0,1,1,10.5,40,5.51,5.51,0,0,1,16,34.5Z"/></g></svg>