<svg xmlns="http://www.w3.org/2000/svg" viewBox="0 0 128 128"><defs><style>.cls-1{fill:none;}.cls-2{fill:#0b0b0b;}</style></defs><g id="OUTLINES_copy_2" data-name="OUTLINES copy 2"><circle class="cls-1" cx="64" cy="16" r="5.5"/><path class="cls-1" d="M67.34,77.5A95.59,95.59,0,0,0,69.5,56C69.5,38.51,66,27.74,64,26.54c-2,1.2-5.5,12-5.5,29.46a95.59,95.59,0,0,0,2.16,21.5Z"/><path class="cls-1" d="M32,77.5H55.52a109.66,109.66,0,0,1-2-21.5,105.33,105.33,0,0,1,2.33-22.82A34.18,34.18,0,0,0,38.31,26c-7.52-.72-14.27,1.5-19,6.25s-7,11.51-6.25,19A35.1,35.1,0,0,0,23.49,72.51a37.63,37.63,0,0,0,7,5.52A2.49,2.49,0,0,1,32,77.5Z"/><rect class="cls-1" x="34.5" y="82.5" width="59" height="11"/><polygon class="cls-1" points="32 98.5 26.5 98.5 26.5 109.5 101.5 109.5 101.5 98.5 96 98.5 32 98.5"/><path class="cls-1" d="M89.69,26a34.18,34.18,0,0,0-17.52,7.18A105.33,105.33,0,0,1,74.5,56a109.66,109.66,0,0,1-2,21.5H96a2.49,2.49,0,0,1,1.53.53,37.63,37.63,0,0,0,7-5.52A35.1,35.1,0,0,0,115,51.27c.73-7.51-1.49-14.27-6.25-19S97.21,25.28,89.69,26Z"/><path class="cls-2" d="M70.62,28.12a19.83,19.83,0,0,0-1.46-3,10.5,10.5,0,1,0-10.32,0,19.83,19.83,0,0,0-1.46,3c-13.73-9.67-31.24-9.79-41.63.59-5.83,5.83-8.56,14-7.69,23A40.16,40.16,0,0,0,20,76.05a42.4,42.4,0,0,0,9.55,7.18V93.5H24A2.5,2.5,0,0,0,21.5,96v16a2.5,2.5,0,0,0,2.5,2.5h80a2.5,2.5,0,0,0,2.5-2.5V96a2.5,2.5,0,0,0-2.5-2.5H98.5V83.24a42.45,42.45,0,0,0,9.55-7.19,40.16,40.16,0,0,0,11.89-24.3c.87-9-1.86-17.21-7.69-23C101.86,18.33,84.35,18.45,70.62,28.12ZM58.5,16A5.5,5.5,0,1,1,64,21.5,5.51,5.51,0,0,1,58.5,16ZM64,26.54c2,1.2,5.5,12,5.5,29.46a95.59,95.59,0,0,1-2.16,21.5H60.66A95.59,95.59,0,0,1,58.5,56C58.5,38.51,62,27.74,64,26.54Zm29.5,56v11h-59v-11Zm-70-10A35.1,35.1,0,0,1,13,51.27c-.73-7.51,1.49-14.27,6.25-19s11.5-7,19-6.25a34.18,34.18,0,0,1,17.52,7.18A105.33,105.33,0,0,0,53.5,56a109.66,109.66,0,0,0,2,21.5H32a2.49,2.49,0,0,0-1.53.53A37.63,37.63,0,0,1,23.49,72.51Zm78,26v11h-75v-11h75ZM115,51.27a35.1,35.1,0,0,1-10.45,21.24,37.63,37.63,0,0,1-7,5.52A2.49,2.49,0,0,0,96,77.5H72.48a109.66,109.66,0,0,0,2-21.5,105.33,105.33,0,0,0-2.33-22.82A34.18,34.18,0,0,1,89.69,26c7.52-.72,14.27,1.5,19,6.25S115.69,43.76,115,51.27Z"/></g></svg>