<svg xmlns="http://www.w3.org/2000/svg" viewBox="0 0 128 128"><defs><style>.cls-1{fill:none;}.cls-2{fill:#0b0b0b;}</style></defs><g id="OUTLINES_copy_2" data-name="OUTLINES copy 2"><path class="cls-1" d="M72,101.5H56a2.5,2.5,0,0,0,0,5H72a2.5,2.5,0,0,0,0-5Z"/><path class="cls-1" d="M29.5,80V72.07l-1.61-1.62a5.5,5.5,0,0,0-7.78,7.78l9.43,9.43A2.44,2.44,0,0,1,32,85.51l-2.19-4.39A2.43,2.43,0,0,1,29.5,80Z"/><path class="cls-1" d="M57.39,58.08A2.55,2.55,0,0,1,56,58.5H48A2.5,2.5,0,0,1,45.5,56V46l-11,11V79.41l4.7,9.39,9.39,4.7H79.41l9.39-4.7,4.7-9.39V64.76L79.31,43.47ZM40,62.5H56a1.5,1.5,0,0,1,0,3H40a1.5,1.5,0,0,1,0-3Zm8,11H40a1.5,1.5,0,0,1,0-3h8a1.5,1.5,0,0,1,0,3Zm24,16A1.5,1.5,0,0,1,70.5,88a6.5,6.5,0,0,0-13,0,1.5,1.5,0,0,1-3,0,9.5,9.5,0,0,1,19,0A1.5,1.5,0,0,1,72,89.5Zm16-16H80a1.5,1.5,0,0,1,0-3h8a1.5,1.5,0,0,1,0,3ZM89.5,64A1.5,1.5,0,0,1,88,65.5H72a1.5,1.5,0,0,1,0-3H88A1.5,1.5,0,0,1,89.5,64Z"/><path class="cls-1" d="M104,68.85a5.48,5.48,0,0,0-3.89,1.6L98.5,72.07V80a2.43,2.43,0,0,1-.27,1.12L96,85.51a2.44,2.44,0,0,1,2.42,2.15l9.43-9.43A5.49,5.49,0,0,0,104,68.85Z"/><path class="cls-2" d="M106.48,64.16a1,1,0,0,0,0-.16V40a2.55,2.55,0,0,0-.42-1.39l-16-24A2.5,2.5,0,0,0,88,13.5H40a2.5,2.5,0,0,0-2.08,1.11l-16,24A2.55,2.55,0,0,0,21.5,40V64a1,1,0,0,0,0,.16,10.48,10.48,0,0,0-4.94,17.61L27.89,93.08A10.56,10.56,0,0,0,29.5,94.4V112a2.5,2.5,0,0,0,2.5,2.5h7l7.27,7.27a2.51,2.51,0,0,0,2.89.47L64,114.79l14.88,7.45a2.62,2.62,0,0,0,1.12.26,2.5,2.5,0,0,0,1.77-.73L89,114.5h7a2.5,2.5,0,0,0,2.5-2.5V94.4a10.56,10.56,0,0,0,1.61-1.32l11.31-11.31a10.48,10.48,0,0,0-4.94-17.61ZM30.69,85.87a2.5,2.5,0,0,0-1.15,1.79l-9.43-9.43a5.5,5.5,0,0,1,7.78-7.78l1.61,1.62V80a2.43,2.43,0,0,0,.27,1.12L32,85.51A2.52,2.52,0,0,0,30.69,85.87ZM72,106.5H56a2.5,2.5,0,0,1,0-5H72a2.5,2.5,0,0,1,0,5ZM93.5,79.41,88.8,88.8l-9.39,4.7H48.59L39.2,88.8l-4.7-9.39V57l11-11V56A2.5,2.5,0,0,0,48,58.5h8a2.55,2.55,0,0,0,1.39-.42L79.31,43.47,93.5,64.76Zm14.39-1.18-9.43,9.43A2.44,2.44,0,0,0,96,85.51l2.19-4.39A2.43,2.43,0,0,0,98.5,80V72.07l1.61-1.62a5.5,5.5,0,0,1,7.78,7.78Z"/><path class="cls-2" d="M48,70.5H40a1.5,1.5,0,0,0,0,3h8a1.5,1.5,0,0,0,0-3Z"/><path class="cls-2" d="M88,70.5H80a1.5,1.5,0,0,0,0,3h8a1.5,1.5,0,0,0,0-3Z"/><path class="cls-2" d="M40,65.5H56a1.5,1.5,0,0,0,0-3H40a1.5,1.5,0,0,0,0,3Z"/><path class="cls-2" d="M70.5,64A1.5,1.5,0,0,0,72,65.5H88a1.5,1.5,0,0,0,0-3H72A1.5,1.5,0,0,0,70.5,64Z"/><path class="cls-2" d="M64,78.5A9.51,9.51,0,0,0,54.5,88a1.5,1.5,0,0,0,3,0,6.5,6.5,0,0,1,13,0,1.5,1.5,0,0,0,3,0A9.51,9.51,0,0,0,64,78.5Z"/></g></svg>