<svg xmlns="http://www.w3.org/2000/svg" viewBox="0 0 128 128"><defs><style>.cls-1{fill:none;}.cls-2{fill:#0b0b0b;}</style></defs><g id="OUTLINES_copy_2" data-name="OUTLINES copy 2"><path class="cls-1" d="M64,18.5A37.54,37.54,0,0,0,26.5,56,37.15,37.15,0,0,0,34,78.5a2.53,2.53,0,0,1,.5,1.5V96A13.52,13.52,0,0,0,48,109.5H80A13.52,13.52,0,0,0,93.5,96V80a2.53,2.53,0,0,1,.5-1.5A37.15,37.15,0,0,0,101.5,56,37.54,37.54,0,0,0,64,18.5ZM78.23,30.23a2.59,2.59,0,0,1,3.54,0A2.55,2.55,0,0,1,82.5,32a2.72,2.72,0,0,1,0,.49,2.43,2.43,0,0,1-.37.9,3.68,3.68,0,0,1-.31.38,2.51,2.51,0,0,1-3.54,0,3.68,3.68,0,0,1-.31-.38,2.43,2.43,0,0,1-.37-.9,2.72,2.72,0,0,1,0-.49A2.55,2.55,0,0,1,78.23,30.23ZM56,78.5H72a1.5,1.5,0,0,1,0,3H56a1.5,1.5,0,0,1,0-3ZM37.5,72V64a2.5,2.5,0,0,1,4.27-1.77l8,8A2.5,2.5,0,0,1,48,74.5H40A2.5,2.5,0,0,1,37.5,72Zm44,24a1.5,1.5,0,0,1-3,0V91.62l-5.44,5.44A1.5,1.5,0,0,1,72,97.5H56a1.5,1.5,0,0,1-1.06-.44L49.5,91.62V96a1.5,1.5,0,0,1-3,0V88a1.51,1.51,0,0,1,.93-1.39,1.5,1.5,0,0,1,1.63.33l7.56,7.56H71.38l7.56-7.56a1.5,1.5,0,0,1,1.63-.33A1.51,1.51,0,0,1,81.5,88Zm9-24A2.5,2.5,0,0,1,88,74.5H80a2.5,2.5,0,0,1-1.77-4.27l8-8A2.5,2.5,0,0,1,90.5,64Zm0-23.51a2.43,2.43,0,0,1-.37.9,2.43,2.43,0,0,1-.69.69,2.43,2.43,0,0,1-.9.37,2.43,2.43,0,0,1-1,0,2.43,2.43,0,0,1-.9-.37,2.43,2.43,0,0,1-.69-.69,2.43,2.43,0,0,1-.37-.9,2.43,2.43,0,0,1,0-1,2.43,2.43,0,0,1,.37-.9,3.68,3.68,0,0,1,.31-.38,2.85,2.85,0,0,1,.38-.31,2.43,2.43,0,0,1,.9-.37,2.31,2.31,0,0,1,1,0,2.43,2.43,0,0,1,.9.37,2.43,2.43,0,0,1,.69.69,2.43,2.43,0,0,1,.37.9,2.43,2.43,0,0,1,0,1Z"/><path class="cls-1" d="M98.5,80.82v4.53C111.87,83.83,115.84,70.1,117,62a56.27,56.27,0,0,1-12.6,7.26A42,42,0,0,1,98.5,80.82Z"/><path class="cls-1" d="M11,62c1.17,8.15,5.14,21.88,18.51,23.4V80.82a42,42,0,0,1-5.91-11.61A56.27,56.27,0,0,1,11,62Z"/><path class="cls-2" d="M121,53.69a2.51,2.51,0,0,0-2.73.54A46.84,46.84,0,0,1,105.93,63a42.5,42.5,0,1,0-83.86,0,46.84,46.84,0,0,1-12.3-8.74A2.5,2.5,0,0,0,5.5,56c0,11.44,5.1,32.65,24,34.37V96A18.52,18.52,0,0,0,48,114.5H80A18.52,18.52,0,0,0,98.5,96V90.37c18.9-1.72,24-22.93,24-34.37A2.51,2.51,0,0,0,121,53.69ZM29.5,85.35C16.13,83.83,12.16,70.1,11,62a56.27,56.27,0,0,0,12.6,7.26A42,42,0,0,0,29.5,80.82ZM94,78.5a2.53,2.53,0,0,0-.5,1.5V96A13.52,13.52,0,0,1,80,109.5H48A13.52,13.52,0,0,1,34.5,96V80a2.53,2.53,0,0,0-.5-1.5A37.15,37.15,0,0,1,26.5,56a37.5,37.5,0,0,1,75,0A37.15,37.15,0,0,1,94,78.5Zm4.5,6.85V80.82a42,42,0,0,0,5.91-11.61A56.27,56.27,0,0,0,117,62C115.84,70.1,111.87,83.83,98.5,85.35Z"/><path class="cls-2" d="M50.31,73a2.51,2.51,0,0,0-.54-2.73l-8-8A2.5,2.5,0,0,0,37.5,64v8A2.5,2.5,0,0,0,40,74.5h8A2.51,2.51,0,0,0,50.31,73Z"/><path class="cls-2" d="M89,61.69a2.51,2.51,0,0,0-2.73.54l-8,8A2.5,2.5,0,0,0,80,74.5h8A2.5,2.5,0,0,0,90.5,72V64A2.51,2.51,0,0,0,89,61.69Z"/><path class="cls-2" d="M56,81.5H72a1.5,1.5,0,0,0,0-3H56a1.5,1.5,0,0,0,0,3Z"/><path class="cls-2" d="M90.31,47a2.55,2.55,0,0,0-.23-.43,2.43,2.43,0,0,0-.69-.69,2.43,2.43,0,0,0-.9-.37,2.31,2.31,0,0,0-1,0,2.43,2.43,0,0,0-.9.37,2.85,2.85,0,0,0-.38.31,3.68,3.68,0,0,0-.31.38,2.43,2.43,0,0,0-.37.9,2.43,2.43,0,0,0,0,1,2.43,2.43,0,0,0,.37.9,2.43,2.43,0,0,0,.69.69,2.43,2.43,0,0,0,.9.37,2.43,2.43,0,0,0,1,0,2.43,2.43,0,0,0,.9-.37,2.43,2.43,0,0,0,.69-.69,2.43,2.43,0,0,0,.37-.9,2.43,2.43,0,0,0,0-1A2.54,2.54,0,0,0,90.31,47Z"/><path class="cls-2" d="M77.69,33a2.55,2.55,0,0,0,.23.43,3.68,3.68,0,0,0,.31.38,2.51,2.51,0,0,0,3.54,0,3.68,3.68,0,0,0,.31-.38,2.43,2.43,0,0,0,.37-.9,2.72,2.72,0,0,0,0-.49,2.55,2.55,0,0,0-.73-1.77,2.59,2.59,0,0,0-3.54,0A2.55,2.55,0,0,0,77.5,32a2.72,2.72,0,0,0,0,.49A2.54,2.54,0,0,0,77.69,33Z"/><path class="cls-2" d="M80.57,86.61a1.5,1.5,0,0,0-1.63.33L71.38,94.5H56.62l-7.56-7.56a1.5,1.5,0,0,0-1.63-.33A1.51,1.51,0,0,0,46.5,88v8a1.5,1.5,0,0,0,3,0V91.62l5.44,5.44A1.5,1.5,0,0,0,56,97.5H72a1.5,1.5,0,0,0,1.06-.44l5.44-5.44V96a1.5,1.5,0,0,0,3,0V88A1.51,1.51,0,0,0,80.57,86.61Z"/></g></svg>