<svg xmlns="http://www.w3.org/2000/svg" viewBox="0 0 128 128"><defs><style>.cls-1{fill:none;}.cls-2{fill:#0b0b0b;}</style></defs><g id="OUTLINES_copy_2" data-name="OUTLINES copy 2"><path class="cls-1" d="M93.5,80h0V73.5H88A1.5,1.5,0,0,1,86.5,72a6.5,6.5,0,0,0-13,0,1.5,1.5,0,0,1-3,0,9.5,9.5,0,0,1,18.88-1.5H93.5v-20H72a2.52,2.52,0,0,1-2.24-1.38L64,37.59,58.24,49.12A2.52,2.52,0,0,1,56,50.5H34.5v20h4.12A9.5,9.5,0,0,1,57.5,72a1.5,1.5,0,0,1-3,0,6.5,6.5,0,0,0-13,0A1.5,1.5,0,0,1,40,73.5H34.5V80h0v7L57,109.5H71L93.5,87ZM68,97.5H56a1.5,1.5,0,0,1,0-3H68a1.5,1.5,0,0,1,0,3Zm5.39-8.93A1.51,1.51,0,0,1,72,89.5H64a1.5,1.5,0,0,1,0-3h4.38l-5.44-5.44a1.5,1.5,0,0,1,2.12-2.12l8,8A1.5,1.5,0,0,1,73.39,88.57Z"/><path class="cls-2" d="M65.06,78.94a1.5,1.5,0,0,0-2.12,2.12l5.44,5.44H64a1.5,1.5,0,0,0,0,3h8a1.51,1.51,0,0,0,1.39-.93,1.5,1.5,0,0,0-.33-1.63Z"/><path class="cls-2" d="M68,94.5H56a1.5,1.5,0,0,0,0,3H68a1.5,1.5,0,0,0,0-3Z"/><path class="cls-2" d="M95.43,122.43a2.22,2.22,0,0,0,.57.07,2.51,2.51,0,0,0,2.24-1.38l8-16a2.56,2.56,0,0,0,.26-1.12V48c0-16.59-16.25-34.5-42.5-34.5S21.5,31.41,21.5,48v56a2.56,2.56,0,0,0,.26,1.12l8,16A2.51,2.51,0,0,0,32,122.5a2.22,2.22,0,0,0,.57-.07A2.49,2.49,0,0,0,34.5,120V94l19.73,19.73a2.51,2.51,0,0,0,1.77.73H72a2.51,2.51,0,0,0,1.77-.73L93.5,94v26A2.49,2.49,0,0,0,95.43,122.43ZM71,109.5H57L34.5,87V80h0V73.5H40A1.5,1.5,0,0,0,41.5,72a6.5,6.5,0,0,1,13,0,1.5,1.5,0,0,0,3,0,9.5,9.5,0,0,0-18.88-1.5H34.5v-20H56a2.52,2.52,0,0,0,2.24-1.38L64,37.59l5.76,11.53A2.52,2.52,0,0,0,72,50.5H93.5v20H89.38A9.5,9.5,0,0,0,70.5,72a1.5,1.5,0,0,0,3,0,6.5,6.5,0,0,1,13,0A1.5,1.5,0,0,0,88,73.5h5.5V80h0v7Z"/></g></svg>