<svg xmlns="http://www.w3.org/2000/svg" viewBox="0 0 128 128"><defs><style>.cls-1{fill:none;}.cls-2{fill:#0b0b0b;}</style></defs><g id="OUTLINES_copy_2" data-name="OUTLINES copy 2"><path class="cls-1" d="M31.84,82.37H26.5v19A21.55,21.55,0,0,0,41.26,92.8l-6.34-6.35A18.63,18.63,0,0,1,31.84,82.37Z"/><path class="cls-1" d="M101.46,53.43c-.76-26.33-13.37-41.77-35-42.87V24C66.5,45.89,88.08,52.67,101.46,53.43Z"/><path class="cls-1" d="M29.5,73.39V58.24c-1.83.17-3.67.26-5.5.26A2.5,2.5,0,0,1,21.5,56c0-1.07,0-2.12.06-3.16a37.31,37.31,0,0,1-5-6.18c-1.76,5.26-3.81,14.07-1.11,21.28a16.43,16.43,0,0,0,9.08,9.44h5Z"/><path class="cls-1" d="M106.46,53.27c0,.9,0,1.81,0,2.73a2.5,2.5,0,0,1-2.5,2.5c-1.83,0-3.67-.09-5.5-.26V77.41l5,.08a16,16,0,0,0,9.34-9c3-7.2,1-16.28-.71-21.58A40.09,40.09,0,0,1,106.46,53.27Z"/><path class="cls-1" d="M93.5,73.37V65.5H88A1.5,1.5,0,0,1,86.5,64a6.5,6.5,0,0,0-12.83-1.5H80a1.5,1.5,0,0,1,0,3H72A1.5,1.5,0,0,1,70.5,64a9.5,9.5,0,0,1,18.88-1.5H93.5v-5C80.74,55.18,69,48.43,64,36.76,59,48.43,47.26,55.18,34.5,57.54v5h4.12A9.5,9.5,0,0,1,57.5,64,1.5,1.5,0,0,1,56,65.5H48a1.5,1.5,0,0,1,0-3h6.33A6.5,6.5,0,0,0,41.5,64,1.5,1.5,0,0,1,40,65.5H34.5v7.87a13.41,13.41,0,0,0,4,9.55L53.08,97.55a13.41,13.41,0,0,0,9.55,4h2.74a13.41,13.41,0,0,0,9.55-4L89.55,82.92A13.41,13.41,0,0,0,93.5,73.37ZM64,73.5a1.5,1.5,0,0,1,0-3h8a1.51,1.51,0,0,1,1.39.93,1.5,1.5,0,0,1-.33,1.63l-8,8a1.5,1.5,0,0,1-2.12,0,1.49,1.49,0,0,1,0-2.12l5.44-5.44Zm0,16c-9.81,0-17.5-4.17-17.5-9.5a1.5,1.5,0,0,1,3,0c0,3.07,6,6.5,14.5,6.5S78.5,83.07,78.5,80a1.5,1.5,0,0,1,3,0C81.5,85.33,73.81,89.5,64,89.5Z"/><path class="cls-1" d="M93.08,86.45,86.74,92.8a21.55,21.55,0,0,0,14.76,8.56V82.46l-5.34-.09A18.39,18.39,0,0,1,93.08,86.45Z"/><path class="cls-1" d="M61.5,24V10.56c-21.59,1.1-34.2,16.54-35,42.87C39.92,52.67,61.5,45.89,61.5,24Z"/><path class="cls-2" d="M113,39a2.49,2.49,0,0,0-2.29,1.19,47,47,0,0,1-4.65,6.4l-.07-.11C103,20.63,87.82,5.5,64,5.5c-23.62,0-38.79,14.89-41.9,40.35a45.06,45.06,0,0,1-3.79-6.06,2.51,2.51,0,0,0-2.21-1.33h-.05a2.52,2.52,0,0,0-2.21,1.42c-.32.68-7.93,16.77-3.09,29.79A21.29,21.29,0,0,0,21.5,81.44V104a2.5,2.5,0,0,0,2.5,2.5A26.44,26.44,0,0,0,44.82,96.36l4.73,4.72a18.35,18.35,0,0,0,13.08,5.42h2.74a18.35,18.35,0,0,0,13.08-5.42l4.73-4.72A26.44,26.44,0,0,0,104,106.5a2.5,2.5,0,0,0,2.5-2.5V81.63a20.85,20.85,0,0,0,11-11.24c5.23-12.82-2.11-29.24-2.42-29.93A2.5,2.5,0,0,0,113,39ZM66.5,10.56c21.59,1.1,34.2,16.54,35,42.87-13.38-.76-35-7.54-35-29.43Zm-5,0V24c0,21.89-21.58,28.67-35,29.43C27.3,27.1,39.91,11.66,61.5,10.56Zm-46,57.38c-2.7-7.21-.65-16,1.11-21.28a37.31,37.31,0,0,0,5,6.18c0,1-.06,2.09-.06,3.16A2.5,2.5,0,0,0,24,58.5c1.83,0,3.67-.09,5.5-.26V77.37h-5A16.43,16.43,0,0,1,15.45,67.94ZM26.5,101.36v-19h5.34a18.63,18.63,0,0,0,3.08,4.08l6.34,6.35A21.55,21.55,0,0,1,26.5,101.36Zm48.42-3.81a13.41,13.41,0,0,1-9.55,4H62.63a13.41,13.41,0,0,1-9.55-4L38.45,82.92a13.41,13.41,0,0,1-4-9.55V65.5H40A1.5,1.5,0,0,0,41.5,64a6.5,6.5,0,0,1,12.83-1.5H48a1.5,1.5,0,0,0,0,3h8A1.5,1.5,0,0,0,57.5,64a9.5,9.5,0,0,0-18.88-1.5H34.5v-5C47.26,55.18,59,48.43,64,36.76c5,11.67,16.74,18.42,29.5,20.78v5H89.38A9.5,9.5,0,0,0,70.5,64,1.5,1.5,0,0,0,72,65.5h8a1.5,1.5,0,0,0,0-3H73.67A6.5,6.5,0,0,1,86.5,64,1.5,1.5,0,0,0,88,65.5h5.5v7.87a13.41,13.41,0,0,1-4,9.55Zm26.58,3.81A21.55,21.55,0,0,1,86.74,92.8l6.34-6.35a18.39,18.39,0,0,0,3.08-4.08l5.34.09Zm11.38-32.84a16,16,0,0,1-9.34,9l-5-.08V58.24c1.83.17,3.67.26,5.5.26a2.5,2.5,0,0,0,2.5-2.5c0-.92,0-1.83,0-2.73a40.09,40.09,0,0,0,5.71-6.33C113.84,52.24,115.83,61.32,112.88,68.52Z"/><path class="cls-2" d="M62.94,81.06a1.5,1.5,0,0,0,2.12,0l8-8a1.5,1.5,0,0,0,.33-1.63A1.51,1.51,0,0,0,72,70.5H64a1.5,1.5,0,0,0,0,3h4.38l-5.44,5.44A1.49,1.49,0,0,0,62.94,81.06Z"/><path class="cls-2" d="M80,78.5A1.5,1.5,0,0,0,78.5,80c0,3.07-6,6.5-14.5,6.5S49.5,83.07,49.5,80a1.5,1.5,0,0,0-3,0c0,5.33,7.69,9.5,17.5,9.5S81.5,85.33,81.5,80A1.5,1.5,0,0,0,80,78.5Z"/></g></svg>