<svg xmlns="http://www.w3.org/2000/svg" viewBox="0 0 128 128"><defs><style>.cls-1{fill:none;}.cls-2{fill:#0b0b0b;}</style></defs><g id="OUTLINES_copy_2" data-name="OUTLINES copy 2"><path class="cls-1" d="M93.5,52a14.76,14.76,0,0,1,.08-1.5H72a2.52,2.52,0,0,1-2.24-1.38L64,37.59,58.24,49.12A2.52,2.52,0,0,1,56,50.5H34.42A14.76,14.76,0,0,1,34.5,52V75.5a14.4,14.4,0,0,1-2.86,8.61l2.13,2.12a3.68,3.68,0,0,1,.31.38L49.34,109.5H78.66L93.92,86.61a3.68,3.68,0,0,1,.31-.38l2.13-2.12A14.4,14.4,0,0,1,93.5,75.5ZM62.66,71.33a1.5,1.5,0,0,1,2.68,1.34L58.43,86.5H64a1.5,1.5,0,0,1,0,3H56a1.49,1.49,0,0,1-1.34-2.17ZM48,73.5a1.5,1.5,0,0,1,0-3h6.32A6.5,6.5,0,0,0,41.5,72a1.5,1.5,0,0,1-3,0,9.5,9.5,0,0,1,19,0A1.5,1.5,0,0,1,56,73.5Zm24,24H56a1.5,1.5,0,0,1,0-3H72a1.5,1.5,0,0,1,0,3Zm16-24A1.5,1.5,0,0,1,86.5,72a6.5,6.5,0,0,0-12.82-1.5H80a1.5,1.5,0,0,1,0,3H72A1.5,1.5,0,0,1,70.5,72a9.5,9.5,0,0,1,19,0A1.5,1.5,0,0,1,88,73.5Z"/><path class="cls-2" d="M54.72,88.79A1.52,1.52,0,0,0,56,89.5h8a1.5,1.5,0,0,0,0-3H58.43l6.91-13.83a1.5,1.5,0,0,0-2.68-1.34l-8,16A1.52,1.52,0,0,0,54.72,88.79Z"/><path class="cls-2" d="M72,94.5H56a1.5,1.5,0,0,0,0,3H72a1.5,1.5,0,0,0,0-3Z"/><path class="cls-2" d="M108,37.5a14.55,14.55,0,0,0-3.45.43C99.51,24.9,84.94,13.5,64,13.5S28.49,24.9,23.45,37.93A14.45,14.45,0,0,0,5.5,52V75.5A14.48,14.48,0,0,0,28,87.56l2,2,15.86,23.8A2.5,2.5,0,0,0,48,114.5H80a2.5,2.5,0,0,0,2.08-1.11l15.86-23.8,2-2A14.48,14.48,0,0,0,122.5,75.5V52A14.51,14.51,0,0,0,108,37.5ZM94.23,86.23a3.68,3.68,0,0,0-.31.38L78.66,109.5H49.34L34.08,86.61a3.68,3.68,0,0,0-.31-.38l-2.13-2.12A14.4,14.4,0,0,0,34.5,75.5V52a14.76,14.76,0,0,0-.08-1.5H56a2.52,2.52,0,0,0,2.24-1.38L64,37.59l5.76,11.53A2.52,2.52,0,0,0,72,50.5H93.58A14.76,14.76,0,0,0,93.5,52V75.5a14.4,14.4,0,0,0,2.86,8.61Z"/><path class="cls-2" d="M57.5,72a9.5,9.5,0,0,0-19,0,1.5,1.5,0,0,0,3,0,6.5,6.5,0,0,1,12.82-1.5H48a1.5,1.5,0,0,0,0,3h8A1.5,1.5,0,0,0,57.5,72Z"/><path class="cls-2" d="M80,62.5A9.51,9.51,0,0,0,70.5,72,1.5,1.5,0,0,0,72,73.5h8a1.5,1.5,0,0,0,0-3H73.68A6.5,6.5,0,0,1,86.5,72a1.5,1.5,0,0,0,3,0A9.51,9.51,0,0,0,80,62.5Z"/></g></svg>