<svg xmlns="http://www.w3.org/2000/svg" viewBox="0 0 128 128"><defs><style>.cls-1{fill:none;}.cls-2{fill:#0b0b0b;}</style></defs><g id="OUTLINES_copy_2" data-name="OUTLINES copy 2"><path class="cls-1" d="M73.12,66.24a2.51,2.51,0,0,1-2.89-.47L64,59.54l-6.23,6.23a2.51,2.51,0,0,1-2.89.47L41.12,59.35,34.5,72.59V87.41l15,30.09H78.46l15-30.09V72.59L86.88,59.35ZM62.66,80.67a1.5,1.5,0,0,1,2.68-1.34l8,16A1.49,1.49,0,0,1,72,97.5H56a1.5,1.5,0,0,1,0-3H69.57ZM48,89.5A9.51,9.51,0,0,1,38.5,80,1.5,1.5,0,0,1,40,78.5h9.65L39.33,73.34a1.5,1.5,0,0,1,1.34-2.68l16,8,0,0a2.2,2.2,0,0,1,.25.17l.06.06a1.18,1.18,0,0,1,.23.27l0,.07a1.59,1.59,0,0,1,.12.27l0,.1a1.5,1.5,0,0,1,0,.37A9.51,9.51,0,0,1,48,89.5Zm25.06,15.56-8,8a1.5,1.5,0,0,1-2.12,0l-8-8a1.5,1.5,0,0,1,2.12-2.12L64,109.88l6.94-6.94a1.5,1.5,0,0,1,2.12,2.12ZM89.34,71.33a1.5,1.5,0,0,1-.67,2L78.35,78.5H88A1.5,1.5,0,0,1,89.5,80a9.5,9.5,0,0,1-19,0,1.5,1.5,0,0,1,0-.37l0-.1a1.59,1.59,0,0,1,.12-.27l0-.07a1.18,1.18,0,0,1,.23-.27l.06-.06a2.2,2.2,0,0,1,.25-.17l0,0,16-8A1.5,1.5,0,0,1,89.34,71.33Z"/><path class="cls-1" d="M80,86.5a6.51,6.51,0,0,0,6.32-5H73.68A6.5,6.5,0,0,0,80,86.5Z"/><path class="cls-1" d="M100.11,76.11,98.5,77.72V88a2.43,2.43,0,0,1-.27,1.12l-2.54,5.09L108,83.82a5.5,5.5,0,0,0-7.84-7.71Z"/><path class="cls-1" d="M101.5,40V20l-12.38,6.2a2.52,2.52,0,0,1-2.24,0L72.49,19l-6.72,6.73a2.52,2.52,0,0,1-3.54,0L55.51,19l-14.39,7.2a2.52,2.52,0,0,1-2.24,0L26.5,20V40a2.56,2.56,0,0,1-.26,1.12L18.79,56l6.75,13.5h4.92l7.3-14.62a2.52,2.52,0,0,1,3.36-1.12L55.51,61l6.72-6.73a2.52,2.52,0,0,1,3.54,0L72.49,61l14.39-7.2a2.52,2.52,0,0,1,3.36,1.12l7.3,14.62h4.92L109.21,56l-7.45-14.88A2.56,2.56,0,0,1,101.5,40Z"/><path class="cls-1" d="M48,86.5a6.5,6.5,0,0,0,6.32-5H41.68A6.51,6.51,0,0,0,48,86.5Z"/><path class="cls-1" d="M29.5,88V77.72l-1.61-1.61a5.5,5.5,0,0,0-7.84,7.71L32.31,94.21l-2.54-5.09A2.43,2.43,0,0,1,29.5,88Z"/><path class="cls-2" d="M54.5,96A1.5,1.5,0,0,0,56,97.5H72a1.49,1.49,0,0,0,1.34-2.17l-8-16a1.5,1.5,0,0,0-2.68,1.34L69.57,94.5H56A1.5,1.5,0,0,0,54.5,96Z"/><path class="cls-2" d="M71.28,78.69a2.2,2.2,0,0,0-.25.17l-.06.06a1.18,1.18,0,0,0-.23.27l0,.07a1.59,1.59,0,0,0-.12.27l0,.1a1.5,1.5,0,0,0,0,.37,9.5,9.5,0,0,0,19,0A1.5,1.5,0,0,0,88,78.5H78.35l10.32-5.16a1.5,1.5,0,0,0-1.34-2.68l-16,8Zm15,2.81a6.49,6.49,0,0,1-12.64,0Z"/><path class="cls-2" d="M57.5,80a1.5,1.5,0,0,0,0-.37l0-.1a1.59,1.59,0,0,0-.12-.27l0-.07a1.18,1.18,0,0,0-.23-.27L57,78.86a2.2,2.2,0,0,0-.25-.17l0,0-16-8a1.5,1.5,0,0,0-1.34,2.68L49.65,78.5H40A1.5,1.5,0,0,0,38.5,80a9.5,9.5,0,0,0,19,0ZM48,86.5a6.51,6.51,0,0,1-6.32-5H54.32A6.5,6.5,0,0,1,48,86.5Z"/><path class="cls-2" d="M70.94,102.94,64,109.88l-6.94-6.94a1.5,1.5,0,0,0-2.12,2.12l8,8a1.5,1.5,0,0,0,2.12,0l8-8a1.5,1.5,0,0,0-2.12-2.12Z"/><path class="cls-2" d="M114.24,54.88,106.5,39.41V16a2.5,2.5,0,0,0-3.62-2.24L88,21.21,73.12,13.76a2.51,2.51,0,0,0-2.89.47L64,20.46l-6.23-6.23a2.51,2.51,0,0,0-2.89-.47L40,21.21,25.12,13.76A2.5,2.5,0,0,0,21.5,16V39.41L13.76,54.88a2.52,2.52,0,0,0,0,2.24L20.3,70.19a10.26,10.26,0,0,0-3.72,2.39,10.49,10.49,0,0,0,0,14.84.67.67,0,0,0,.15.14l21.26,18,7.77,15.54A2.52,2.52,0,0,0,48,122.5H80a2.52,2.52,0,0,0,2.24-1.38L90,105.58l21.26-18a.67.67,0,0,0,.15-.14,10.49,10.49,0,0,0,0-14.84,10.26,10.26,0,0,0-3.72-2.39l6.54-13.07A2.52,2.52,0,0,0,114.24,54.88ZM20.05,83.82a5.5,5.5,0,0,1,7.84-7.71l1.61,1.61V88a2.43,2.43,0,0,0,.27,1.12l2.54,5.09ZM93.5,87.41l-15,30.09H49.54l-15-30.09V72.59l6.62-13.24,13.76,6.89a2.51,2.51,0,0,0,2.89-.47L64,59.54l6.23,6.23a2.51,2.51,0,0,0,2.89.47l13.76-6.89L93.5,72.59Zm14.39-11.3a5.51,5.51,0,0,1,.06,7.71L95.69,94.21l2.54-5.09A2.43,2.43,0,0,0,98.5,88V77.72l1.61-1.61A5.52,5.52,0,0,1,107.89,76.11Zm-5.43-6.61H97.54l-7.3-14.62a2.52,2.52,0,0,0-3.36-1.12L72.49,61l-6.72-6.73a2.52,2.52,0,0,0-3.54,0L55.51,61l-14.39-7.2a2.52,2.52,0,0,0-3.36,1.12L30.46,69.5H25.54L18.79,56l7.45-14.88A2.56,2.56,0,0,0,26.5,40V20l12.38,6.2a2.52,2.52,0,0,0,2.24,0L55.51,19l6.72,6.73a2.52,2.52,0,0,0,3.54,0L72.49,19l14.39,7.2a2.52,2.52,0,0,0,2.24,0L101.5,20V40a2.56,2.56,0,0,0,.26,1.12L109.21,56Z"/></g></svg>