<svg xmlns="http://www.w3.org/2000/svg" viewBox="0 0 128 128"><defs><style>.cls-1{fill:none;}.cls-2{fill:#0b0b0b;}</style></defs><g id="OUTLINES_copy_2" data-name="OUTLINES copy 2"><path class="cls-1" d="M34.5,57.54v5H40A1.5,1.5,0,0,1,41.5,64a6.5,6.5,0,0,0,12.83,1.5H48a1.5,1.5,0,0,1,0-3h8A1.5,1.5,0,0,1,57.5,64a9.5,9.5,0,0,1-18.88,1.5H34.5V79L57,101.5H71L93.5,79V65.5H89.38A9.5,9.5,0,0,1,70.5,64,1.5,1.5,0,0,1,72,62.5h8a1.5,1.5,0,0,1,0,3H73.67A6.5,6.5,0,0,0,86.5,64,1.5,1.5,0,0,1,88,62.5h5.5v-5C80.74,55.18,69,48.43,64,36.76,59,48.43,47.26,55.18,34.5,57.54ZM72,89.5H56a1.5,1.5,0,0,1,0-3H72a1.5,1.5,0,0,1,0,3ZM62.94,73.06a1.5,1.5,0,0,1,2.12-2.12l8,8a1.5,1.5,0,0,1,.33,1.63A1.51,1.51,0,0,1,72,81.5H64a1.5,1.5,0,0,1,0-3h4.38Z"/><path class="cls-1" d="M101.5,88v-8l-4,2L73.77,105.77a2.51,2.51,0,0,1-1.77.73H56a2.51,2.51,0,0,1-1.77-.73L30.52,82.06l-4-2v8a10.49,10.49,0,0,1-16,8.94V104a5.51,5.51,0,0,0,5.5,5.5h96a5.51,5.51,0,0,0,5.5-5.5V96.94a10.49,10.49,0,0,1-16-8.94Z"/><path class="cls-1" d="M29.5,64a5.5,5.5,0,0,0-11,0v6.46l11,5.5Z"/><path class="cls-1" d="M61.5,24V10.57c-12,.69-34,6.87-35,42.86C39.92,52.67,61.5,45.89,61.5,24Z"/><path class="cls-1" d="M98.5,64V76l11-5.5V64a5.5,5.5,0,0,0-11,0Z"/><path class="cls-1" d="M101.46,53.43c-1-36-23-42.17-35-42.86V24C66.5,45.89,88.08,52.67,101.46,53.43Z"/><path class="cls-2" d="M120,85.5a2.5,2.5,0,0,0-2.5,2.5,5.5,5.5,0,0,1-11,0V77.55l6.62-3.31A2.52,2.52,0,0,0,114.5,72V64a10.52,10.52,0,0,0-8-10.2c-.38-17.39-5.35-30.4-14.81-38.68C82.56,7.17,71.6,5.5,64,5.5S45.44,7.17,36.35,15.12C26.89,23.4,21.92,36.41,21.54,53.8a10.52,10.52,0,0,0-8,10.2v8a2.52,2.52,0,0,0,1.38,2.24l6.62,3.31V88a5.5,5.5,0,0,1-11,0,2.5,2.5,0,0,0-5,0v16A10.51,10.51,0,0,0,16,114.5h96A10.51,10.51,0,0,0,122.5,104V88A2.5,2.5,0,0,0,120,85.5ZM109.5,64v6.46L98.5,76V64a5.5,5.5,0,0,1,11,0Zm-43-53.43c12,.69,34,6.87,35,42.86-13.38-.76-35-7.54-35-29.43Zm27,47v5H88A1.5,1.5,0,0,0,86.5,64a6.5,6.5,0,0,1-12.83,1.5H80a1.5,1.5,0,0,0,0-3H72A1.5,1.5,0,0,0,70.5,64a9.5,9.5,0,0,0,18.88,1.5H93.5V79L71,101.5H57L34.5,79V65.5h4.12A9.5,9.5,0,0,0,57.5,64,1.5,1.5,0,0,0,56,62.5H48a1.5,1.5,0,0,0,0,3h6.33A6.5,6.5,0,0,1,41.5,64,1.5,1.5,0,0,0,40,62.5H34.5v-5C47.26,55.18,59,48.43,64,36.76,69,48.43,80.74,55.18,93.5,57.54Zm-32-47V24c0,21.89-21.58,28.67-35,29.43C27.54,17.44,49.55,11.26,61.5,10.57Zm-43,59.89V64a5.5,5.5,0,0,1,11,0V76Zm99,33.54a5.51,5.51,0,0,1-5.5,5.5H16a5.51,5.51,0,0,1-5.5-5.5V96.94A10.49,10.49,0,0,0,26.5,88v-8l4,2,23.71,23.71a2.51,2.51,0,0,0,1.77.73H72a2.51,2.51,0,0,0,1.77-.73L97.48,82.06l4-2v8a10.49,10.49,0,0,0,16,8.94Z"/><path class="cls-2" d="M62.5,80A1.5,1.5,0,0,0,64,81.5h8a1.51,1.51,0,0,0,1.39-.93,1.5,1.5,0,0,0-.33-1.63l-8-8a1.5,1.5,0,0,0-2.12,2.12l5.44,5.44H64A1.5,1.5,0,0,0,62.5,80Z"/><path class="cls-2" d="M72,86.5H56a1.5,1.5,0,0,0,0,3H72a1.5,1.5,0,0,0,0-3Z"/></g></svg>