<svg xmlns="http://www.w3.org/2000/svg" viewBox="0 0 128 128"><defs><style>.cls-1{fill:none;}.cls-2{fill:#0b0b0b;}</style></defs><g id="OUTLINES_copy_2" data-name="OUTLINES copy 2"><path class="cls-1" d="M34.24,78.88l7.81,15.64,6,5.94,6.23-6.23A2.51,2.51,0,0,1,56,93.5H72a2.51,2.51,0,0,1,1.77.73L80,100.46l6-5.94,7.81-15.64A3,3,0,0,1,94,78.5,37.15,37.15,0,0,0,101.5,56c0-26.64-10.86-37.5-37.5-37.5S26.5,29.36,26.5,56A37.15,37.15,0,0,0,34,78.5,3,3,0,0,1,34.24,78.88ZM78.66,32.67a1.5,1.5,0,0,1,2.68-1.34l4.4,8.8,1.2-1.19a1.5,1.5,0,0,1,2.12,2.12L87.16,43l2.18,4.37a1.5,1.5,0,0,1-.67,2,1.44,1.44,0,0,1-.67.16,1.49,1.49,0,0,1-1.34-.83L84.92,45.2l-3.86,3.86a1.5,1.5,0,0,1-2.12,0,1.49,1.49,0,0,1,0-2.12l4.57-4.57ZM72,61.5H88a2.5,2.5,0,0,1,0,5h-.4a8,8,0,0,1-15.2,0H72a2.5,2.5,0,0,1,0-5Zm-8.67,9.16a1.5,1.5,0,0,1,2,.67l8,16A1.49,1.49,0,0,1,72,89.5H56a1.5,1.5,0,0,1,0-3H69.57L62.66,72.67A1.5,1.5,0,0,1,63.33,70.66ZM40,61.5H56a2.5,2.5,0,0,1,0,5h-.4a8,8,0,0,1-15.2,0H40a2.5,2.5,0,0,1,0-5Z"/><path class="cls-1" d="M29.53,87.65a2.49,2.49,0,0,1,1.16-1.78A2.42,2.42,0,0,1,32,85.51l-2.1-4.19a42.34,42.34,0,0,1-6.37-12.43,5.48,5.48,0,0,0-3.38,9.34Z"/><path class="cls-1" d="M72,101.5H56a2.5,2.5,0,0,0,0,5H72a2.5,2.5,0,0,0,0-5Z"/><path class="cls-1" d="M96,85.5a2.53,2.53,0,0,1,1.27.37,2.49,2.49,0,0,1,1.16,1.78l9.42-9.42a5.47,5.47,0,0,0-3.38-9.34,42.34,42.34,0,0,1-6.37,12.43Z"/><path class="cls-2" d="M13.5,74.34a10.41,10.41,0,0,0,3.08,7.43L27.89,93.08a10.43,10.43,0,0,0,4,2.49l5.74,17.22a2.52,2.52,0,0,0,1.25,1.45l16,8a2.56,2.56,0,0,0,1.12.26H72a2.56,2.56,0,0,0,1.12-.26l16-8a2.52,2.52,0,0,0,1.25-1.45l5.74-17.22a10.43,10.43,0,0,0,4-2.49l11.31-11.31A10.49,10.49,0,0,0,105.75,64a43.3,43.3,0,0,0,.75-8c0-19.79-4.83-42.5-42.5-42.5S21.5,36.21,21.5,56a43.3,43.3,0,0,0,.75,8A10.49,10.49,0,0,0,13.5,74.34ZM72,106.5H56a2.5,2.5,0,0,1,0-5H72a2.5,2.5,0,0,1,0,5Zm35.89-36a5.5,5.5,0,0,1,0,7.78l-9.42,9.42a2.49,2.49,0,0,0-1.16-1.78A2.53,2.53,0,0,0,96,85.5l2.1-4.18a42.34,42.34,0,0,0,6.37-12.43A5.49,5.49,0,0,1,107.89,70.45ZM64,18.5c26.64,0,37.5,10.86,37.5,37.5A37.15,37.15,0,0,1,94,78.5a3,3,0,0,0-.24.38L86,94.52l-6,5.94-6.23-6.23A2.51,2.51,0,0,0,72,93.5H56a2.51,2.51,0,0,0-1.77.73L48,100.46l-6-5.94L34.24,78.88A3,3,0,0,0,34,78.5,37.15,37.15,0,0,1,26.5,56C26.5,29.36,37.36,18.5,64,18.5Zm-43.89,52a5.49,5.49,0,0,1,3.38-1.56,42.34,42.34,0,0,0,6.37,12.43L32,85.51a2.42,2.42,0,0,0-1.27.36,2.49,2.49,0,0,0-1.16,1.78l-9.42-9.42a5.5,5.5,0,0,1,0-7.78Z"/><path class="cls-2" d="M69.57,86.5H56a1.5,1.5,0,0,0,0,3H72a1.49,1.49,0,0,0,1.34-2.17l-8-16a1.5,1.5,0,0,0-2.68,1.34Z"/><path class="cls-2" d="M40,66.5h.4a8,8,0,0,0,15.2,0H56a2.5,2.5,0,0,0,0-5H40a2.5,2.5,0,0,0,0,5Z"/><path class="cls-2" d="M72,66.5h.4a8,8,0,0,0,15.2,0H88a2.5,2.5,0,0,0,0-5H72a2.5,2.5,0,0,0,0,5Z"/><path class="cls-2" d="M78.94,49.06a1.5,1.5,0,0,0,2.12,0l3.86-3.86,1.74,3.47A1.49,1.49,0,0,0,88,49.5a1.44,1.44,0,0,0,.67-.16,1.5,1.5,0,0,0,.67-2L87.16,43l1.9-1.9a1.5,1.5,0,0,0-2.12-2.12l-1.2,1.19-4.4-8.8a1.5,1.5,0,0,0-2.68,1.34l4.85,9.7-4.57,4.57A1.49,1.49,0,0,0,78.94,49.06Z"/></g></svg>