<svg xmlns="http://www.w3.org/2000/svg" viewBox="0 0 128 128"><defs><style>.cls-1{fill:none;}.cls-2{fill:#0b0b0b;}</style></defs><g id="OUTLINES_copy_2" data-name="OUTLINES copy 2"><polygon class="cls-1" points="54.5 97.65 54.5 89.5 50.43 89.5 54.5 97.65"/><path class="cls-1" d="M27.47,69.75a57.52,57.52,0,0,1-11-14c-2.31,8.41-4.25,23.84,9.86,30l7.33,3.19-3.8-7.6C27.22,77.67,27,73.73,27.47,69.75Z"/><polygon class="cls-1" points="73.5 97.65 77.57 89.5 73.5 89.5 73.5 97.65"/><path class="cls-1" d="M94.73,65.57A48.9,48.9,0,0,1,93.5,56c0-24.88-9.92-37.5-29.5-37.5S34.5,31.12,34.5,56a48.9,48.9,0,0,1-1.23,9.57C32.22,70.85,31.39,75,34,78.5a3,3,0,0,1,.24.38l15.3,30.62H78.46l15.3-30.62A3,3,0,0,1,94,78.5C96.61,75,95.78,70.85,94.73,65.57ZM60,78.5h8a1.5,1.5,0,0,1,0,3H60a1.5,1.5,0,0,1,0-3ZM44,75.16a1.42,1.42,0,0,1-.57-.12,1.5,1.5,0,0,1-.93-1.38V56a1.47,1.47,0,0,1,.38-1l-4.13-6.19a1.5,1.5,0,0,1,2.5-1.66l16,24a1.5,1.5,0,0,1-.42,2.08,1.47,1.47,0,0,1-.83.25,1.49,1.49,0,0,1-1.25-.67l-4-5.93.21.46a1.5,1.5,0,0,1-.29,1.7l-5.66,5.66A1.53,1.53,0,0,1,44,75.16ZM81.5,88c0,.06,0,.11,0,.17s0,.09,0,.13a.78.78,0,0,1,0,.14.88.88,0,0,1,0,.15s0,0,0,0l-8,16a1.49,1.49,0,0,1-1.34.83,1.32,1.32,0,0,1-.34,0A1.5,1.5,0,0,1,70.5,104V89.5h-13V104a1.5,1.5,0,0,1-2.84.67l-8-16s0,0,0,0a.88.88,0,0,1,0-.15.78.78,0,0,1-.05-.14s0-.09,0-.13,0-.11,0-.17v0s0-.06,0-.09a.88.88,0,0,1,0-.16.35.35,0,0,1,0-.14,1,1,0,0,1,0-.14l.06-.13a.83.83,0,0,1,.07-.13.76.76,0,0,1,.08-.11L46.9,87l.11-.09a.52.52,0,0,1,.11-.1l.13-.08.08,0,0,0,.16-.06a.53.53,0,0,1,.12,0,.9.9,0,0,1,.16,0H80.19a.9.9,0,0,1,.16,0,.53.53,0,0,1,.12,0l.16.06,0,0,.08,0,.13.08a.52.52,0,0,1,.11.1l.11.09.09.12a.76.76,0,0,1,.08.11.83.83,0,0,1,.07.13l.06.13a1,1,0,0,1,0,.14.35.35,0,0,1,0,.14.88.88,0,0,1,0,.16s0,.06,0,.09Zm7.75-39.21L85.12,55a1.47,1.47,0,0,1,.38,1V73.66A1.5,1.5,0,0,1,84.57,75a1.42,1.42,0,0,1-.57.12,1.53,1.53,0,0,1-1.06-.44l-5.66-5.66a1.5,1.5,0,0,1-.29-1.7l.21-.46-4,5.93A1.49,1.49,0,0,1,72,73.5a1.47,1.47,0,0,1-.83-.25,1.5,1.5,0,0,1-.42-2.08l16-24a1.5,1.5,0,1,1,2.5,1.66Z"/><path class="cls-1" d="M100.54,69.86c.46,3.94.21,7.85-2.4,11.45l-3.5,7,6.47-2.51c14.35-5.56,13-21,11.07-29.55A57.2,57.2,0,0,1,100.54,69.86Z"/><path class="cls-2" d="M115.15,48.72a2.51,2.51,0,0,0-2.27-1.6h-.06a2.5,2.5,0,0,0-2.28,1.49A48.84,48.84,0,0,1,99.52,64a41.42,41.42,0,0,1-1-8c0-27.41-12.25-42.5-34.5-42.5S29.5,28.59,29.5,56a40,40,0,0,1-1,7.7A48.59,48.59,0,0,1,18.42,48.18a2.51,2.51,0,0,0-2.28-1.59,2.57,2.57,0,0,0-2.33,1.51A53.29,53.29,0,0,0,10,64.83C9.33,77.13,14.3,85.94,24.34,90.3l12.8,5.57,8.62,17.25A2.52,2.52,0,0,0,48,114.5H80a2.52,2.52,0,0,0,2.24-1.38L91.32,95l11.59-4.5c10.21-3.95,15.53-12.55,15.4-24.86A53.24,53.24,0,0,0,115.15,48.72Zm-88.82,37c-14.11-6.14-12.17-21.57-9.86-30a57.52,57.52,0,0,0,11,14c-.48,4-.25,7.92,2.39,11.56l3.8,7.6Zm67.43-6.84L78.46,109.5H49.54L34.24,78.88A3,3,0,0,0,34,78.5c-2.61-3.47-1.78-7.65-.73-12.93A48.9,48.9,0,0,0,34.5,56c0-24.88,9.92-37.5,29.5-37.5S93.5,31.12,93.5,56a48.9,48.9,0,0,0,1.23,9.57c1,5.28,1.88,9.46-.73,12.93A3,3,0,0,0,93.76,78.88Zm7.35,6.92-6.47,2.51,3.5-7c2.61-3.6,2.86-7.51,2.4-11.45a57.2,57.2,0,0,0,11.64-13.61C114.15,64.75,115.46,80.24,101.11,85.8Z"/><path class="cls-2" d="M60,81.5h8a1.5,1.5,0,0,0,0-3H60a1.5,1.5,0,0,0,0,3Z"/><path class="cls-2" d="M81.47,87.75a.35.35,0,0,0,0-.14,1,1,0,0,0,0-.14l-.06-.13a.83.83,0,0,0-.07-.13.76.76,0,0,0-.08-.11L81.1,87,81,86.89a.52.52,0,0,0-.11-.1l-.13-.08-.08,0,0,0-.16-.06a.53.53,0,0,0-.12,0,.9.9,0,0,0-.16,0H47.81a.9.9,0,0,0-.16,0,.53.53,0,0,0-.12,0l-.16.06,0,0-.08,0-.13.08a.52.52,0,0,0-.11.1L46.9,87l-.09.12a.76.76,0,0,0-.08.11.83.83,0,0,0-.07.13l-.06.13a1,1,0,0,0,0,.14.35.35,0,0,0,0,.14.88.88,0,0,0,0,.16s0,.06,0,.09v0c0,.06,0,.11,0,.17s0,.09,0,.13a.78.78,0,0,0,.05.14.88.88,0,0,0,0,.15s0,0,0,0l8,16A1.5,1.5,0,0,0,57.5,104V89.5h13V104a1.5,1.5,0,0,0,1.16,1.46,1.32,1.32,0,0,0,.34,0,1.49,1.49,0,0,0,1.34-.83l8-16s0,0,0,0a.88.88,0,0,0,0-.15.78.78,0,0,0,0-.14s0-.09,0-.13,0-.11,0-.17v0s0-.06,0-.09A.88.88,0,0,0,81.47,87.75Zm-27,9.9L50.43,89.5H54.5Zm19,0V89.5h4.07Z"/><path class="cls-2" d="M51,67.36l-.21-.46,4,5.93A1.49,1.49,0,0,0,56,73.5a1.47,1.47,0,0,0,.83-.25,1.5,1.5,0,0,0,.42-2.08l-16-24a1.5,1.5,0,0,0-2.5,1.66L42.88,55a1.47,1.47,0,0,0-.38,1V73.66A1.5,1.5,0,0,0,43.43,75a1.42,1.42,0,0,0,.57.12,1.53,1.53,0,0,0,1.06-.44l5.66-5.66A1.5,1.5,0,0,0,51,67.36Z"/><path class="cls-2" d="M88.83,46.75a1.5,1.5,0,0,0-2.08.42l-16,24a1.5,1.5,0,0,0,.42,2.08,1.47,1.47,0,0,0,.83.25,1.49,1.49,0,0,0,1.25-.67l4-5.93-.21.46a1.5,1.5,0,0,0,.29,1.7l5.66,5.66a1.53,1.53,0,0,0,1.06.44,1.42,1.42,0,0,0,.57-.12,1.5,1.5,0,0,0,.93-1.38V56a1.47,1.47,0,0,0-.38-1l4.13-6.19A1.5,1.5,0,0,0,88.83,46.75Z"/></g></svg>