<svg xmlns="http://www.w3.org/2000/svg" viewBox="0 0 128 128"><defs><style>.cls-1{fill:none;}.cls-2{fill:#0b0b0b;}</style></defs><g id="OUTLINES_copy_2" data-name="OUTLINES copy 2"><path class="cls-1" d="M101.5,40V14L81.77,33.77A2.51,2.51,0,0,1,80,34.5H48a2.51,2.51,0,0,1-1.77-.73L26.5,14V40a2.56,2.56,0,0,1-.26,1.12L18.5,56.59V86.46l14.62,7.3a2.51,2.51,0,0,1,.65.47L49,109.5H79L94.23,94.23a2.51,2.51,0,0,1,.65-.47l14.62-7.3V56.59l-7.74-15.47A2.56,2.56,0,0,1,101.5,40Zm-71-8a1.51,1.51,0,0,1,.93-1.39,1.5,1.5,0,0,1,1.63.33l8,8a1.49,1.49,0,0,1,0,2.12,1.5,1.5,0,0,1-2.12,0L33.5,35.62V40a1.5,1.5,0,0,1-3,0ZM32,73.5a1.5,1.5,0,0,1,0-3h9.65L31.33,65.34a1.5,1.5,0,0,1,1.34-2.68l16,8A1.5,1.5,0,0,1,48,73.5Zm56,16H80.62l-7.56,7.56a1.5,1.5,0,0,1-2.12,0L64,90.12l-6.94,6.94a1.49,1.49,0,0,1-2.12,0L47.38,89.5H40a1.5,1.5,0,0,1,0-3H60.38l-5.44-5.44a1.5,1.5,0,0,1-.33-1.63A1.51,1.51,0,0,1,56,78.5H72a1.51,1.51,0,0,1,1.39.93,1.5,1.5,0,0,1-.33,1.63L67.62,86.5H88a1.5,1.5,0,0,1,0,3Zm8-16H80a1.5,1.5,0,0,1-.67-2.84l16-8a1.5,1.5,0,0,1,1.34,2.68L86.35,70.5H96a1.5,1.5,0,0,1,0,3ZM97.5,40a1.5,1.5,0,0,1-3,0V35.62l-5.44,5.44a1.5,1.5,0,0,1-2.12,0,1.49,1.49,0,0,1,0-2.12l8-8a1.5,1.5,0,0,1,1.63-.33A1.51,1.51,0,0,1,97.5,32Z"/><polygon class="cls-1" points="72 93.88 76.38 89.5 67.62 89.5 72 93.88"/><polygon class="cls-1" points="59.62 81.5 64 85.88 68.38 81.5 59.62 81.5"/><polygon class="cls-1" points="56 93.88 60.38 89.5 51.62 89.5 56 93.88"/><path class="cls-2" d="M106.5,39.41V8a2.5,2.5,0,0,0-4.27-1.77L79,29.5H49L25.77,6.23A2.5,2.5,0,0,0,21.5,8V39.41L13.76,54.88A2.56,2.56,0,0,0,13.5,56V88a2.52,2.52,0,0,0,1.38,2.24l15.64,7.81,15.71,15.72a2.51,2.51,0,0,0,1.77.73H80a2.51,2.51,0,0,0,1.77-.73L97.48,98.05l15.64-7.81A2.52,2.52,0,0,0,114.5,88V56a2.56,2.56,0,0,0-.26-1.12Zm3,47.05-14.62,7.3a2.51,2.51,0,0,0-.65.47L79,109.5H49L33.77,94.23a2.51,2.51,0,0,0-.65-.47L18.5,86.46V56.59l7.74-15.47A2.56,2.56,0,0,0,26.5,40V14L46.23,33.77A2.51,2.51,0,0,0,48,34.5H80a2.51,2.51,0,0,0,1.77-.73L101.5,14V40a2.56,2.56,0,0,0,.26,1.12l7.74,15.47Z"/><path class="cls-2" d="M49.46,72.34a1.5,1.5,0,0,0-.79-1.68l-16-8a1.5,1.5,0,0,0-1.34,2.68L41.65,70.5H32a1.5,1.5,0,0,0,0,3H48A1.5,1.5,0,0,0,49.46,72.34Z"/><path class="cls-2" d="M96,70.5H86.35l10.32-5.16a1.5,1.5,0,0,0-1.34-2.68l-16,8A1.5,1.5,0,0,0,80,73.5H96a1.5,1.5,0,0,0,0-3Z"/><path class="cls-2" d="M32,41.5A1.5,1.5,0,0,0,33.5,40V35.62l5.44,5.44a1.5,1.5,0,0,0,2.12,0,1.49,1.49,0,0,0,0-2.12l-8-8a1.5,1.5,0,0,0-1.63-.33A1.51,1.51,0,0,0,30.5,32v8A1.5,1.5,0,0,0,32,41.5Z"/><path class="cls-2" d="M96.57,30.61a1.5,1.5,0,0,0-1.63.33l-8,8a1.49,1.49,0,0,0,0,2.12,1.5,1.5,0,0,0,2.12,0l5.44-5.44V40a1.5,1.5,0,0,0,3,0V32A1.51,1.51,0,0,0,96.57,30.61Z"/><path class="cls-2" d="M88,86.5H67.62l5.44-5.44a1.5,1.5,0,0,0,.33-1.63A1.51,1.51,0,0,0,72,78.5H56a1.51,1.51,0,0,0-1.39.93,1.5,1.5,0,0,0,.33,1.63l5.44,5.44H40a1.5,1.5,0,0,0,0,3h7.38l7.56,7.56a1.49,1.49,0,0,0,2.12,0L64,90.12l6.94,6.94a1.5,1.5,0,0,0,2.12,0l7.56-7.56H88a1.5,1.5,0,0,0,0-3ZM56,93.88,51.62,89.5h8.76ZM59.62,81.5h8.76L64,85.88ZM72,93.88,67.62,89.5h8.76Z"/></g></svg>