<svg xmlns="http://www.w3.org/2000/svg" viewBox="0 0 128 128"><defs><style>.cls-1{fill:none;}.cls-2{fill:#0b0b0b;}</style></defs><g id="OUTLINES_copy_2" data-name="OUTLINES copy 2"><path class="cls-1" d="M64,34.5A13.5,13.5,0,1,0,77.5,48,13.52,13.52,0,0,0,64,34.5ZM64,56a8,8,0,1,1,8-8A8,8,0,0,1,64,56Z"/><path class="cls-1" d="M21.5,64V42.74A13.52,13.52,0,0,0,10.5,56V72A13.52,13.52,0,0,0,24,85.5h5.5V79.21A18.54,18.54,0,0,1,21.5,64Z"/><path class="cls-1" d="M101.5,24A13.52,13.52,0,0,0,88,10.5H40A13.52,13.52,0,0,0,26.5,24V64A13.55,13.55,0,0,0,33,75.52l7.65,2.07a2.5,2.5,0,1,1-1.3,4.82l-4.85-1.3V104A13.52,13.52,0,0,0,48,117.5H61.5V112a2.5,2.5,0,0,1,5,0v5.5H80A13.52,13.52,0,0,0,93.5,104V81.11l-4.85,1.3a2.5,2.5,0,1,1-1.3-4.82L95,75.52A13.55,13.55,0,0,0,101.5,64ZM72,98.5H56a2.5,2.5,0,0,1,0-5H72a2.5,2.5,0,0,1,0,5Zm8.67-17.16-16,8a1.48,1.48,0,0,1-1.34,0l-16-8a1.5,1.5,0,0,1,1.34-2.68L64,86.32l15.33-7.66a1.5,1.5,0,0,1,1.34,2.68ZM64,66.5A18.5,18.5,0,1,1,82.5,48,18.52,18.52,0,0,1,64,66.5ZM89.77,25.77a3.68,3.68,0,0,1-.38.31,2.43,2.43,0,0,1-.9.37,2.43,2.43,0,0,1-1,0,2.43,2.43,0,0,1-.9-.37,3.68,3.68,0,0,1-.38-.31,2.51,2.51,0,0,1,0-3.54,2.59,2.59,0,0,1,3.54,0,2.51,2.51,0,0,1,0,3.54Zm7.29,7.29a1.51,1.51,0,0,1-.49.33,1.53,1.53,0,0,1-1.14,0,1.5,1.5,0,0,1,.86-2.86l.28.08.26.14a2.11,2.11,0,0,1,.23.19A1.52,1.52,0,0,1,97.5,32,1.5,1.5,0,0,1,97.06,33.06Z"/><path class="cls-1" d="M106.5,42.74V64a18.54,18.54,0,0,1-8,15.21V85.5H104A13.52,13.52,0,0,0,117.5,72V56A13.52,13.52,0,0,0,106.5,42.74Z"/><path class="cls-2" d="M106.5,37.69V24A18.52,18.52,0,0,0,88,5.5H40A18.52,18.52,0,0,0,21.5,24V37.69A18.52,18.52,0,0,0,5.5,56V72A18.52,18.52,0,0,0,24,90.5h5.5V104A18.52,18.52,0,0,0,48,122.5H80A18.52,18.52,0,0,0,98.5,104V90.5H104A18.52,18.52,0,0,0,122.5,72V56A18.52,18.52,0,0,0,106.5,37.69ZM29.5,85.5H24A13.52,13.52,0,0,1,10.5,72V56a13.52,13.52,0,0,1,11-13.26V64a18.54,18.54,0,0,0,8,15.21Zm65.5-10-7.65,2.07a2.5,2.5,0,1,0,1.3,4.82l4.85-1.3V104A13.52,13.52,0,0,1,80,117.5H66.5V112a2.5,2.5,0,0,0-5,0v5.5H48A13.52,13.52,0,0,1,34.5,104V81.11l4.85,1.3a2.5,2.5,0,1,0,1.3-4.82L33,75.52A13.55,13.55,0,0,1,26.5,64V24A13.52,13.52,0,0,1,40,10.5H88A13.52,13.52,0,0,1,101.5,24V64A13.55,13.55,0,0,1,95,75.52ZM117.5,72A13.52,13.52,0,0,1,104,85.5H98.5V79.21a18.54,18.54,0,0,0,8-15.21V42.74A13.52,13.52,0,0,1,117.5,56Z"/><path class="cls-2" d="M79.33,78.66,64,86.32,48.67,78.66a1.5,1.5,0,0,0-1.34,2.68l16,8a1.48,1.48,0,0,0,1.34,0l16-8a1.5,1.5,0,0,0-1.34-2.68Z"/><path class="cls-2" d="M72,93.5H56a2.5,2.5,0,0,0,0,5H72a2.5,2.5,0,0,0,0-5Z"/><path class="cls-2" d="M64,29.5A18.5,18.5,0,1,0,82.5,48,18.52,18.52,0,0,0,64,29.5Zm0,32A13.5,13.5,0,1,1,77.5,48,13.52,13.52,0,0,1,64,61.5Z"/><circle class="cls-2" cx="64" cy="48" r="8"/><path class="cls-2" d="M86.23,22.23a2.51,2.51,0,0,0,0,3.54,3.68,3.68,0,0,0,.38.31,2.43,2.43,0,0,0,.9.37,2.43,2.43,0,0,0,1,0,2.43,2.43,0,0,0,.9-.37,3.68,3.68,0,0,0,.38-.31,2.51,2.51,0,0,0,0-3.54A2.59,2.59,0,0,0,86.23,22.23Z"/><path class="cls-2" d="M96.83,30.75l-.26-.14-.28-.08a1.5,1.5,0,0,0-.86,2.86,1.53,1.53,0,0,0,1.14,0,1.5,1.5,0,0,0,.49-2.45A2.11,2.11,0,0,0,96.83,30.75Z"/></g></svg>