<svg xmlns="http://www.w3.org/2000/svg" viewBox="0 0 128 128"><defs><style>.cls-1{fill:none;}.cls-2{fill:#0b0b0b;}</style></defs><g id="OUTLINES_copy_2" data-name="OUTLINES copy 2"><path class="cls-1" d="M64,10.5C40.45,10.5,26.83,26.69,26.51,55l7.26,7.26A2.51,2.51,0,0,1,34.5,64V79.24l8.36,12.54,12-6A2.56,2.56,0,0,1,56,85.5H72a2.56,2.56,0,0,1,1.12.26l12,6L93.5,79.24V64a2.51,2.51,0,0,1,.73-1.77L101.49,55C101.17,26.69,87.55,10.5,64,10.5ZM40.67,65.34a1.44,1.44,0,0,1-.67.16,1.5,1.5,0,0,1-.67-2.84L44.65,60l-5.32-2.66a1.5,1.5,0,0,1,1.34-2.68L48,58.32l7.33-3.66a1.5,1.5,0,0,1,1.34,2.68L51.35,60l5.32,2.66A1.5,1.5,0,0,1,56,65.5a1.44,1.44,0,0,1-.67-.16L48,61.68ZM64,81.5A9.51,9.51,0,0,1,54.5,72a1.5,1.5,0,0,1,3,0,6.5,6.5,0,0,0,13,0,1.5,1.5,0,0,1,3,0A9.51,9.51,0,0,1,64,81.5Zm18.45-17a2.43,2.43,0,0,1-.37.9,2.43,2.43,0,0,1-.69.69,2.43,2.43,0,0,1-.9.37,2.72,2.72,0,0,1-.49,0,2.55,2.55,0,0,1-1.77-.73,3.68,3.68,0,0,1-.31-.38,2.43,2.43,0,0,1-.37-.9,2.43,2.43,0,0,1,0-1,2.43,2.43,0,0,1,.37-.9,3.68,3.68,0,0,1,.31-.38,2.85,2.85,0,0,1,.38-.31,2.43,2.43,0,0,1,.9-.37,2.51,2.51,0,0,1,2.26.68,3.68,3.68,0,0,1,.31.38,2.43,2.43,0,0,1,.37.9,2.43,2.43,0,0,1,0,1Zm5.55-7H72a1.5,1.5,0,0,1,0-3H88a1.5,1.5,0,0,1,0,3Z"/><path class="cls-1" d="M104,60.85a5.53,5.53,0,0,0-1.56.25L98.5,65V79.61l9.38-9.38A5.49,5.49,0,0,0,104,60.85Z"/><path class="cls-1" d="M24,60.85a5.49,5.49,0,0,0-3.89,9.38l9.38,9.38V65L25.56,61.1A5.53,5.53,0,0,0,24,60.85Z"/><path class="cls-1" d="M72,93.5H56a2.5,2.5,0,0,0,0,5H72a2.5,2.5,0,0,0,0-5Z"/><path class="cls-2" d="M111.42,58.92a10.39,10.39,0,0,0-4.94-2.76,1,1,0,0,0,0-.16C106.5,24.38,90.61,5.5,64,5.5S21.5,24.38,21.5,56a1,1,0,0,0,0,.16,10.39,10.39,0,0,0-4.94,2.76,10.5,10.5,0,0,0,0,14.85L27.73,84.92l-6.1,18.29a2.48,2.48,0,0,0,.34,2.25,2.52,2.52,0,0,0,2,1h7l7.27,7.27a2.52,2.52,0,0,0,3.54,0L48.49,107l14.39,7.2a2.52,2.52,0,0,0,2.24,0L79.51,107l6.72,6.73a2.51,2.51,0,0,0,3.54,0L97,106.5h7a2.52,2.52,0,0,0,2-1,2.48,2.48,0,0,0,.34-2.25l-6.1-18.29,11.15-11.15A10.5,10.5,0,0,0,111.42,58.92ZM29.5,79.59v0l-9.38-9.38a5.47,5.47,0,0,1,5.45-9.13L29.5,65ZM72,98.5H56a2.5,2.5,0,0,1,0-5H72a2.5,2.5,0,0,1,0,5ZM94.23,62.23A2.51,2.51,0,0,0,93.5,64V79.24L85.14,91.78l-12-6A2.56,2.56,0,0,0,72,85.5H56a2.56,2.56,0,0,0-1.12.26l-12,6L34.5,79.24V64a2.51,2.51,0,0,0-.73-1.77L26.51,55C26.83,26.69,40.45,10.5,64,10.5S101.17,26.69,101.49,55Zm13.66,8-9.38,9.38V65l3.94-3.94a5.48,5.48,0,0,1,5.45,9.13Z"/><path class="cls-2" d="M82.31,63a2.55,2.55,0,0,0-.23-.43,3.68,3.68,0,0,0-.31-.38,2.51,2.51,0,0,0-2.26-.68,2.43,2.43,0,0,0-.9.37,2.85,2.85,0,0,0-.38.31,3.68,3.68,0,0,0-.31.38,2.43,2.43,0,0,0-.37.9,2.43,2.43,0,0,0,0,1,2.43,2.43,0,0,0,.37.9,3.68,3.68,0,0,0,.31.38A2.55,2.55,0,0,0,80,66.5a2.72,2.72,0,0,0,.49,0,2.43,2.43,0,0,0,.9-.37,2.43,2.43,0,0,0,.69-.69,2.43,2.43,0,0,0,.37-.9,2.43,2.43,0,0,0,0-1A2.54,2.54,0,0,0,82.31,63Z"/><path class="cls-2" d="M88,54.5H72a1.5,1.5,0,0,0,0,3H88a1.5,1.5,0,0,0,0-3Z"/><path class="cls-2" d="M72,70.5A1.5,1.5,0,0,0,70.5,72a6.5,6.5,0,0,1-13,0,1.5,1.5,0,0,0-3,0,9.5,9.5,0,0,0,19,0A1.5,1.5,0,0,0,72,70.5Z"/><path class="cls-2" d="M56,65.5a1.5,1.5,0,0,0,.67-2.84L51.35,60l5.32-2.66a1.5,1.5,0,0,0-1.34-2.68L48,58.32l-7.33-3.66a1.5,1.5,0,0,0-1.34,2.68L44.65,60l-5.32,2.66A1.5,1.5,0,0,0,40,65.5a1.44,1.44,0,0,0,.67-.16L48,61.68l7.33,3.66A1.44,1.44,0,0,0,56,65.5Z"/></g></svg>