<svg xmlns="http://www.w3.org/2000/svg" viewBox="0 0 128 128"><defs><style>.cls-1{fill:none;}.cls-2{fill:#0b0b0b;}</style></defs><g id="OUTLINES_copy_2" data-name="OUTLINES copy 2"><path class="cls-1" d="M16,58.5A5.51,5.51,0,0,0,10.5,64V80a5.5,5.5,0,0,0,11,0V64A5.51,5.51,0,0,0,16,58.5Z"/><path class="cls-1" d="M81.49,20.46A10.47,10.47,0,0,1,78.78,24,10.49,10.49,0,0,1,72,42.5H56A10.49,10.49,0,0,1,49.22,24a10.47,10.47,0,0,1-2.71-3.54c-5.36,1.45-9.55,3.71-12.61,6.8C26.21,35,26.34,47.44,26.47,59.44c0,1.53,0,3.06,0,4.56V79l7.27,7.27a2.85,2.85,0,0,1,.31.38l.05.09a3.65,3.65,0,0,1,.18.34s0,.09,0,.14a1.8,1.8,0,0,1,.1.33,2.63,2.63,0,0,1,0,.49v5.5H45.71l8.67-7.4A2.48,2.48,0,0,1,56,85.5H72a2.48,2.48,0,0,1,1.62.6l8.67,7.4H93.5V88a2.63,2.63,0,0,1,0-.49,1.7,1.7,0,0,1,.1-.32.83.83,0,0,1,0-.15,3.65,3.65,0,0,1,.18-.34l0-.09a2.85,2.85,0,0,1,.31-.38L101.5,79V64c0-1.5,0-3,0-4.56.13-12,.26-24.42-7.43-32.18C91,24.17,86.85,21.91,81.49,20.46ZM62.5,56a1.5,1.5,0,0,1,3,0v8a1.5,1.5,0,0,1-3,0ZM48,65.5H40a1.5,1.5,0,0,1,0-3h8a1.5,1.5,0,0,1,0,3Zm-8.67-8.16a1.5,1.5,0,0,1,1.34-2.68l16,8A1.5,1.5,0,0,1,56,65.5a1.44,1.44,0,0,1-.67-.16ZM72,81.5A1.5,1.5,0,0,1,70.5,80a6.5,6.5,0,0,0-13,0,1.5,1.5,0,0,1-3,0,9.5,9.5,0,0,1,19,0A1.5,1.5,0,0,1,72,81.5Zm.67-16.16a1.44,1.44,0,0,1-.67.16,1.5,1.5,0,0,1-.67-2.84l16-8a1.5,1.5,0,1,1,1.34,2.68ZM88,65.5H80a1.5,1.5,0,0,1,0-3h8a1.5,1.5,0,0,1,0,3Z"/><path class="cls-1" d="M64,102.5A6.51,6.51,0,0,0,70.5,96h-13A6.51,6.51,0,0,0,64,102.5Z"/><path class="cls-1" d="M112,58.5a5.51,5.51,0,0,0-5.5,5.5V80a5.5,5.5,0,0,0,11,0V64A5.51,5.51,0,0,0,112,58.5Z"/><path class="cls-2" d="M112,53.5A10.5,10.5,0,0,0,106.56,55c0-11.58-.79-23.09-8.9-31.28-3.76-3.8-8.79-6.51-15.18-8.19A10.51,10.51,0,0,0,72,5.5H56A10.51,10.51,0,0,0,45.52,15.56C39.13,17.24,34.1,20,30.34,23.75c-8.11,8.19-8.92,19.7-8.9,31.28A10.49,10.49,0,0,0,5.5,64V80a10.48,10.48,0,0,0,16,8.93V112A10.51,10.51,0,0,0,32,122.5a2.5,2.5,0,0,0,2.5-2.5v-5.5h3.31a10.52,10.52,0,0,0,10.19,8,2.5,2.5,0,0,0,2.5-2.5v-5.5h3.31a10.49,10.49,0,0,0,20.38,0H77.5V120a2.5,2.5,0,0,0,2.5,2.5,10.52,10.52,0,0,0,10.19-8H93.5V120a2.5,2.5,0,0,0,2.5,2.5A10.51,10.51,0,0,0,106.5,112V88.93a10.48,10.48,0,0,0,16-8.93V64A10.51,10.51,0,0,0,112,53.5ZM21.5,80a5.5,5.5,0,0,1-11,0V64a5.5,5.5,0,0,1,11,0ZM64,102.5A6.51,6.51,0,0,1,57.5,96h13A6.51,6.51,0,0,1,64,102.5Zm37.53-43.06c0,1.53,0,3.06,0,4.56V79l-7.27,7.27a2.85,2.85,0,0,0-.31.38l0,.09a3.65,3.65,0,0,0-.18.34.83.83,0,0,0,0,.15,1.7,1.7,0,0,0-.1.32,2.63,2.63,0,0,0,0,.49v5.5H82.29l-8.67-7.4A2.48,2.48,0,0,0,72,85.5H56a2.48,2.48,0,0,0-1.62.6l-8.67,7.4H34.5V88a2.63,2.63,0,0,0,0-.49,1.8,1.8,0,0,0-.1-.33c0-.05,0-.1,0-.14a3.65,3.65,0,0,0-.18-.34l-.05-.09a2.85,2.85,0,0,0-.31-.38L26.5,79V64c0-1.5,0-3,0-4.56-.13-12-.26-24.42,7.43-32.18,3.06-3.09,7.25-5.35,12.61-6.8A10.47,10.47,0,0,0,49.22,24,10.49,10.49,0,0,0,56,42.5H72A10.49,10.49,0,0,0,78.78,24a10.47,10.47,0,0,0,2.71-3.54c5.36,1.45,9.55,3.71,12.61,6.8C101.79,35,101.66,47.44,101.53,59.44ZM117.5,80a5.5,5.5,0,0,1-11,0V64a5.5,5.5,0,0,1,11,0Z"/><path class="cls-2" d="M48,62.5H40a1.5,1.5,0,0,0,0,3h8a1.5,1.5,0,0,0,0-3Z"/><path class="cls-2" d="M88,62.5H80a1.5,1.5,0,0,0,0,3h8a1.5,1.5,0,0,0,0-3Z"/><path class="cls-2" d="M56,65.5a1.5,1.5,0,0,0,.67-2.84l-16-8a1.5,1.5,0,0,0-1.34,2.68l16,8A1.44,1.44,0,0,0,56,65.5Z"/><path class="cls-2" d="M89.34,55.33a1.5,1.5,0,0,0-2-.67l-16,8A1.5,1.5,0,0,0,72,65.5a1.44,1.44,0,0,0,.67-.16l16-8A1.5,1.5,0,0,0,89.34,55.33Z"/><path class="cls-2" d="M64,70.5A9.51,9.51,0,0,0,54.5,80a1.5,1.5,0,0,0,3,0,6.5,6.5,0,0,1,13,0,1.5,1.5,0,0,0,3,0A9.51,9.51,0,0,0,64,70.5Z"/><path class="cls-2" d="M64,65.5A1.5,1.5,0,0,0,65.5,64V56a1.5,1.5,0,0,0-3,0v8A1.5,1.5,0,0,0,64,65.5Z"/></g></svg>