<svg xmlns="http://www.w3.org/2000/svg" viewBox="0 0 128 128"><defs><style>.cls-1{fill:none;}.cls-2{fill:#0b0b0b;}</style></defs><g id="OUTLINES_copy_2" data-name="OUTLINES copy 2"><polygon class="cls-1" points="59.62 81.5 64 85.88 68.38 81.5 59.62 81.5"/><path class="cls-1" d="M101.5,56V14L81.77,33.77A2.51,2.51,0,0,1,80,34.5H48a2.51,2.51,0,0,1-1.77-.73L26.5,14V56a2.51,2.51,0,0,1-.73,1.77L11.54,72l6.23,6.23a2.52,2.52,0,0,1,0,3.54l-5.14,5.14,20.16,6.72a2.55,2.55,0,0,1,1,.6L49,109.5H79L94.23,94.23a2.55,2.55,0,0,1,1-.6l20.16-6.72-5.14-5.14a2.52,2.52,0,0,1,0-3.54L116.46,72,102.23,57.77A2.51,2.51,0,0,1,101.5,56ZM86.94,38.94l8-8a1.5,1.5,0,0,1,1.63-.33A1.51,1.51,0,0,1,97.5,32v8a1.5,1.5,0,0,1-3,0V35.62l-5.44,5.44a1.5,1.5,0,0,1-2.12,0A1.49,1.49,0,0,1,86.94,38.94ZM48,38.5H80a1.5,1.5,0,0,1,0,3H48a1.5,1.5,0,0,1,0-3ZM73.5,48A1.5,1.5,0,0,1,72,49.5H56a1.5,1.5,0,0,1,0-3H72A1.5,1.5,0,0,1,73.5,48Zm-43-16a1.51,1.51,0,0,1,.93-1.39,1.5,1.5,0,0,1,1.63.33l8,8a1.49,1.49,0,0,1,0,2.12,1.5,1.5,0,0,1-2.12,0L33.5,35.62V40a1.5,1.5,0,0,1-3,0Zm.38,34.24a2.5,2.5,0,0,1,2.24-4.48l16,8A2.5,2.5,0,0,1,48,74.5a2.48,2.48,0,0,1-1.12-.26ZM89.39,88.55v0a1.51,1.51,0,0,1-.33.49l-8,8a1.5,1.5,0,0,1-2.12,0l-2.39-2.39A26.29,26.29,0,0,1,64,97.5a26.29,26.29,0,0,1-12.55-2.83l-2.39,2.39a1.5,1.5,0,0,1-2.12,0l-8-8a1.51,1.51,0,0,1-.33-.49v0a1.43,1.43,0,0,1,0-1.1v0a1.57,1.57,0,0,1,.82-.82h0A1.46,1.46,0,0,1,40,86.5H60.38l-5.44-5.44a1.5,1.5,0,0,1-.33-1.63A1.51,1.51,0,0,1,56,78.5H72a1.51,1.51,0,0,1,1.39.93,1.5,1.5,0,0,1-.33,1.63L67.62,86.5H88a1.46,1.46,0,0,1,.55.11h0a1.57,1.57,0,0,1,.82.82v0a1.43,1.43,0,0,1,0,1.1Zm16-7.88a1.49,1.49,0,0,1-1.34.83,1.44,1.44,0,0,1-.67-.16l-16-8A1.49,1.49,0,0,1,86.5,72v-.45l-5.38,2.69A2.48,2.48,0,0,1,80,74.5a2.5,2.5,0,0,1-1.12-4.74L86.5,66V56a1.5,1.5,0,0,1,3,0v8.45l5.38-2.69a2.5,2.5,0,0,1,2.24,4.48L89.5,70.05v1l15.17,7.59A1.5,1.5,0,0,1,105.34,80.67Z"/><polygon class="cls-1" points="48 93.88 52.38 89.5 43.62 89.5 48 93.88"/><polygon class="cls-1" points="80 93.88 84.38 89.5 75.62 89.5 80 93.88"/><path class="cls-2" d="M121.77,70.23,106.5,55V8a2.5,2.5,0,0,0-4.27-1.77L79,29.5H49L25.77,6.23A2.5,2.5,0,0,0,21.5,8V55L6.23,70.23a2.52,2.52,0,0,0,0,3.54L12.46,80,6.23,86.23a2.51,2.51,0,0,0,1,4.14l23.44,7.82,15.58,15.58a2.51,2.51,0,0,0,1.77.73H80a2.51,2.51,0,0,0,1.77-.73L97.35,98.19l23.44-7.82a2.51,2.51,0,0,0,1-4.14L115.54,80l6.23-6.23A2.52,2.52,0,0,0,121.77,70.23Zm-11.54,8a2.52,2.52,0,0,0,0,3.54l5.14,5.14L95.21,93.63a2.55,2.55,0,0,0-1,.6L79,109.5H49L33.77,94.23a2.55,2.55,0,0,0-1-.6L12.63,86.91l5.14-5.14a2.52,2.52,0,0,0,0-3.54L11.54,72,25.77,57.77A2.51,2.51,0,0,0,26.5,56V14L46.23,33.77A2.51,2.51,0,0,0,48,34.5H80a2.51,2.51,0,0,0,1.77-.73L101.5,14V56a2.51,2.51,0,0,0,.73,1.77L116.46,72Z"/><path class="cls-2" d="M32,41.5A1.5,1.5,0,0,0,33.5,40V35.62l5.44,5.44a1.5,1.5,0,0,0,2.12,0,1.49,1.49,0,0,0,0-2.12l-8-8a1.5,1.5,0,0,0-1.63-.33A1.51,1.51,0,0,0,30.5,32v8A1.5,1.5,0,0,0,32,41.5Z"/><path class="cls-2" d="M88,41.5a1.51,1.51,0,0,0,1.06-.44l5.44-5.44V40a1.5,1.5,0,0,0,3,0V32a1.51,1.51,0,0,0-.93-1.39,1.5,1.5,0,0,0-1.63.33l-8,8a1.49,1.49,0,0,0,0,2.12A1.51,1.51,0,0,0,88,41.5Z"/><path class="cls-2" d="M89.39,87.43a1.57,1.57,0,0,0-.82-.82h0A1.46,1.46,0,0,0,88,86.5H67.62l5.44-5.44a1.5,1.5,0,0,0,.33-1.63A1.51,1.51,0,0,0,72,78.5H56a1.51,1.51,0,0,0-1.39.93,1.5,1.5,0,0,0,.33,1.63l5.44,5.44H40a1.46,1.46,0,0,0-.55.11h0a1.57,1.57,0,0,0-.82.82v0a1.43,1.43,0,0,0,0,1.1v0a1.51,1.51,0,0,0,.33.49l8,8a1.5,1.5,0,0,0,2.12,0l2.39-2.39A26.29,26.29,0,0,0,64,97.5a26.29,26.29,0,0,0,12.55-2.83l2.39,2.39a1.5,1.5,0,0,0,2.12,0l8-8a1.51,1.51,0,0,0,.33-.49v0a1.43,1.43,0,0,0,0-1.1ZM48,93.88,43.62,89.5h8.76ZM59.62,81.5h8.76L64,85.88ZM80,93.88,75.62,89.5h8.76Z"/><path class="cls-2" d="M48,74.5a2.5,2.5,0,0,0,1.12-4.74l-16-8a2.5,2.5,0,0,0-2.24,4.48l16,8A2.48,2.48,0,0,0,48,74.5Z"/><path class="cls-2" d="M89.5,70.05l7.62-3.81a2.5,2.5,0,0,0-2.24-4.48L89.5,64.45V56a1.5,1.5,0,0,0-3,0V66l-7.62,3.81A2.5,2.5,0,0,0,80,74.5a2.48,2.48,0,0,0,1.12-.26l5.38-2.69V72a1.49,1.49,0,0,0,.83,1.34l16,8a1.44,1.44,0,0,0,.67.16,1.5,1.5,0,0,0,.67-2.84L89.5,71.07Z"/><path class="cls-2" d="M48,41.5H80a1.5,1.5,0,0,0,0-3H48a1.5,1.5,0,0,0,0,3Z"/><path class="cls-2" d="M56,46.5a1.5,1.5,0,0,0,0,3H72a1.5,1.5,0,0,0,0-3Z"/></g></svg>