<svg xmlns="http://www.w3.org/2000/svg" viewBox="0 0 128 128"><defs><style>.cls-1{fill:none;}.cls-2{fill:#0b0b0b;}</style></defs><g id="OUTLINES_copy_2" data-name="OUTLINES copy 2"><path class="cls-1" d="M31.38,46.5,46.94,30.94a1.49,1.49,0,0,1,2.12,0L56,37.88l6.94-6.94a1.49,1.49,0,0,1,2.12,0L72,37.88l6.94-6.94a1.49,1.49,0,0,1,2.12,0L96.62,46.5H104a1.47,1.47,0,0,1,.84.27,41.13,41.13,0,0,0-81.68,0A1.47,1.47,0,0,1,24,46.5Z"/><path class="cls-1" d="M38.5,86V73.37a9.5,9.5,0,0,1-8-9L22.94,49.23c-.05.8-.08,1.6-.08,2.41V99.25l7.54-5.18Z"/><path class="cls-1" d="M89.5,73.37V86l8.1,8.11,7.54,5.18V51.64c0-.81,0-1.61-.08-2.41L97.49,64.37A9.5,9.5,0,0,1,89.5,73.37Z"/><path class="cls-1" d="M73.06,41.06a1.49,1.49,0,0,1-2.12,0L64,34.12l-6.94,6.94a1.49,1.49,0,0,1-2.12,0L48,34.12,33.5,48.62v6.76l7.56,7.56A1.5,1.5,0,0,1,41.5,64V83l4-4V72a2.51,2.51,0,0,1,.73-1.77l8-8A2.88,2.88,0,0,1,54.5,62v-7.1A9.49,9.49,0,0,1,38.5,48,1.5,1.5,0,0,1,40,46.5H56A1.5,1.5,0,0,1,57.5,48V63.38l6.5,6.5,6.5-6.5V48A1.5,1.5,0,0,1,72,46.5H88A1.5,1.5,0,0,1,89.5,48a9.49,9.49,0,0,1-16,6.91V62a2.88,2.88,0,0,1,.27.22l8,8A2.51,2.51,0,0,1,82.5,72v7l4,4V64a1.5,1.5,0,0,1,.44-1.06l7.56-7.56V48.62L80,34.12Z"/><path class="cls-1" d="M77.5,80V73l-6.21-6.21-6.23,6.23a1.5,1.5,0,0,1-2.12,0l-6.23-6.23L50.5,73v7a2.51,2.51,0,0,1-.73,1.77L34.5,97V106l3.73-3.73a2.51,2.51,0,0,1,4,.65l6.44,12.9,5.55-5.55a2.51,2.51,0,0,1,3.54,0L64,116.46l6.23-6.23a2.52,2.52,0,0,1,3.54,0l5.55,5.55,6.44-12.9a2.51,2.51,0,0,1,4-.65L93.5,106V97L78.23,81.77A2.51,2.51,0,0,1,77.5,80ZM68,81.5H60a1.5,1.5,0,0,1,0-3h8a1.5,1.5,0,0,1,0,3Z"/><path class="cls-1" d="M26.43,49.5l6.91,13.83a1.44,1.44,0,0,1,.16.67,6.51,6.51,0,0,0,5,6.32v-5.7l-7.56-7.56A1.5,1.5,0,0,1,30.5,56V49.5Z"/><path class="cls-1" d="M41.67,49.5a6.51,6.51,0,0,0,12.66,0H41.67Z"/><path class="cls-1" d="M86.33,49.5H73.67a6.51,6.51,0,0,0,12.66,0Z"/><path class="cls-1" d="M89.5,70.32a6.51,6.51,0,0,0,5-6.32,1.44,1.44,0,0,1,.16-.67l6.91-13.83H97.5V56a1.5,1.5,0,0,1-.44,1.06L89.5,64.62Z"/><path class="cls-2" d="M31,114.31a2.51,2.51,0,0,0,2.73-.54l5.55-5.55,6.44,12.9a2.51,2.51,0,0,0,4,.65L56,115.54l6.23,6.23a2.52,2.52,0,0,0,3.54,0L72,115.54l6.23,6.23a2.52,2.52,0,0,0,1.77.73,2.69,2.69,0,0,0,.4,0,2.51,2.51,0,0,0,1.84-1.35l6.44-12.9,5.55,5.55A2.5,2.5,0,0,0,98.5,112V100.75l7.72,5.31a2.53,2.53,0,0,0,1.42.44,2.4,2.4,0,0,0,1.16-.29,2.5,2.5,0,0,0,1.34-2.21V51.64a46.14,46.14,0,0,0-92.28,0V104a2.51,2.51,0,0,0,3.92,2.06l7.72-5.31V112A2.51,2.51,0,0,0,31,114.31ZM93.5,106l-3.73-3.73a2.51,2.51,0,0,0-4,.65l-6.44,12.9-5.55-5.55a2.52,2.52,0,0,0-3.54,0L64,116.46l-6.23-6.23a2.51,2.51,0,0,0-3.54,0l-5.55,5.55-6.44-12.9a2.51,2.51,0,0,0-4-.65L34.5,106V97L49.77,81.77A2.51,2.51,0,0,0,50.5,80V73l6.21-6.21,6.23,6.23a1.5,1.5,0,0,0,2.12,0l6.23-6.23L77.5,73v7a2.51,2.51,0,0,0,.73,1.77L93.5,97ZM30.94,57.06l7.56,7.56v5.7a6.51,6.51,0,0,1-5-6.32,1.44,1.44,0,0,0-.16-.67L26.43,49.5H30.5V56A1.5,1.5,0,0,0,30.94,57.06ZM94.5,55.38l-7.56,7.56A1.5,1.5,0,0,0,86.5,64V83l-4-4V72a2.51,2.51,0,0,0-.73-1.77l-8-8A2.88,2.88,0,0,0,73.5,62v-7.1A9.49,9.49,0,0,0,89.5,48,1.5,1.5,0,0,0,88,46.5H72A1.5,1.5,0,0,0,70.5,48V63.38L64,69.88l-6.5-6.5V48A1.5,1.5,0,0,0,56,46.5H40A1.5,1.5,0,0,0,38.5,48a9.49,9.49,0,0,0,16,6.91V62a2.88,2.88,0,0,0-.27.22l-8,8A2.51,2.51,0,0,0,45.5,72v7l-4,4V64a1.5,1.5,0,0,0-.44-1.06L33.5,55.38V48.62L48,34.12l6.94,6.94a1.49,1.49,0,0,0,2.12,0L64,34.12l6.94,6.94a1.49,1.49,0,0,0,2.12,0L80,34.12l14.5,14.5Zm2.56,1.68A1.5,1.5,0,0,0,97.5,56V49.5h4.07L94.66,63.33a1.44,1.44,0,0,0-.16.67,6.51,6.51,0,0,1-5,6.32v-5.7ZM73.67,49.5H86.33a6.51,6.51,0,0,1-12.66,0Zm-19.34,0a6.51,6.51,0,0,1-12.66,0H54.33Zm50.81,2.14V99.25L97.6,94.07,89.5,86V73.37a9.5,9.5,0,0,0,8-9l7.57-15.14C105.11,50,105.14,50.83,105.14,51.64ZM64,10.5a41.19,41.19,0,0,1,40.84,36.27,1.47,1.47,0,0,0-.84-.27H96.62L81.06,30.94a1.49,1.49,0,0,0-2.12,0L72,37.88l-6.94-6.94a1.49,1.49,0,0,0-2.12,0L56,37.88l-6.94-6.94a1.49,1.49,0,0,0-2.12,0L31.38,46.5H24a1.47,1.47,0,0,0-.84.27A41.19,41.19,0,0,1,64,10.5ZM22.86,99.25V51.64c0-.81,0-1.61.08-2.41l7.57,15.14a9.5,9.5,0,0,0,8,9V86l-8.1,8.11Z"/><path class="cls-2" d="M68,78.5H60a1.5,1.5,0,0,0,0,3h8a1.5,1.5,0,0,0,0-3Z"/></g></svg>