<svg xmlns="http://www.w3.org/2000/svg" viewBox="0 0 128 128"><defs><style>.cls-1{fill:none;}.cls-2{fill:#0b0b0b;}</style></defs><g id="OUTLINES_copy_2" data-name="OUTLINES copy 2"><path class="cls-1" d="M18.5,76A9.51,9.51,0,0,0,28,85.5v-19A9.51,9.51,0,0,0,18.5,76Z"/><path class="cls-1" d="M48,78.5a6.52,6.52,0,0,0,6.33-5H41.67A6.52,6.52,0,0,0,48,78.5Z"/><path class="cls-1" d="M79.34,48H74.45c-8,6.45-21.75,10.17-39.95,10.48V87L57,109.5H71L93.5,87V58.31A18.54,18.54,0,0,1,79.34,48ZM57.5,72.07v.05a9.5,9.5,0,0,1-19-.12A1.5,1.5,0,0,1,40,70.5h9.65L39.33,65.34a1.5,1.5,0,0,1,1.34-2.68l16,8,.08,0,.13.08a.52.52,0,0,1,.11.1l.11.09.09.12a.76.76,0,0,1,.08.11.83.83,0,0,1,.07.13l.06.13a1,1,0,0,1,0,.14.35.35,0,0,1,0,.14.88.88,0,0,1,0,.16s0,.06,0,.09ZM68,97.5H64a1.5,1.5,0,0,1,0-3h4a1.5,1.5,0,0,1,0,3Zm5.28-8.71A1.52,1.52,0,0,1,72,89.5H64a1.5,1.5,0,0,1,0-3h5.57L62.66,72.67a1.5,1.5,0,0,1,2.68-1.34l8,16A1.52,1.52,0,0,1,73.28,88.79ZM89.34,63.33a1.5,1.5,0,0,1-.67,2L78.35,70.5H88A1.5,1.5,0,0,1,89.5,72a9.5,9.5,0,0,1-19,.11V72s0-.06,0-.09a.88.88,0,0,1,0-.16.35.35,0,0,1,0-.14,1,1,0,0,1,0-.14l.06-.13a.83.83,0,0,1,.07-.13.76.76,0,0,1,.08-.11L70.9,71l.11-.09a.52.52,0,0,1,.11-.1l.13-.08.08,0,16-8A1.5,1.5,0,0,1,89.34,63.33Z"/><path class="cls-1" d="M80,78.5a6.52,6.52,0,0,0,6.33-5H73.67A6.52,6.52,0,0,0,80,78.5Z"/><path class="cls-1" d="M100,66.5v19a9.5,9.5,0,0,0,0-19Z"/><path class="cls-2" d="M71.25,70.71l-.13.08a.52.52,0,0,0-.11.1L70.9,71l-.09.12a.76.76,0,0,0-.08.11.83.83,0,0,0-.07.13l-.06.13a1,1,0,0,0,0,.14.35.35,0,0,0,0,.14.88.88,0,0,0,0,.16s0,.06,0,.09v.11a9.5,9.5,0,0,0,19-.11A1.5,1.5,0,0,0,88,70.5H78.35l10.32-5.16a1.5,1.5,0,0,0-1.34-2.68l-16,8ZM86.33,73.5a6.51,6.51,0,0,1-12.66,0Z"/><path class="cls-2" d="M57.47,71.75a.35.35,0,0,0,0-.14,1,1,0,0,0,0-.14l-.06-.13a.83.83,0,0,0-.07-.13.76.76,0,0,0-.08-.11L57.1,71,57,70.89a.52.52,0,0,0-.11-.1l-.13-.08-.08,0-16-8a1.5,1.5,0,0,0-1.34,2.68L49.65,70.5H40A1.5,1.5,0,0,0,38.5,72a9.5,9.5,0,0,0,19,.12V72s0-.06,0-.09A.88.88,0,0,0,57.47,71.75ZM48,78.5a6.52,6.52,0,0,1-6.33-5H54.33A6.52,6.52,0,0,1,48,78.5Z"/><path class="cls-2" d="M65.34,71.33a1.5,1.5,0,0,0-2.68,1.34L69.57,86.5H64a1.5,1.5,0,0,0,0,3h8a1.49,1.49,0,0,0,1.34-2.17Z"/><path class="cls-2" d="M68,94.5H64a1.5,1.5,0,0,0,0,3h4a1.5,1.5,0,0,0,0-3Z"/><path class="cls-2" d="M108.89,64.57l-2.42-16.92a2.34,2.34,0,0,0,0-.26c-.09-.33-8.6-32.76-40.8-33.84-.55,0-1.1-.05-1.63-.05s-1.08,0-1.63.05c-32.2,1.08-40.71,33.51-40.8,33.84a2.34,2.34,0,0,0,0,.26L19.11,64.57a14.43,14.43,0,0,0-2.85,19.91l-2.73,19.17a2,2,0,0,0,0,.35c0,10.21,16.61,10.5,18.5,10.5a2.5,2.5,0,0,0,2.5-2.5V94l19.73,19.73a2.51,2.51,0,0,0,1.77.73H72a2.51,2.51,0,0,0,1.77-.73L93.5,94v18a2.5,2.5,0,0,0,2.5,2.5c1.89,0,18.5-.29,18.5-10.5a2,2,0,0,0,0-.35l-2.73-19.17a14.43,14.43,0,0,0-2.85-19.91ZM28,85.5a9.5,9.5,0,0,1,0-19ZM93.5,87,71,109.5H57L34.5,87V58.48c18.2-.31,31.93-4,40-10.48h4.89A18.54,18.54,0,0,0,93.5,58.31ZM100,85.5v-19a9.5,9.5,0,0,1,0,19Z"/></g></svg>