<svg xmlns="http://www.w3.org/2000/svg" viewBox="0 0 128 128"><defs><style>.cls-1{fill:none;}.cls-2{fill:#0b0b0b;}</style></defs><g id="OUTLINES_copy_2" data-name="OUTLINES copy 2"><path class="cls-1" d="M72,101.5H56a2.5,2.5,0,0,0,0,5H72a2.5,2.5,0,0,0,0-5Z"/><path class="cls-1" d="M29.53,87.65a2.49,2.49,0,0,1,1.16-1.78A2.42,2.42,0,0,1,32,85.51l-2.1-4.19a42.34,42.34,0,0,1-6.37-12.43,5.48,5.48,0,0,0-3.38,9.34Z"/><path class="cls-1" d="M96,85.5a2.53,2.53,0,0,1,1.27.37,2.49,2.49,0,0,1,1.16,1.78l9.42-9.42a5.47,5.47,0,0,0-3.38-9.34,42.34,42.34,0,0,1-6.37,12.43Z"/><path class="cls-1" d="M34.24,78.88l7.81,15.64,6,5.94,6.23-6.23A2.51,2.51,0,0,1,56,93.5H72a2.51,2.51,0,0,1,1.77.73L80,100.46l6-5.94,7.81-15.64A3,3,0,0,1,94,78.5a37.26,37.26,0,0,0,6.61-14.35l-6.38-6.38A2.51,2.51,0,0,1,93.5,56V42.5h-59V56a2.51,2.51,0,0,1-.73,1.77l-6.38,6.38A37.26,37.26,0,0,0,34,78.5,3,3,0,0,1,34.24,78.88ZM72,89.5H56a1.5,1.5,0,0,1,0-3H72a1.5,1.5,0,0,1,0,3Zm0-27H88a1.5,1.5,0,0,1,0,3h-.15a8,8,0,0,1-15.7,0H72a1.5,1.5,0,0,1,0-3Zm-32,0H56a1.5,1.5,0,0,1,0,3h-.15a8,8,0,0,1-15.7,0H40a1.5,1.5,0,0,1,0-3Z"/><path class="cls-2" d="M13.5,74.34a10.41,10.41,0,0,0,3.08,7.43L27.89,93.08a10.43,10.43,0,0,0,4,2.49l5.74,17.22a2.52,2.52,0,0,0,1.25,1.45l16,8a2.56,2.56,0,0,0,1.12.26H72a2.56,2.56,0,0,0,1.12-.26l16-8a2.52,2.52,0,0,0,1.25-1.45l5.74-17.22a10.43,10.43,0,0,0,4-2.49l11.31-11.31a10.48,10.48,0,0,0-4.93-17.61c0-.06,0-.11,0-.16V32a2.51,2.51,0,0,0-.73-1.77l-16-16A2.51,2.51,0,0,0,88,13.5H40a2.51,2.51,0,0,0-1.77.73l-16,16A2.51,2.51,0,0,0,21.5,32V64s0,.1,0,.16a10.47,10.47,0,0,0-8,10.18ZM72,106.5H56a2.5,2.5,0,0,1,0-5H72a2.5,2.5,0,0,1,0,5Zm35.89-36a5.5,5.5,0,0,1,0,7.78l-9.42,9.42a2.49,2.49,0,0,0-1.16-1.78A2.53,2.53,0,0,0,96,85.5l2.1-4.18a42.34,42.34,0,0,0,6.37-12.43A5.49,5.49,0,0,1,107.89,70.45ZM33.77,57.77A2.51,2.51,0,0,0,34.5,56V42.5h59V56a2.51,2.51,0,0,0,.73,1.77l6.38,6.38A37.26,37.26,0,0,1,94,78.5a3,3,0,0,0-.24.38L86,94.52l-6,5.94-6.23-6.23A2.51,2.51,0,0,0,72,93.5H56a2.51,2.51,0,0,0-1.77.73L48,100.46l-6-5.94L34.24,78.88A3,3,0,0,0,34,78.5a37.26,37.26,0,0,1-6.61-14.35ZM20.11,70.45a5.49,5.49,0,0,1,3.38-1.56,42.34,42.34,0,0,0,6.37,12.43L32,85.51a2.42,2.42,0,0,0-1.27.36,2.49,2.49,0,0,0-1.16,1.78l-9.42-9.42a5.5,5.5,0,0,1,0-7.78Z"/><path class="cls-2" d="M72,86.5H56a1.5,1.5,0,0,0,0,3H72a1.5,1.5,0,0,0,0-3Z"/><path class="cls-2" d="M40,65.5h.15a8,8,0,0,0,15.7,0H56a1.5,1.5,0,0,0,0-3H40a1.5,1.5,0,0,0,0,3Z"/><path class="cls-2" d="M72,65.5h.15a8,8,0,0,0,15.7,0H88a1.5,1.5,0,0,0,0-3H72a1.5,1.5,0,0,0,0,3Z"/></g></svg>