<svg xmlns="http://www.w3.org/2000/svg" viewBox="0 0 128 128"><defs><style>.cls-1{fill:none;}.cls-2{fill:#0b0b0b;}</style></defs><g id="OUTLINES_copy_2" data-name="OUTLINES copy 2"><polygon class="cls-1" points="98.5 89.96 101.81 86.65 107.72 68.94 98.5 73.55 98.5 89.96"/><path class="cls-1" d="M81.77,57.77a2.51,2.51,0,0,1-2.89.47L64,50.79,49.12,58.24a2.51,2.51,0,0,1-2.89-.47L40,51.54,34.5,57V95L49,109.5H79L93.5,95V57L88,51.54ZM57.5,72.07v.05a9.5,9.5,0,0,1-19-.12A1.5,1.5,0,0,1,40,70.5h9.65L39.33,65.34a1.5,1.5,0,0,1,1.34-2.68l16,8,.08,0,.13.08a.52.52,0,0,1,.11.1l.11.09.09.12a.76.76,0,0,1,.08.11.83.83,0,0,1,.07.13l.06.13a1,1,0,0,1,0,.14.35.35,0,0,1,0,.14.88.88,0,0,1,0,.16s0,.06,0,.09Zm5-.07a1.5,1.5,0,0,1,3,0V86.5H72a1.5,1.5,0,0,1,0,3H64A1.5,1.5,0,0,1,62.5,88ZM80.67,97.34l-16,8a1.44,1.44,0,0,1-.67.16,1.5,1.5,0,0,1-.67-2.84l16-8a1.5,1.5,0,1,1,1.34,2.68Zm8.67-34a1.5,1.5,0,0,1-.67,2L78.35,70.5H88A1.5,1.5,0,0,1,89.5,72a9.5,9.5,0,0,1-19,.11V72s0-.06,0-.09a.88.88,0,0,1,0-.16.35.35,0,0,1,0-.14,1,1,0,0,1,0-.14l.06-.13a.83.83,0,0,1,.07-.13.76.76,0,0,1,.08-.11L70.9,71l.11-.09a.52.52,0,0,1,.11-.1l.13-.08.08,0,16-8A1.5,1.5,0,0,1,89.34,63.33Z"/><polygon class="cls-1" points="26.19 86.65 29.5 89.96 29.5 73.55 20.28 68.94 26.19 86.65"/><path class="cls-1" d="M64.61,18.43a2.52,2.52,0,0,1-1.22,0L32.77,10.77,18.5,25V62.46l11,5.5V56a2.51,2.51,0,0,1,.73-1.77l8-8a2.52,2.52,0,0,1,3.54,0L48.49,53l14.39-7.2a2.52,2.52,0,0,1,2.24,0L79.51,53l6.72-6.73a2.51,2.51,0,0,1,3.54,0l8,8A2.51,2.51,0,0,1,98.5,56V68l11-5.5V25L95.23,10.77ZM49.06,41.06a1.5,1.5,0,0,1-2.12,0l-16-16a1.5,1.5,0,1,1,2.12-2.12l16,16A1.49,1.49,0,0,1,49.06,41.06Zm48-18.12a1.49,1.49,0,0,1,0,2.12l-16,16a1.5,1.5,0,0,1-2.12,0,1.49,1.49,0,0,1,0-2.12l16-16A1.49,1.49,0,0,1,97.06,22.94Z"/><path class="cls-1" d="M49.5,78.3a6.5,6.5,0,0,0,4.83-4.8H49.5Z"/><path class="cls-1" d="M46.5,78.3V73.5H41.67A6.5,6.5,0,0,0,46.5,78.3Z"/><path class="cls-1" d="M78.5,78.3V73.5H73.67A6.5,6.5,0,0,0,78.5,78.3Z"/><path class="cls-1" d="M86.33,73.5H81.5v4.8A6.5,6.5,0,0,0,86.33,73.5Z"/><path class="cls-2" d="M95.39,5.57,64,13.42,32.61,5.57a2.52,2.52,0,0,0-2.38.66l-16,16A2.51,2.51,0,0,0,13.5,24V64s0,.06,0,.09a3.32,3.32,0,0,0,.06.44c0,.07,0,.14,0,.2a.13.13,0,0,0,0,.06l8,24a2.55,2.55,0,0,0,.6,1l8,8,16,16a2.51,2.51,0,0,0,1.77.73H80a2.51,2.51,0,0,0,1.77-.73l16-16,8-8a2.55,2.55,0,0,0,.6-1l8-24a.13.13,0,0,0,0-.06c0-.06,0-.13.05-.2a3.32,3.32,0,0,0,.06-.44s0-.06,0-.09V24a2.51,2.51,0,0,0-.73-1.77l-16-16A2.52,2.52,0,0,0,95.39,5.57ZM29.5,90l-3.31-3.31L20.28,68.94l9.22,4.61Zm64-18V95L79,109.5H49L34.5,95V57l5.5-5.5,6.23,6.23a2.51,2.51,0,0,0,2.89.47L64,50.79l14.88,7.45a2.51,2.51,0,0,0,2.89-.47L88,51.54,93.5,57Zm8.31,14.65L98.5,90V73.55l9.22-4.61Zm7.69-24.19L98.5,68V56a2.51,2.51,0,0,0-.73-1.77l-8-8a2.51,2.51,0,0,0-3.54,0L79.51,53l-14.39-7.2a2.52,2.52,0,0,0-2.24,0L48.49,53l-6.72-6.73a2.52,2.52,0,0,0-3.54,0l-8,8A2.51,2.51,0,0,0,29.5,56V68l-11-5.5V25L32.77,10.77l30.62,7.66a2.52,2.52,0,0,0,1.22,0l30.62-7.66L109.5,25Z"/><path class="cls-2" d="M79.33,94.66l-16,8A1.5,1.5,0,0,0,64,105.5a1.44,1.44,0,0,0,.67-.16l16-8a1.5,1.5,0,1,0-1.34-2.68Z"/><path class="cls-2" d="M87.33,62.66l-16,8-.08,0-.13.08a.52.52,0,0,0-.11.1L70.9,71l-.09.12a.76.76,0,0,0-.08.11.83.83,0,0,0-.07.13l-.06.13a1,1,0,0,0,0,.14.35.35,0,0,0,0,.14.88.88,0,0,0,0,.16s0,.06,0,.09v.11a9.5,9.5,0,0,0,19-.11A1.5,1.5,0,0,0,88,70.5H78.35l10.32-5.16a1.5,1.5,0,0,0-1.34-2.68ZM81.5,73.5h4.83a6.5,6.5,0,0,1-4.83,4.8Zm-3,0v4.8a6.5,6.5,0,0,1-4.83-4.8Z"/><path class="cls-2" d="M64,89.5h8a1.5,1.5,0,0,0,0-3H65.5V72a1.5,1.5,0,0,0-3,0V88A1.5,1.5,0,0,0,64,89.5Z"/><path class="cls-2" d="M57.47,71.75a.35.35,0,0,0,0-.14,1,1,0,0,0,0-.14l-.06-.13a.83.83,0,0,0-.07-.13.76.76,0,0,0-.08-.11L57.1,71,57,70.89a.52.52,0,0,0-.11-.1l-.13-.08-.08,0-16-8a1.5,1.5,0,0,0-1.34,2.68L49.65,70.5H40A1.5,1.5,0,0,0,38.5,72a9.5,9.5,0,0,0,19,.12V72s0-.06,0-.09A.88.88,0,0,0,57.47,71.75Zm-11,6.55a6.5,6.5,0,0,1-4.83-4.8H46.5Zm3,0V73.5h4.83A6.5,6.5,0,0,1,49.5,78.3Z"/><path class="cls-2" d="M78.94,38.94a1.49,1.49,0,0,0,0,2.12,1.5,1.5,0,0,0,2.12,0l16-16a1.5,1.5,0,0,0-2.12-2.12Z"/><path class="cls-2" d="M33.06,22.94a1.5,1.5,0,1,0-2.12,2.12l16,16a1.5,1.5,0,0,0,2.12,0,1.49,1.49,0,0,0,0-2.12Z"/></g></svg>