<svg xmlns="http://www.w3.org/2000/svg" viewBox="0 0 128 128"><defs><style>.cls-1{fill:none;}.cls-2{fill:#0b0b0b;}</style></defs><g id="OUTLINES_copy_2" data-name="OUTLINES copy 2"><path class="cls-1" d="M78.06,44.45c-7,8.64-22.24,13.66-43.56,14V80h0V94.66L56.76,109.5H71.24L93.5,94.66V80h0V58.31A18.53,18.53,0,0,1,78.06,44.45ZM38.5,72A1.5,1.5,0,0,1,40,70.5h9.65L39.33,65.34a1.5,1.5,0,0,1,1.34-2.68l16,8,.08,0,.13.08a.52.52,0,0,1,.11.1l.11.09.09.12a.76.76,0,0,1,.08.11.83.83,0,0,1,.07.13l.06.13a1,1,0,0,1,0,.14.35.35,0,0,1,0,.14.88.88,0,0,1,0,.16s0,.06,0,.09v.07a.11.11,0,0,1,0,.05,9.5,9.5,0,0,1-19-.12ZM68,97.5H56a1.5,1.5,0,0,1,0-3H68a1.5,1.5,0,0,1,0,3Zm5.39-8.93A1.51,1.51,0,0,1,72,89.5H64a1.5,1.5,0,0,1,0-3h4.38l-5.44-5.44a1.5,1.5,0,0,1,2.12-2.12l8,8A1.5,1.5,0,0,1,73.39,88.57Zm16-25.24a1.5,1.5,0,0,1-.67,2L78.35,70.5H88A1.5,1.5,0,0,1,89.5,72a9.5,9.5,0,0,1-19,.11s0,0,0,0V72s0-.06,0-.09a.88.88,0,0,1,0-.16.35.35,0,0,1,0-.14,1,1,0,0,1,0-.14l.06-.13a.83.83,0,0,1,.07-.13.76.76,0,0,1,.08-.11L70.9,71l.11-.09a.52.52,0,0,1,.11-.1l.13-.08.08,0,16-8A1.5,1.5,0,0,1,89.34,63.33Z"/><path class="cls-1" d="M78.5,78.3V73.5H73.67A6.5,6.5,0,0,0,78.5,78.3Z"/><path class="cls-1" d="M86.33,73.5H81.5v4.8A6.5,6.5,0,0,0,86.33,73.5Z"/><path class="cls-1" d="M81.77,37.36l0,.14h.41Z"/><path class="cls-1" d="M46.5,78.3V73.5H41.67A6.5,6.5,0,0,0,46.5,78.3Z"/><path class="cls-1" d="M49.5,78.3a6.5,6.5,0,0,0,4.83-4.8H49.5Z"/><path class="cls-2" d="M71.25,70.71l-.13.08a.52.52,0,0,0-.11.1L70.9,71l-.09.12a.76.76,0,0,0-.08.11.83.83,0,0,0-.07.13l-.06.13a1,1,0,0,0,0,.14.35.35,0,0,0,0,.14.88.88,0,0,0,0,.16s0,.06,0,.09v.07s0,0,0,0a9.5,9.5,0,0,0,19-.11A1.5,1.5,0,0,0,88,70.5H78.35l10.32-5.16a1.5,1.5,0,0,0-1.34-2.68l-16,8ZM81.5,73.5h4.83a6.5,6.5,0,0,1-4.83,4.8Zm-3,0v4.8a6.5,6.5,0,0,1-4.83-4.8Z"/><path class="cls-2" d="M57.49,72.12a.11.11,0,0,0,0-.05V72s0-.06,0-.09a.88.88,0,0,0,0-.16.35.35,0,0,0,0-.14,1,1,0,0,0,0-.14l-.06-.13a.83.83,0,0,0-.07-.13.76.76,0,0,0-.08-.11L57.1,71,57,70.89a.52.52,0,0,0-.11-.1l-.13-.08-.08,0-16-8a1.5,1.5,0,0,0-1.34,2.68L49.65,70.5H40A1.5,1.5,0,0,0,38.5,72a9.5,9.5,0,0,0,19,.12Zm-11,6.18a6.5,6.5,0,0,1-4.83-4.8H46.5Zm3,0V73.5h4.83A6.5,6.5,0,0,1,49.5,78.3Z"/><path class="cls-2" d="M65.06,78.94a1.5,1.5,0,0,0-2.12,2.12l5.44,5.44H64a1.5,1.5,0,0,0,0,3h8a1.51,1.51,0,0,0,1.39-.93,1.5,1.5,0,0,0-.33-1.63Z"/><path class="cls-2" d="M68,94.5H56a1.5,1.5,0,0,0,0,3H68a1.5,1.5,0,0,0,0-3Z"/><path class="cls-2" d="M113.89,105.64a2.49,2.49,0,0,0,.58-2l-8-55.87C106.35,31.25,90.13,13.5,64,13.5S21.65,31.25,21.51,47.78l-8,55.87A2.49,2.49,0,0,0,16,106.5H32a2.5,2.5,0,0,0,2.5-2.5v-3.33l20.11,13.41a2.55,2.55,0,0,0,1.39.42H72a2.55,2.55,0,0,0,1.39-.42L93.5,100.67V104a2.5,2.5,0,0,0,2.5,2.5h16A2.51,2.51,0,0,0,113.89,105.64ZM81.77,37.36l.38.14h-.41ZM93.5,80h0V94.66L71.24,109.5H56.76L34.5,94.66V80h0V58.48c21.32-.37,36.51-5.39,43.56-14A18.53,18.53,0,0,0,93.5,58.31Z"/></g></svg>