<svg xmlns="http://www.w3.org/2000/svg" viewBox="0 0 128 128"><defs><style>.cls-1{fill:none;}.cls-2{fill:#0b0b0b;}</style></defs><g id="OUTLINES_copy_2" data-name="OUTLINES copy 2"><path class="cls-1" d="M50.5,88V98l3.73-3.73A2.51,2.51,0,0,1,56,93.5h4a2.52,2.52,0,0,1,2.24,1.38L64,98.41l1.76-3.53A2.52,2.52,0,0,1,68,93.5h4a2.51,2.51,0,0,1,1.77.73L77.5,98V88a2.52,2.52,0,0,1,1.38-2.24L94.35,78a37.1,37.1,0,0,0,7.14-21.61L87.33,49.34A1.49,1.49,0,0,1,86.5,48V40a1.5,1.5,0,0,1,3,0v7.07l11.89,6C100,32.85,84.72,18.5,64,18.5c-1.1,0-2.18.05-3.25.13L73.06,30.94a1.49,1.49,0,0,1,0,2.12l-8,8a1.5,1.5,0,0,1-2.12,0,1.49,1.49,0,0,1,0-2.12L69.88,32,57,19.09A35.87,35.87,0,0,0,34.35,32.23l6.71,6.71A1.5,1.5,0,0,1,41.5,40v8a1.5,1.5,0,0,1-3,0V40.62l-5.93-5.93A38.62,38.62,0,0,0,26.5,56a37.17,37.17,0,0,0,7.15,22l15.47,7.73A2.52,2.52,0,0,1,50.5,88ZM72,61.5h5.5V68a2.5,2.5,0,0,0,5,0V61.5H88A2.5,2.5,0,0,1,90.5,64a10.5,10.5,0,0,1-21,0A2.5,2.5,0,0,1,72,61.5Zm-9.06,9.44a1.63,1.63,0,0,1,.49-.33h0a1.43,1.43,0,0,1,1.1,0h0a1.63,1.63,0,0,1,.49.33l8,8a1.49,1.49,0,0,1,0,2.12,1.5,1.5,0,0,1-2.12,0L65.5,75.62V80a1.5,1.5,0,0,1-3,0V75.62l-5.44,5.44a1.5,1.5,0,0,1-2.12-2.12ZM37.5,64A2.5,2.5,0,0,1,40,61.5h5.5V68a2.5,2.5,0,0,0,5,0V61.5H56A2.5,2.5,0,0,1,58.5,64a10.5,10.5,0,0,1-21,0Z"/><path class="cls-2" d="M47,106.31a2.51,2.51,0,0,0,2.73-.54L57,98.5h1.42l3.3,6.62a2.51,2.51,0,0,0,4.48,0l3.3-6.62H71l7.27,7.27A2.5,2.5,0,0,0,82.5,104V89.54l14.62-7.3A2.62,2.62,0,0,0,98,81.5,42.13,42.13,0,0,0,106.5,56,42.8,42.8,0,0,0,94.8,26C87,17.93,76.08,13.5,64,13.5S41,17.93,33.2,26A42.8,42.8,0,0,0,21.5,56,42.13,42.13,0,0,0,30,81.5a2.62,2.62,0,0,0,.88.74l14.62,7.3V104A2.51,2.51,0,0,0,47,106.31ZM33.65,78A37.17,37.17,0,0,1,26.5,56a38.62,38.62,0,0,1,6.07-21.31l5.93,5.93V48a1.5,1.5,0,0,0,3,0V40a1.5,1.5,0,0,0-.44-1.06l-6.71-6.71A35.87,35.87,0,0,1,57,19.09L69.88,32l-6.94,6.94a1.49,1.49,0,0,0,0,2.12,1.5,1.5,0,0,0,2.12,0l8-8a1.49,1.49,0,0,0,0-2.12L60.75,18.63c1.07-.08,2.15-.13,3.25-.13,20.72,0,36,14.35,37.39,34.52l-11.89-6V40a1.5,1.5,0,0,0-3,0v8a1.49,1.49,0,0,0,.83,1.34l14.16,7.08A37.1,37.1,0,0,1,94.35,78L78.88,85.76A2.52,2.52,0,0,0,77.5,88V98l-3.73-3.73A2.51,2.51,0,0,0,72,93.5H68a2.52,2.52,0,0,0-2.24,1.38L64,98.41l-1.76-3.53A2.52,2.52,0,0,0,60,93.5H56a2.51,2.51,0,0,0-1.77.73L50.5,98V88a2.52,2.52,0,0,0-1.38-2.24Z"/><path class="cls-2" d="M54.94,81.06a1.49,1.49,0,0,0,2.12,0l5.44-5.44V80a1.5,1.5,0,0,0,3,0V75.62l5.44,5.44a1.5,1.5,0,0,0,2.12,0,1.49,1.49,0,0,0,0-2.12l-8-8a1.63,1.63,0,0,0-.49-.33h0a1.43,1.43,0,0,0-1.1,0h0a1.63,1.63,0,0,0-.49.33l-8,8A1.49,1.49,0,0,0,54.94,81.06Z"/><path class="cls-2" d="M58.5,64A2.5,2.5,0,0,0,56,61.5H50.5V68a2.5,2.5,0,0,1-5,0V61.5H40A2.5,2.5,0,0,0,37.5,64a10.5,10.5,0,0,0,21,0Z"/><path class="cls-2" d="M80,74.5A10.51,10.51,0,0,0,90.5,64,2.5,2.5,0,0,0,88,61.5H82.5V68a2.5,2.5,0,0,1-5,0V61.5H72A2.5,2.5,0,0,0,69.5,64,10.51,10.51,0,0,0,80,74.5Z"/></g></svg>