<svg xmlns="http://www.w3.org/2000/svg" viewBox="0 0 128 128"><defs><style>.cls-1{fill:none;}.cls-2{fill:#0b0b0b;}</style></defs><g id="OUTLINES_copy_2" data-name="OUTLINES copy 2"><path class="cls-1" d="M27.44,70.08A5.55,5.55,0,0,0,24,68.85a5.49,5.49,0,0,0-3.89,9.38L31.42,89.55a5.43,5.43,0,0,0,3.34,1.55l-4.9-9.79C27.3,77.78,27,74,27.44,70.08Z"/><path class="cls-1" d="M104,68.85a5.55,5.55,0,0,0-3.44,1.23c.43,3.87.14,7.7-2.42,11.23l-4.9,9.79a5.43,5.43,0,0,0,3.34-1.55l11.31-11.32A5.49,5.49,0,0,0,104,68.85Z"/><path class="cls-1" d="M94,78.5c2.61-3.47,1.78-7.65.73-12.93a51.68,51.68,0,0,1-1.21-8.81L89.6,50.64l-4.29,6.71a2.51,2.51,0,0,1-4.22,0L76.8,50.64l-4.29,6.71a2.51,2.51,0,0,1-4.22,0L64,50.64l-4.29,6.71a2.51,2.51,0,0,1-4.22,0L51.2,50.64l-4.29,6.71a2.51,2.51,0,0,1-4.22,0L38.4,50.64l-3.92,6.12a51.68,51.68,0,0,1-1.21,8.81C32.22,70.85,31.39,75,34,78.5a3,3,0,0,1,.24.38l15.3,30.62h13V104a1.5,1.5,0,0,1,3,0v5.5h13l15.3-30.62A3,3,0,0,1,94,78.5Zm-31.5,8V72a1.5,1.5,0,0,1,3,0V88A1.5,1.5,0,0,1,64,89.5H56a1.5,1.5,0,0,1,0-3ZM37.5,64A2.5,2.5,0,0,1,40,61.5H56a2.5,2.5,0,0,1,0,5H40A2.5,2.5,0,0,1,37.5,64Zm12.27,9.77a3.68,3.68,0,0,1-.38.31,2.55,2.55,0,0,1-.43.23,2.79,2.79,0,0,1-.47.14,2.43,2.43,0,0,1-1,0,2.79,2.79,0,0,1-.47-.14,2.55,2.55,0,0,1-.43-.23,3.68,3.68,0,0,1-.38-.31A2.55,2.55,0,0,1,45.5,72a2.72,2.72,0,0,1,0-.49,2.43,2.43,0,0,1,.37-.9,3.68,3.68,0,0,1,.31-.38,2.59,2.59,0,0,1,3.54,0,3.68,3.68,0,0,1,.31.38,2.43,2.43,0,0,1,.37.9,2.72,2.72,0,0,1,0,.49A2.55,2.55,0,0,1,49.77,73.77ZM72,97.5H56a1.5,1.5,0,0,1,0-3H72a1.5,1.5,0,0,1,0,3Zm9.77-23.73a3.68,3.68,0,0,1-.38.31,2.43,2.43,0,0,1-.9.37,2.72,2.72,0,0,1-.49,0A2.49,2.49,0,0,1,77.5,72a2.72,2.72,0,0,1,0-.49,2.43,2.43,0,0,1,.37-.9,3.68,3.68,0,0,1,.31-.38,2.51,2.51,0,0,1,2.26-.68,2.43,2.43,0,0,1,.9.37,2.43,2.43,0,0,1,.69.69,2.43,2.43,0,0,1,.37.9,2.72,2.72,0,0,1,0,.49A2.55,2.55,0,0,1,81.77,73.77ZM88,66.5H72a2.5,2.5,0,0,1,0-5H88a2.5,2.5,0,0,1,0,5Z"/><path class="cls-2" d="M99.67,64.79l0-.2A44.46,44.46,0,0,1,98.5,56c0-27.41-12.25-42.5-34.5-42.5S29.5,28.59,29.5,56a44.46,44.46,0,0,1-1.14,8.59l0,.2a10.49,10.49,0,0,0-11.75,17L27.89,93.08a10.45,10.45,0,0,0,7.42,3.07A10.77,10.77,0,0,0,37.19,96l8.57,17.14A2.52,2.52,0,0,0,48,114.5H80a2.52,2.52,0,0,0,2.24-1.38L90.81,96a10.77,10.77,0,0,0,1.88.17,10.45,10.45,0,0,0,7.42-3.07l11.31-11.31a10.49,10.49,0,0,0-11.75-17ZM31.42,89.55,20.11,78.23A5.49,5.49,0,0,1,24,68.85a5.55,5.55,0,0,1,3.44,1.23C27,74,27.3,77.78,29.86,81.31l4.9,9.79A5.43,5.43,0,0,1,31.42,89.55Zm47,20h-13V104a1.5,1.5,0,0,0-3,0v5.5h-13L34.24,78.88A3,3,0,0,0,34,78.5c-2.61-3.47-1.78-7.65-.73-12.93a51.68,51.68,0,0,0,1.21-8.81l3.92-6.12,4.29,6.71a2.51,2.51,0,0,0,4.22,0l4.29-6.71,4.29,6.71a2.51,2.51,0,0,0,4.22,0L64,50.64l4.29,6.71a2.51,2.51,0,0,0,4.22,0l4.29-6.71,4.29,6.71a2.51,2.51,0,0,0,4.22,0l4.29-6.71,3.92,6.12a51.68,51.68,0,0,0,1.21,8.81c1,5.28,1.88,9.46-.73,12.93a3,3,0,0,0-.24.38Zm29.43-31.27L96.58,89.55a5.43,5.43,0,0,1-3.34,1.55l4.9-9.79c2.56-3.53,2.85-7.36,2.42-11.23A5.55,5.55,0,0,1,104,68.85a5.49,5.49,0,0,1,3.89,9.38Z"/><path class="cls-2" d="M50.31,71a2.55,2.55,0,0,0-.23-.43,3.68,3.68,0,0,0-.31-.38,2.59,2.59,0,0,0-3.54,0,3.68,3.68,0,0,0-.31.38,2.43,2.43,0,0,0-.37.9,2.72,2.72,0,0,0,0,.49,2.55,2.55,0,0,0,.73,1.77,3.68,3.68,0,0,0,.38.31,2.55,2.55,0,0,0,.43.23,2.79,2.79,0,0,0,.47.14,2.43,2.43,0,0,0,1,0,2.79,2.79,0,0,0,.47-.14,2.55,2.55,0,0,0,.43-.23,3.68,3.68,0,0,0,.38-.31A2.55,2.55,0,0,0,50.5,72a2.72,2.72,0,0,0,0-.49A2.54,2.54,0,0,0,50.31,71Z"/><path class="cls-2" d="M54.5,88A1.5,1.5,0,0,0,56,89.5h8A1.5,1.5,0,0,0,65.5,88V72a1.5,1.5,0,0,0-3,0V86.5H56A1.5,1.5,0,0,0,54.5,88Z"/><path class="cls-2" d="M72,94.5H56a1.5,1.5,0,0,0,0,3H72a1.5,1.5,0,0,0,0-3Z"/><path class="cls-2" d="M58.5,64A2.5,2.5,0,0,0,56,61.5H40a2.5,2.5,0,0,0,0,5H56A2.5,2.5,0,0,0,58.5,64Z"/><path class="cls-2" d="M82.31,71a2.55,2.55,0,0,0-.23-.43,2.43,2.43,0,0,0-.69-.69,2.43,2.43,0,0,0-.9-.37,2.51,2.51,0,0,0-2.26.68,3.68,3.68,0,0,0-.31.38,2.43,2.43,0,0,0-.37.9,2.72,2.72,0,0,0,0,.49A2.49,2.49,0,0,0,80,74.5a2.72,2.72,0,0,0,.49,0,2.43,2.43,0,0,0,.9-.37,3.68,3.68,0,0,0,.38-.31A2.55,2.55,0,0,0,82.5,72a2.72,2.72,0,0,0,0-.49A2.54,2.54,0,0,0,82.31,71Z"/><path class="cls-2" d="M88,61.5H72a2.5,2.5,0,0,0,0,5H88a2.5,2.5,0,0,0,0-5Z"/></g></svg>