<svg xmlns="http://www.w3.org/2000/svg" viewBox="0 0 128 128"><defs><style>.cls-1{fill:none;}.cls-2{fill:#0b0b0b;}</style></defs><g id="OUTLINES_copy_2" data-name="OUTLINES copy 2"><path class="cls-1" d="M102.5,68V52a2.5,2.5,0,0,0-2.5-2.5H97.5V74.33A6.52,6.52,0,0,0,102.5,68Z"/><path class="cls-1" d="M64,78.5A6.51,6.51,0,0,0,70.5,72h-13A6.51,6.51,0,0,0,64,78.5Z"/><path class="cls-1" d="M30.5,49.5H28A2.5,2.5,0,0,0,25.5,52V68a6.52,6.52,0,0,0,5,6.33Z"/><path class="cls-1" d="M40,69.5h7l7.27-7.27A2.88,2.88,0,0,1,54.5,62V56a1.5,1.5,0,0,1,3,0v8a6.5,6.5,0,0,0,13,0V56a1.5,1.5,0,0,1,3,0v6a2.88,2.88,0,0,1,.27.22L81,69.5h7a2.52,2.52,0,0,1,2.24,1.38l4.26,8.53V40.62L88,34.12l-6.94,6.94a1.49,1.49,0,0,1-2.12,0L72,34.12l-6.94,6.94a1.49,1.49,0,0,1-2.12,0L56,34.12l-6.94,6.94a1.49,1.49,0,0,1-2.12,0L40,34.12l-6.5,6.5V79.41l4.26-8.53A2.52,2.52,0,0,1,40,69.5ZM70.66,47.33a1.5,1.5,0,0,1,2-.67l16,8A1.5,1.5,0,0,1,88,57.5a1.44,1.44,0,0,1-.67-.16l-16-8A1.5,1.5,0,0,1,70.66,47.33ZM39.33,54.66l16-8a1.5,1.5,0,1,1,1.34,2.68l-16,8a1.44,1.44,0,0,1-.67.16,1.5,1.5,0,0,1-.67-2.84Z"/><path class="cls-2" d="M31,114.31a2.51,2.51,0,0,0,2.73-.54l5.55-5.55,6.44,12.9a2.51,2.51,0,0,0,4,.65L56,115.54l6.23,6.23a2.52,2.52,0,0,0,3.54,0L72,115.54l6.23,6.23a2.52,2.52,0,0,0,1.77.73,2.69,2.69,0,0,0,.4,0,2.51,2.51,0,0,0,1.84-1.35l6.44-12.9,5.55,5.55A2.5,2.5,0,0,0,98.5,112V100.75l7.72,5.31a2.53,2.53,0,0,0,1.42.44,2.4,2.4,0,0,0,1.16-.29,2.5,2.5,0,0,0,1.34-2.21V51.64a46.14,46.14,0,0,0-92.28,0V104a2.51,2.51,0,0,0,3.92,2.06l7.72-5.31V112A2.51,2.51,0,0,0,31,114.31ZM97.5,49.5H100a2.5,2.5,0,0,1,2.5,2.5V68a6.52,6.52,0,0,1-5,6.33ZM64,78.5A6.51,6.51,0,0,1,57.5,72h13A6.51,6.51,0,0,1,64,78.5ZM33.5,76V40.62l6.5-6.5,6.94,6.94a1.49,1.49,0,0,0,2.12,0L56,34.12l6.94,6.94a1.49,1.49,0,0,0,2.12,0L72,34.12l6.94,6.94a1.49,1.49,0,0,0,2.12,0L88,34.12l6.5,6.5V79.41l-4.26-8.53A2.52,2.52,0,0,0,88,69.5H81l-7.27-7.27A2.88,2.88,0,0,0,73.5,62V56a1.5,1.5,0,0,0-3,0v8a6.5,6.5,0,0,1-13,0V56a1.5,1.5,0,0,0-3,0v6a2.88,2.88,0,0,0-.27.22L47,69.5H40a2.52,2.52,0,0,0-2.24,1.38L33.5,79.41Zm-8-8V52A2.5,2.5,0,0,1,28,49.5h2.5V74.33A6.52,6.52,0,0,1,25.5,68Z"/><path class="cls-2" d="M40,57.5a1.44,1.44,0,0,0,.67-.16l16-8a1.5,1.5,0,1,0-1.34-2.68l-16,8A1.5,1.5,0,0,0,40,57.5Z"/><path class="cls-2" d="M71.33,49.34l16,8a1.44,1.44,0,0,0,.67.16,1.5,1.5,0,0,0,.67-2.84l-16-8a1.5,1.5,0,0,0-1.34,2.68Z"/></g></svg>