<svg xmlns="http://www.w3.org/2000/svg" viewBox="0 0 128 128"><defs><style>.cls-1{fill:none;}.cls-2{fill:#0b0b0b;}</style></defs><g id="OUTLINES_copy_2" data-name="OUTLINES copy 2"><path class="cls-1" d="M71,109.5,93.5,87V57.51C75.18,53.83,67.35,40.59,64,30,60.65,40.59,52.82,53.83,34.5,57.51V87L57,109.5Zm1-39A6.51,6.51,0,0,0,78.5,64,1.5,1.5,0,0,1,80,62.5h8a1.5,1.5,0,0,1,0,3H81.38a9.4,9.4,0,0,1-2.46,5H80a1.5,1.5,0,0,1,0,3H72a1.5,1.5,0,0,1,0-3ZM62.94,81.06a1.5,1.5,0,0,1,2.12-2.12l8,8a1.5,1.5,0,0,1,.33,1.63A1.51,1.51,0,0,1,72,89.5H64a1.5,1.5,0,0,1,0-3h4.38ZM60,94.5h8a1.5,1.5,0,0,1,0,3H60a1.5,1.5,0,0,1,0-3Zm-12-21a1.5,1.5,0,0,1,0-3h1.09a9.41,9.41,0,0,1-2.47-5H40a1.5,1.5,0,0,1,0-3h8A1.5,1.5,0,0,1,49.5,64,6.51,6.51,0,0,0,56,70.5a1.5,1.5,0,0,1,0,3Z"/><path class="cls-1" d="M24,85.5A5.51,5.51,0,0,0,29.5,80V64a5.5,5.5,0,0,0-11,0V80A5.51,5.51,0,0,0,24,85.5Zm-1.06-6.56a1.45,1.45,0,0,1,.23-.19,1.59,1.59,0,0,1,.26-.14l.28-.08a1.5,1.5,0,0,1,1.35.41,1.45,1.45,0,0,1,.19.23,1.26,1.26,0,0,1,.13.26,1.31,1.31,0,0,1,.09.28,1.36,1.36,0,0,1,0,.29,1.56,1.56,0,0,1-.11.57,1.63,1.63,0,0,1-.33.49A1.5,1.5,0,0,1,24,81.5a1.56,1.56,0,0,1-.57-.11,1.51,1.51,0,0,1-.49-.33,1.63,1.63,0,0,1-.33-.49A1.56,1.56,0,0,1,22.5,80,1.52,1.52,0,0,1,22.94,78.94Z"/><path class="cls-1" d="M104,85.5a5.51,5.51,0,0,0,5.5-5.5V64a5.5,5.5,0,0,0-11,0V80A5.51,5.51,0,0,0,104,85.5Zm-1.06-6.56a1.45,1.45,0,0,1,.23-.19,1.59,1.59,0,0,1,.26-.14l.28-.08a1.5,1.5,0,0,1,1.35.41,1.45,1.45,0,0,1,.19.23,1.26,1.26,0,0,1,.13.26,1.31,1.31,0,0,1,.09.28,1.36,1.36,0,0,1,0,.29,1.56,1.56,0,0,1-.11.57,1.63,1.63,0,0,1-.33.49,1.5,1.5,0,0,1-1.06.44,1.56,1.56,0,0,1-.57-.11,1.51,1.51,0,0,1-.49-.33,1.63,1.63,0,0,1-.33-.49,1.56,1.56,0,0,1-.11-.57A1.52,1.52,0,0,1,102.94,78.94Z"/><path class="cls-2" d="M13.5,80a10.48,10.48,0,0,0,16.15,8.83,2.35,2.35,0,0,0,.36.66A6.36,6.36,0,0,0,29.5,92a6.43,6.43,0,0,0,1.39,4,6.43,6.43,0,0,0-1.39,4,6.51,6.51,0,0,0,6.5,6.5H47l7.27,7.27a2.51,2.51,0,0,0,1.77.73H72a2.51,2.51,0,0,0,1.77-.73L81,106.5H92a6.51,6.51,0,0,0,6.5-6.5,6.43,6.43,0,0,0-1.39-4,6.43,6.43,0,0,0,1.39-4A6.36,6.36,0,0,0,98,89.49a2.35,2.35,0,0,0,.36-.66A10.48,10.48,0,0,0,114.5,80V64a10.52,10.52,0,0,0-8-10.19c-.08-16-1.9-40.31-42.5-40.31S21.58,37.78,21.5,53.81A10.52,10.52,0,0,0,13.5,64Zm85-16a5.5,5.5,0,0,1,11,0V80a5.5,5.5,0,0,1-11,0Zm-64,16V57.51C52.82,53.83,60.65,40.59,64,30c3.35,10.55,11.18,23.79,29.5,27.47V87L71,109.5H57L34.5,87Zm-16-16a5.5,5.5,0,0,1,11,0V80a5.5,5.5,0,0,1-11,0Z"/><path class="cls-2" d="M62.5,88A1.5,1.5,0,0,0,64,89.5h8a1.51,1.51,0,0,0,1.39-.93,1.5,1.5,0,0,0-.33-1.63l-8-8a1.5,1.5,0,0,0-2.12,2.12l5.44,5.44H64A1.5,1.5,0,0,0,62.5,88Z"/><path class="cls-2" d="M60,97.5h8a1.5,1.5,0,0,0,0-3H60a1.5,1.5,0,0,0,0,3Z"/><path class="cls-2" d="M57.5,72A1.5,1.5,0,0,0,56,70.5,6.51,6.51,0,0,1,49.5,64,1.5,1.5,0,0,0,48,62.5H40a1.5,1.5,0,0,0,0,3h6.62a9.41,9.41,0,0,0,2.47,5H48a1.5,1.5,0,0,0,0,3h8A1.5,1.5,0,0,0,57.5,72Z"/><path class="cls-2" d="M72,73.5h8a1.5,1.5,0,0,0,0-3H78.92a9.4,9.4,0,0,0,2.46-5H88a1.5,1.5,0,0,0,0-3H80A1.5,1.5,0,0,0,78.5,64,6.51,6.51,0,0,1,72,70.5a1.5,1.5,0,0,0,0,3Z"/><path class="cls-2" d="M102.94,81.06a1.51,1.51,0,0,0,.49.33,1.56,1.56,0,0,0,.57.11,1.5,1.5,0,0,0,1.06-.44,1.63,1.63,0,0,0,.33-.49,1.56,1.56,0,0,0,.11-.57,1.36,1.36,0,0,0,0-.29,1.31,1.31,0,0,0-.09-.28,1.26,1.26,0,0,0-.13-.26,1.45,1.45,0,0,0-.19-.23,1.5,1.5,0,0,0-1.35-.41l-.28.08a1.59,1.59,0,0,0-.26.14,1.45,1.45,0,0,0-.23.19A1.52,1.52,0,0,0,102.5,80a1.56,1.56,0,0,0,.11.57A1.63,1.63,0,0,0,102.94,81.06Z"/><path class="cls-2" d="M22.94,81.06a1.51,1.51,0,0,0,.49.33,1.56,1.56,0,0,0,.57.11,1.5,1.5,0,0,0,1.06-.44,1.63,1.63,0,0,0,.33-.49A1.56,1.56,0,0,0,25.5,80a1.36,1.36,0,0,0,0-.29,1.31,1.31,0,0,0-.09-.28,1.26,1.26,0,0,0-.13-.26,1.45,1.45,0,0,0-.19-.23,1.5,1.5,0,0,0-1.35-.41l-.28.08a1.59,1.59,0,0,0-.26.14,1.45,1.45,0,0,0-.23.19A1.52,1.52,0,0,0,22.5,80a1.56,1.56,0,0,0,.11.57A1.63,1.63,0,0,0,22.94,81.06Z"/></g></svg>