<svg xmlns="http://www.w3.org/2000/svg" viewBox="0 0 128 128"><defs><style>.cls-1{fill:none;}.cls-2{fill:#0b0b0b;}</style></defs><g id="OUTLINES_copy_2" data-name="OUTLINES copy 2"><path class="cls-1" d="M93.53,58.25l-8.94,8.94a6.5,6.5,0,0,0,8.94-8.94Z"/><path class="cls-1" d="M101.84,69.33A10.53,10.53,0,0,1,112,61.5a10.32,10.32,0,0,1,3.94.77,13.45,13.45,0,0,0,1.33-3.77H105.55L100.31,69A15.44,15.44,0,0,0,101.84,69.33Z"/><path class="cls-1" d="M100.05,50.5H92a2.54,2.54,0,0,1-1.23-.32C90.4,50,81.5,44.85,81.5,35.5c0-8.81,7.8-13,9.27-13.69l1-.67C89.5,19.47,85.85,18.5,80,18.5c-10.36,0-13.36,3.63-13.5,5.57v0A2.46,2.46,0,0,1,64,26.54,2.54,2.54,0,0,1,61.5,24c-.13-1.85-3.12-5.5-13.5-5.5-5.85,0-9.5,1-11.78,2.64l1,.67c1.47.71,9.27,4.88,9.27,13.69,0,9.35-8.9,14.47-9.27,14.68A2.54,2.54,0,0,1,36,50.5H28l-1.3,5.21L30.82,64a9.48,9.48,0,0,1,2.46-9.1,1.49,1.49,0,0,1,2.12,0l5.77,5.77L49.88,52l-2.94-2.94a1.5,1.5,0,0,1,2.12-2.12L52,49.88l2.5-2.5V40a1.5,1.5,0,0,1,3,0v8a1.5,1.5,0,0,1-.44,1.06L54.12,52l2.94,2.94a1.49,1.49,0,0,1,0,2.12,1.5,1.5,0,0,1-2.12,0L52,54.12l-8.71,8.71,2.64,2.64.65-1.94a.08.08,0,0,1,0-.05l.06-.15a.83.83,0,0,0,.07-.13,1,1,0,0,0,.08-.11l.1-.12.09-.08.13-.11.11-.06.14-.08.11,0,.17-.05.11,0,.18,0h.29l.15,0,.08,0,.05,0,.15.07.12.06.12.09.12.09.09.1a.94.94,0,0,1,.09.12.5.5,0,0,1,.08.12l.07.12,0,.14a.57.57,0,0,1,0,.14l0,.14a.76.76,0,0,1,0,.15.13.13,0,0,1,0,.06V93.5h29V64a.13.13,0,0,1,0-.06.76.76,0,0,1,0-.15l0-.14a.57.57,0,0,1,0-.14l0-.14.07-.12a.5.5,0,0,1,.08-.12.94.94,0,0,1,.09-.12l.09-.1.12-.1.12-.08.12-.06.15-.07,0,0,.08,0,.15,0h.46l.13,0,.15.05.12,0,.14.07.11.07.12.1.1.09.1.12a.44.44,0,0,0,.08.11.83.83,0,0,0,.07.13l.06.15a.08.08,0,0,1,0,.05l.65,1.94L92.6,54.94a1.49,1.49,0,0,1,2.12,0A9.48,9.48,0,0,1,97.18,64l4.17-8.33Z"/><path class="cls-1" d="M106.5,10.68V16a2.5,2.5,0,0,1-1.11,2.08l-12,8a2.93,2.93,0,0,1-.39.21c-.25.12-6.5,3-6.5,9.21,0,5.35,4.65,8.94,6.22,10H104a17.5,17.5,0,0,0,2.5-34.82Zm6.56,22.38a1.5,1.5,0,0,1-2.12,0l-1.2-1.19-4.4,8.8a1.49,1.49,0,0,1-1.34.83,1.44,1.44,0,0,1-.67-.16,1.5,1.5,0,0,1-.67-2l4.85-9.7-4.57-4.57a1.5,1.5,0,0,1,2.12-2.12l3.86,3.86,1.74-3.47a1.5,1.5,0,1,1,2.68,1.34L111.16,29l1.9,1.9A1.49,1.49,0,0,1,113.06,33.06Z"/><path class="cls-1" d="M35.28,45.5c1.56-1,6.22-4.65,6.22-10,0-6.22-6.25-9.09-6.51-9.21a2.82,2.82,0,0,1-.38-.21l-12-8A2.5,2.5,0,0,1,21.5,16V10.68A17.5,17.5,0,0,0,24,45.5Z"/><polygon class="cls-1" points="81.5 73.24 81.5 93.5 82.45 93.5 85.93 86.54 81.5 73.24"/><path class="cls-1" d="M47,117.5H81l7.39-19H39.65Zm19.9-6.56,8-8a1.5,1.5,0,0,1,2.12,2.12l-8,8a1.5,1.5,0,0,1-2.12,0A1.49,1.49,0,0,1,66.94,110.94Zm-16-8a1.49,1.49,0,0,1,2.12,0l8,8a1.49,1.49,0,0,1,0,2.12,1.5,1.5,0,0,1-2.12,0l-8-8A1.49,1.49,0,0,1,50.94,102.94Z"/><polygon class="cls-1" points="46.5 93.5 46.5 73.24 42.07 86.54 45.55 93.5 46.5 93.5"/><path class="cls-1" d="M32.6,67.61l.56,1.11.24-.24-.12-.11A8.19,8.19,0,0,1,32.6,67.61Z"/><path class="cls-1" d="M10.73,58.5A13.53,13.53,0,0,0,24,69.5,13.21,13.21,0,0,0,27.69,69L22.45,58.5Z"/><path class="cls-1" d="M44.39,70.08A9.55,9.55,0,0,1,40,71.15a9.66,9.66,0,0,1-4.1-.93l-1.33,1.33,5.6,11.2Z"/><path class="cls-1" d="M88,71.15a9.55,9.55,0,0,1-4.39-1.07l4.22,12.67L95.4,67.61a8.19,8.19,0,0,1-.68.76A9.45,9.45,0,0,1,88,71.15Z"/><path class="cls-2" d="M126.5,28A22.52,22.52,0,0,0,104,5.5,2.5,2.5,0,0,0,101.5,8v6.66l-5.36,3.57c-3-2.9-8-4.73-16.14-4.73-9,0-13.63,2.44-16,5-2.37-2.53-7-5-16-5-8.18,0-13.15,1.83-16.14,4.73L26.5,14.66V8A2.5,2.5,0,0,0,24,5.5a22.5,22.5,0,0,0-1.19,45l-.76,3H8A2.5,2.5,0,0,0,5.5,56,18.46,18.46,0,0,0,30,73.5l10,20H36a2.51,2.51,0,0,0-2.33,3.41l9.33,24a2.51,2.51,0,0,0,2.33,1.59H82.67A2.51,2.51,0,0,0,85,120.91l9.33-24A2.51,2.51,0,0,0,92,93.5h-4l10-20a18.34,18.34,0,0,0,6,1,2.5,2.5,0,0,0,2.5-2.5,5.51,5.51,0,0,1,5.5-5.5,5.42,5.42,0,0,1,3.28,1.1,2.51,2.51,0,0,0,3.5-.5A18.38,18.38,0,0,0,122.5,56a2.5,2.5,0,0,0-2.5-2.5H106l-.76-3A22.53,22.53,0,0,0,126.5,28ZM6.5,28a17.52,17.52,0,0,1,15-17.32V16a2.5,2.5,0,0,0,1.11,2.08l12,8a2.82,2.82,0,0,0,.38.21c.26.12,6.51,3,6.51,9.21,0,5.35-4.66,9-6.22,10H24A17.52,17.52,0,0,1,6.5,28ZM24,69.5a13.53,13.53,0,0,1-13.27-11H22.45L27.69,69A13.21,13.21,0,0,1,24,69.5Zm9.16-.78-.56-1.11a8.19,8.19,0,0,0,.68.76l.12.11Zm1.41,2.83,1.33-1.33a9.66,9.66,0,0,0,4.1.93,9.55,9.55,0,0,0,4.39-1.07L40.17,82.75ZM46.5,73.24V93.5h-1l-3.47-7ZM88.35,98.5,81,117.5H47l-7.39-19Zm-6.85-5V73.24l4.43,13.3-3.47,7Zm6.33-10.75L83.61,70.08A9.55,9.55,0,0,0,88,71.15a9.45,9.45,0,0,0,6.72-2.78,8.19,8.19,0,0,0,.68-.76ZM84.59,67.19l8.94-8.94a6.5,6.5,0,0,1-8.94,8.94ZM97.18,64a9.48,9.48,0,0,0-2.46-9.1,1.49,1.49,0,0,0-2.12,0L82.07,65.47l-.65-1.94a.08.08,0,0,0,0-.05l-.06-.15a.83.83,0,0,1-.07-.13.44.44,0,0,1-.08-.11l-.1-.12-.1-.09-.12-.1-.11-.07-.14-.07-.12,0-.15-.05-.13,0h-.46l-.15,0-.08,0,0,0-.15.07-.12.06-.12.08-.12.1-.09.1a.94.94,0,0,0-.09.12.5.5,0,0,0-.08.12l-.07.12,0,.14a.57.57,0,0,0,0,.14l0,.14a.76.76,0,0,0,0,.15.13.13,0,0,0,0,.06V93.5h-29V64a.13.13,0,0,0,0-.06.76.76,0,0,0,0-.15l0-.14a.57.57,0,0,0,0-.14l0-.14-.07-.12a.5.5,0,0,0-.08-.12.94.94,0,0,0-.09-.12l-.09-.1-.12-.09-.12-.09-.12-.06-.15-.07-.05,0-.08,0-.15,0H48l-.18,0-.11,0-.17.05-.11,0-.14.08-.11.06-.13.11-.09.08-.1.12a1,1,0,0,1-.08.11.83.83,0,0,1-.07.13l-.06.15a.08.08,0,0,0,0,.05l-.65,1.94-2.64-2.64L52,54.12l2.94,2.94a1.5,1.5,0,0,0,2.12,0,1.49,1.49,0,0,0,0-2.12L54.12,52l2.94-2.94A1.5,1.5,0,0,0,57.5,48V40a1.5,1.5,0,0,0-3,0v7.38L52,49.88l-2.94-2.94a1.5,1.5,0,0,0-2.12,2.12L49.88,52l-8.71,8.71L35.4,54.94a1.49,1.49,0,0,0-2.12,0A9.48,9.48,0,0,0,30.82,64l-4.17-8.33L28,50.5H36a2.54,2.54,0,0,0,1.23-.32C37.6,50,46.5,44.85,46.5,35.5c0-8.81-7.8-13-9.27-13.69l-1-.67C38.5,19.47,42.15,18.5,48,18.5c10.38,0,13.37,3.65,13.5,5.5A2.54,2.54,0,0,0,64,26.54a2.46,2.46,0,0,0,2.5-2.45v0c.14-1.94,3.14-5.57,13.5-5.57,5.85,0,9.5,1,11.78,2.64l-1,.67c-1.47.71-9.27,4.88-9.27,13.69,0,9.35,8.9,14.47,9.27,14.68A2.54,2.54,0,0,0,92,50.5h8l1.3,5.21Zm8.37-5.54h11.72a13.45,13.45,0,0,1-1.33,3.77A10.32,10.32,0,0,0,112,61.5a10.53,10.53,0,0,0-10.16,7.83,15.44,15.44,0,0,1-1.53-.35ZM104,45.5H92.72c-1.57-1.06-6.22-4.65-6.22-10,0-6.22,6.25-9.09,6.5-9.21a2.93,2.93,0,0,0,.39-.21l12-8A2.5,2.5,0,0,0,106.5,16V10.68A17.5,17.5,0,0,1,104,45.5Z"/><path class="cls-2" d="M68,113.5a1.51,1.51,0,0,0,1.06-.44l8-8a1.5,1.5,0,0,0-2.12-2.12l-8,8a1.49,1.49,0,0,0,0,2.12A1.51,1.51,0,0,0,68,113.5Z"/><path class="cls-2" d="M58.94,113.06a1.5,1.5,0,0,0,2.12,0,1.49,1.49,0,0,0,0-2.12l-8-8a1.5,1.5,0,0,0-2.12,2.12Z"/><path class="cls-2" d="M111.16,29l2.18-4.37a1.5,1.5,0,1,0-2.68-1.34l-1.74,3.47-3.86-3.86a1.5,1.5,0,0,0-2.12,2.12l4.57,4.57-4.85,9.7a1.5,1.5,0,0,0,.67,2,1.44,1.44,0,0,0,.67.16,1.49,1.49,0,0,0,1.34-.83l4.4-8.8,1.2,1.19a1.5,1.5,0,0,0,2.12,0,1.49,1.49,0,0,0,0-2.12Z"/></g></svg>