<svg xmlns="http://www.w3.org/2000/svg" viewBox="0 0 128 128"><defs><style>.cls-1{fill:none;}.cls-2{fill:#0b0b0b;}</style></defs><g id="OUTLINES_copy_2" data-name="OUTLINES copy 2"><path class="cls-1" d="M98.5,84l11-5.5v-12a74.35,74.35,0,0,1-11-1.38Z"/><path class="cls-1" d="M66.5,18.51V32c0,21.09,27.44,28.68,43,29.44C108.43,20.71,82.48,18.61,66.5,18.51Z"/><path class="cls-1" d="M64,43.37c-5.17,11-17.59,17.32-29.5,20.51V70.5h4.12A9.5,9.5,0,0,1,57.5,72a1.5,1.5,0,0,1-3,0,6.5,6.5,0,0,0-13,0A1.5,1.5,0,0,1,40,73.5H34.5V87L57,109.5H71L93.5,87V73.5H88A1.5,1.5,0,0,1,86.5,72a6.5,6.5,0,0,0-13,0,1.5,1.5,0,0,1-3,0,9.5,9.5,0,0,1,18.88-1.5H93.5V63.88C81.59,60.69,69.17,54.32,64,43.37ZM68,97.5H56a1.5,1.5,0,0,1,0-3H68a1.5,1.5,0,0,1,0,3Zm5.34-10.17A1.49,1.49,0,0,1,72,89.5H64a1.5,1.5,0,0,1,0-3h5.57L62.66,72.67a1.5,1.5,0,0,1,2.68-1.34Z"/><path class="cls-1" d="M61.5,32V18.51c-16,.1-41.93,2.2-43,42.93C34.06,60.68,61.5,53.09,61.5,32Z"/><path class="cls-1" d="M18.5,78.46l11,5.5V65.05a74.35,74.35,0,0,1-11,1.38Z"/><path class="cls-2" d="M63.33,70.66a1.5,1.5,0,0,0-.67,2L69.57,86.5H64a1.5,1.5,0,0,0,0,3h8a1.49,1.49,0,0,0,1.34-2.17l-8-16A1.5,1.5,0,0,0,63.33,70.66Z"/><path class="cls-2" d="M68,94.5H56a1.5,1.5,0,0,0,0,3H68a1.5,1.5,0,0,0,0-3Z"/><path class="cls-2" d="M95.29,19.86C84.69,13.5,72.24,13.5,64,13.5s-20.69,0-31.29,6.36C20,27.51,13.5,42.36,13.5,64V80a2.52,2.52,0,0,0,1.38,2.24l15.64,7.82,23.71,23.71a2.51,2.51,0,0,0,1.77.73H72a2.51,2.51,0,0,0,1.77-.73L97.48,90.06l15.64-7.82A2.52,2.52,0,0,0,114.5,80V64C114.5,42.36,108,27.51,95.29,19.86ZM29.5,84l-11-5.5v-12a74.35,74.35,0,0,0,11-1.38Zm-11-22.52c1-40.73,27-42.83,43-42.93V32C61.5,53.09,34.06,60.68,18.53,61.44ZM93.5,64v6.5H89.38A9.5,9.5,0,0,0,70.5,72a1.5,1.5,0,0,0,3,0,6.5,6.5,0,0,1,13,0A1.5,1.5,0,0,0,88,73.5h5.5V87L71,109.5H57L34.5,87V73.5H40A1.5,1.5,0,0,0,41.5,72a6.5,6.5,0,0,1,13,0,1.5,1.5,0,0,0,3,0,9.5,9.5,0,0,0-18.88-1.5H34.5V63.88C46.41,60.69,58.83,54.32,64,43.37c5.17,11,17.59,17.32,29.5,20.51Zm16,14.46L98.5,84V65.05a74.35,74.35,0,0,0,11,1.38ZM66.5,32V18.51c16,.1,41.93,2.2,43,42.93C93.94,60.68,66.5,53.09,66.5,32Z"/></g></svg>