<svg xmlns="http://www.w3.org/2000/svg" viewBox="0 0 128 128"><defs><style>.cls-1{fill:none;}.cls-2{fill:#0b0b0b;}</style></defs><g id="OUTLINES_copy_2" data-name="OUTLINES copy 2"><path class="cls-1" d="M29.5,79.62l-6.56-6.56a1.5,1.5,0,0,1,2.12-2.12l4.44,4.44V66.06c-2.89-.88-7.83-3.5-12.94-11.27-1.76,5.27-3.81,14.08-1.11,21.29a16.44,16.44,0,0,0,9.08,9.43h5V79.62Z"/><path class="cls-1" d="M57.46,63.64,61.17,78.5h5.66l3.71-14.86a1.51,1.51,0,0,1,1-1.06l22-7.33a113.93,113.93,0,0,0-.74-13.62C84.9,42.13,65.5,44.52,65.5,56a1.5,1.5,0,0,1-3,0c0-11.48-19.4-13.87-27.25-14.37a113.93,113.93,0,0,0-.74,13.62l22,7.33A1.51,1.51,0,0,1,57.46,63.64Z"/><path class="cls-1" d="M98.5,66.08v9.3l4.44-4.44a1.5,1.5,0,0,1,2.12,2.12L98.5,79.62v5.92l5,.08a16.06,16.06,0,0,0,9.34-9c3-7.2,1-16.27-.71-21.58C106.55,62.67,101.44,65.22,98.5,66.08Z"/><path class="cls-1" d="M80,73.5a1.59,1.59,0,0,1-.43-.06,1.51,1.51,0,0,1-1-1.14l-1.66-8a1.93,1.93,0,0,1,0-.34l-3.6,1.2-3.8,15.2A1.51,1.51,0,0,1,68,81.5H60a1.51,1.51,0,0,1-1.46-1.14l-3.8-15.2L51.14,64a1.93,1.93,0,0,1,0,.34l-1.66,8a1.51,1.51,0,0,1-1,1.14,1.59,1.59,0,0,1-.43.06,1.47,1.47,0,0,1-1.06-.44L34.5,60.62V87L57,109.5H71L93.5,87V60.62L81.06,73.06A1.47,1.47,0,0,1,80,73.5Zm1.39,14a1.43,1.43,0,0,1,0,1.1v0a1.63,1.63,0,0,1-.33.49l-8,8A1.49,1.49,0,0,1,72,97.5a1.6,1.6,0,0,1-.57-.11A1.51,1.51,0,0,1,70.5,96V89.5h-13V96a1.5,1.5,0,0,1-2.56,1.06l-8-8a1.63,1.63,0,0,1-.33-.49v0a1.43,1.43,0,0,1,0-1.1v0a1.57,1.57,0,0,1,.82-.82h0A1.46,1.46,0,0,1,48,86.5H80a1.46,1.46,0,0,1,.55.11h0a1.57,1.57,0,0,1,.82.82Z"/><path class="cls-2" d="M113,47.13a2.48,2.48,0,0,0-2.29,1.18,45.35,45.35,0,0,1-5.2,7C105.18,28.34,86.69,6.5,64,6.5c-22.47,0-40.81,21.42-41.47,48a44.07,44.07,0,0,1-4.22-6.61,2.51,2.51,0,0,0-2.21-1.33h-.05A2.52,2.52,0,0,0,13.84,48c-.32.68-7.93,16.78-3.09,29.79A21.64,21.64,0,0,0,23,90.3a2.49,2.49,0,0,0,1,.21h7l23.26,23.27a2.51,2.51,0,0,0,1.77.73H72a2.51,2.51,0,0,0,1.77-.73L97,90.52l6.94.11h0a2.29,2.29,0,0,0,.9-.17c6.11-2.36,10.35-6.38,12.62-11.94,5.23-12.82-2.11-29.24-2.42-29.93A2.49,2.49,0,0,0,113,47.13ZM24.53,85.51a16.44,16.44,0,0,1-9.08-9.43c-2.7-7.21-.65-16,1.11-21.29,5.11,7.77,10.05,10.39,12.94,11.27v9.32l-4.44-4.44a1.5,1.5,0,0,0-2.12,2.12l6.56,6.56V85.5ZM35.25,41.63C43.1,42.13,62.5,44.52,62.5,56a1.5,1.5,0,0,0,3,0c0-11.48,19.4-13.87,27.25-14.37a113.93,113.93,0,0,1,.74,13.62l-22,7.33a1.51,1.51,0,0,0-1,1.06L66.83,78.5H61.17L57.46,63.64a1.51,1.51,0,0,0-1-1.06l-22-7.33A113.93,113.93,0,0,1,35.25,41.63ZM93.5,87,71,109.5H57L34.5,87V60.62L46.94,73.06A1.47,1.47,0,0,0,48,73.5a1.59,1.59,0,0,0,.43-.06,1.51,1.51,0,0,0,1-1.14l1.66-8a1.93,1.93,0,0,0,0-.34l3.6,1.2,3.8,15.2A1.51,1.51,0,0,0,60,81.5h8a1.51,1.51,0,0,0,1.46-1.14l3.8-15.2,3.6-1.2a1.93,1.93,0,0,0,0,.34l1.66,8a1.51,1.51,0,0,0,1,1.14,1.59,1.59,0,0,0,.43.06,1.47,1.47,0,0,0,1.06-.44L93.5,60.62Zm19.38-10.31a16.06,16.06,0,0,1-9.34,9l-5-.08V79.62l6.56-6.56a1.5,1.5,0,0,0-2.12-2.12L98.5,75.38v-9.3c2.94-.86,8-3.41,13.67-11C113.84,60.38,115.83,69.45,112.88,76.65Z"/><path class="cls-2" d="M80.57,86.61h0A1.46,1.46,0,0,0,80,86.5H48a1.46,1.46,0,0,0-.55.11h0a1.57,1.57,0,0,0-.82.82v0a1.43,1.43,0,0,0,0,1.1v0a1.63,1.63,0,0,0,.33.49l8,8A1.5,1.5,0,0,0,57.5,96V89.5h13V96a1.51,1.51,0,0,0,.93,1.39,1.6,1.6,0,0,0,.57.11,1.49,1.49,0,0,0,1.06-.44l8-8a1.63,1.63,0,0,0,.33-.49v0a1.43,1.43,0,0,0,0-1.1v0A1.57,1.57,0,0,0,80.57,86.61Z"/></g></svg>