<svg xmlns="http://www.w3.org/2000/svg" viewBox="0 0 128 128"><defs><style>.cls-1{fill:none;}.cls-2{fill:#0b0b0b;}</style></defs><g id="OUTLINES_copy_2" data-name="OUTLINES copy 2"><polygon class="cls-1" points="30.96 26.5 25.5 26.5 25.5 44.38 37.17 32.71 30.96 26.5"/><polygon class="cls-1" points="22.5 45.57 22.5 29.04 11.47 40.06 22.5 45.57"/><path class="cls-1" d="M10.5,63l5.5,5.5L20.46,64l-6.23-6.23a2.52,2.52,0,0,1,0-3.54l6.3-6.29-10-5Z"/><path class="cls-1" d="M113.77,54.23a2.52,2.52,0,0,1,0,3.54L107.54,64,112,68.46l5.5-5.5v-20l-10,5Z"/><path class="cls-1" d="M88,78.5a6.52,6.52,0,0,0,6.33-5H81.67A6.52,6.52,0,0,0,88,78.5Z"/><path class="cls-1" d="M78.5,72a1.33,1.33,0,0,1,.15-.63l-6.18,2a1.5,1.5,0,0,1-.47.08,1.56,1.56,0,0,1-.88-.28A1.52,1.52,0,0,1,70.5,72V64a1.5,1.5,0,0,1,3,0v5.92l20-6.67V57L79,42.5H49L34.5,57v6.21l20,6.67V64a1.5,1.5,0,0,1,3,0v8a1.52,1.52,0,0,1-.62,1.22,1.56,1.56,0,0,1-.88.28,1.5,1.5,0,0,1-.47-.08l-6.18-2a1.33,1.33,0,0,1,.15.63,9.52,9.52,0,0,1-7,9.16V95L50,102.5H62.5V96.62l-7.56-7.56A1.5,1.5,0,0,1,54.5,88V80A1.5,1.5,0,0,1,56,78.5H72A1.5,1.5,0,0,1,73.5,80v8a1.5,1.5,0,0,1-.44,1.06L65.5,96.62v5.88H78L85.5,95V81.16A9.52,9.52,0,0,1,78.5,72Zm-13,0a1.5,1.5,0,0,1-3,0V64a1.5,1.5,0,0,1,3,0Z"/><polygon class="cls-1" points="93.5 66.41 81.24 70.5 93.5 70.5 93.5 66.41"/><rect class="cls-1" x="88.7" y="34.83" width="7.31" height="17.63" transform="translate(-3.81 78.09) rotate(-45)"/><polygon class="cls-1" points="105.5 29.04 105.5 45.57 116.53 40.06 105.5 29.04"/><polygon class="cls-1" points="90.83 32.71 102.5 44.38 102.5 26.5 97.03 26.5 90.83 32.71"/><polygon class="cls-1" points="53.03 105.5 57.03 109.5 70.97 109.5 74.97 105.5 64 105.5 53.03 105.5"/><path class="cls-1" d="M46.33,73.5H33.67a6.51,6.51,0,0,0,12.66,0Z"/><polygon class="cls-1" points="34.5 66.41 34.5 70.5 46.76 70.5 34.5 66.41"/><rect class="cls-1" x="26.83" y="39.99" width="17.63" height="7.31" transform="translate(-20.42 37.99) rotate(-45)"/><polygon class="cls-1" points="70.5 81.5 57.5 81.5 57.5 87.38 64 93.88 70.5 87.38 70.5 81.5"/><path class="cls-2" d="M105.77,22.23A2.51,2.51,0,0,0,104,21.5H96a2.51,2.51,0,0,0-1.77.73L79,37.5H49L33.77,22.23A2.51,2.51,0,0,0,32,21.5H24a2.51,2.51,0,0,0-1.77.73l-16,16A2.51,2.51,0,0,0,5.5,40V64a2.51,2.51,0,0,0,.73,1.77l8,8a2.51,2.51,0,0,0,3.54,0l8-8a2.52,2.52,0,0,0,0-3.54L19.54,56,24,51.54,29.5,57V72a2.51,2.51,0,0,0,.73,1.77l.57.57a9.54,9.54,0,0,0,6.7,6.82V96a2.51,2.51,0,0,0,.73,1.77l16,16a2.51,2.51,0,0,0,1.77.73H72a2.51,2.51,0,0,0,1.77-.73l16-16A2.51,2.51,0,0,0,90.5,96V81.16a9.54,9.54,0,0,0,6.7-6.82l.57-.57A2.51,2.51,0,0,0,98.5,72V57l5.5-5.5L108.46,56l-6.23,6.23a2.52,2.52,0,0,0,0,3.54l8,8a2.51,2.51,0,0,0,3.54,0l8-8A2.51,2.51,0,0,0,122.5,64V40a2.51,2.51,0,0,0-.73-1.77Zm-91.54,32a2.52,2.52,0,0,0,0,3.54L20.46,64,16,68.46,10.5,63v-20l10,5Zm8.27-8.66-11-5.51,11-11Zm3-19.07H31l6.21,6.21L25.5,44.38Zm6.5,26-5.17-5.17L39.29,34.83,44.46,40Zm2.5,13.95L46.76,70.5H34.5Zm-.83,7.09H46.33a6.51,6.51,0,0,1-12.66,0ZM71,109.5H57l-4-4H75ZM57.5,87.38V81.5h13v5.88L64,93.88ZM85.5,95,78,102.5H65.5V96.62l7.56-7.56A1.5,1.5,0,0,0,73.5,88V80A1.5,1.5,0,0,0,72,78.5H56A1.5,1.5,0,0,0,54.5,80v8a1.5,1.5,0,0,0,.44,1.06l7.56,7.56v5.88H50L42.5,95V81.16a9.52,9.52,0,0,0,7-9.16,1.33,1.33,0,0,0-.15-.63l6.18,2a1.5,1.5,0,0,0,.47.08,1.56,1.56,0,0,0,.88-.28A1.52,1.52,0,0,0,57.5,72V64a1.5,1.5,0,0,0-3,0v5.92l-20-6.67V57L49,42.5H79L93.5,57v6.21l-20,6.67V64a1.5,1.5,0,0,0-3,0v8a1.52,1.52,0,0,0,.62,1.22,1.56,1.56,0,0,0,.88.28,1.5,1.5,0,0,0,.47-.08l6.18-2a1.33,1.33,0,0,0-.15.63,9.52,9.52,0,0,0,7,9.16Zm8-28.55V70.5H81.24ZM88,78.5a6.52,6.52,0,0,1-6.33-5H94.33A6.52,6.52,0,0,1,88,78.5Zm8-26L83.54,40l5.17-5.17,12.46,12.46Zm6.5-8.08L90.83,32.71,97,26.5h5.46Zm3-15.34,11,11-11,5.51ZM117.5,63l-5.5,5.5L107.54,64l6.23-6.23a2.52,2.52,0,0,0,0-3.54l-6.3-6.29,10-5Z"/><path class="cls-2" d="M64,62.5A1.5,1.5,0,0,0,62.5,64v8a1.5,1.5,0,0,0,3,0V64A1.5,1.5,0,0,0,64,62.5Z"/></g></svg>