<svg xmlns="http://www.w3.org/2000/svg" viewBox="0 0 128 128"><defs><style>.cls-1{fill:none;}.cls-2{fill:#0b0b0b;}</style></defs><g id="OUTLINES_copy_2" data-name="OUTLINES copy 2"><path class="cls-1" d="M93.5,48c0-26.63-20.63-29.5-29.5-29.5S34.5,21.37,34.5,48V79l7.27,7.26a2.55,2.55,0,0,1,.6,1L49.8,109.5H78.2l7.43-22.29a2.55,2.55,0,0,1,.6-1L93.5,79Zm-31-8.29a2.29,2.29,0,0,1,.08-.28,2.15,2.15,0,0,1,.14-.26,1.57,1.57,0,0,1,.42-.42,1.05,1.05,0,0,1,.26-.13,1.31,1.31,0,0,1,.28-.09,1.42,1.42,0,0,1,.58,0,1.31,1.31,0,0,1,.28.09,1.26,1.26,0,0,1,.26.13,2.11,2.11,0,0,1,.23.19,1.45,1.45,0,0,1,.19.23,2.15,2.15,0,0,1,.14.26,2.29,2.29,0,0,1,.08.28,1.36,1.36,0,0,1,0,.29,1.52,1.52,0,0,1-.93,1.39,1.56,1.56,0,0,1-.57.11,1.66,1.66,0,0,1-.58-.11,1.58,1.58,0,0,1-.48-.33A1.47,1.47,0,0,1,62.5,40,1.36,1.36,0,0,1,62.53,39.71Zm0,8a2.29,2.29,0,0,1,.08-.28,2.15,2.15,0,0,1,.14-.26,2.11,2.11,0,0,1,.19-.23,1.45,1.45,0,0,1,.23-.19,1.59,1.59,0,0,1,.26-.14l.28-.08a1.42,1.42,0,0,1,.58,0l.28.08.26.14a1.57,1.57,0,0,1,.42.42,2.15,2.15,0,0,1,.14.26,2.29,2.29,0,0,1,.08.28,1.36,1.36,0,0,1,0,.29,1.52,1.52,0,0,1-.93,1.39,1.56,1.56,0,0,1-.57.11,1.66,1.66,0,0,1-.58-.11,1.58,1.58,0,0,1-.48-.33A1.47,1.47,0,0,1,62.5,48,1.36,1.36,0,0,1,62.53,47.71Zm0,8.29a1.5,1.5,0,0,1,3,0v8a1.5,1.5,0,0,1-3,0ZM48,73.5a1.5,1.5,0,0,1,0-3,6.51,6.51,0,0,0,6.32-5H40a1.5,1.5,0,0,1,0-3H56A1.5,1.5,0,0,1,57.5,64,9.51,9.51,0,0,1,48,73.5Zm24,24H56a1.5,1.5,0,0,1,0-3H72a1.5,1.5,0,0,1,0,3Zm0-8H64A1.5,1.5,0,0,1,62.5,88V80a1.5,1.5,0,0,1,3,0v6.5H72a1.5,1.5,0,0,1,0,3Zm16-24H73.68a6.51,6.51,0,0,0,6.32,5,1.5,1.5,0,0,1,0,3A9.51,9.51,0,0,1,70.5,64,1.5,1.5,0,0,1,72,62.5H88a1.5,1.5,0,0,1,0,3Z"/><path class="cls-1" d="M98.5,80a2.49,2.49,0,0,1-.73,1.77l-7.59,7.58L88.8,93.5H96a5.51,5.51,0,0,0,5.5-5.5V72a1.5,1.5,0,0,0-1.5-1.5H98.5Z"/><path class="cls-1" d="M30.23,81.77A2.49,2.49,0,0,1,29.5,80V70.5H28A1.5,1.5,0,0,0,26.5,72V88A5.51,5.51,0,0,0,32,93.5h7.2l-1.38-4.15Z"/><path class="cls-2" d="M64,13.5C42.4,13.5,29.5,26.4,29.5,48V65.5H28A6.51,6.51,0,0,0,21.5,72V88A10.51,10.51,0,0,0,32,98.5h8.86l4.77,14.29A2.5,2.5,0,0,0,48,114.5H80a2.5,2.5,0,0,0,2.37-1.71L87.14,98.5H96A10.51,10.51,0,0,0,106.5,88V72a6.51,6.51,0,0,0-6.5-6.5H98.5V48C98.5,26.4,85.6,13.5,64,13.5Zm-32,80A5.51,5.51,0,0,1,26.5,88V72A1.5,1.5,0,0,1,28,70.5h1.5V80a2.49,2.49,0,0,0,.73,1.77l7.59,7.58L39.2,93.5Zm54.23-7.27a2.55,2.55,0,0,0-.6,1L78.2,109.5H49.8L42.37,87.21a2.55,2.55,0,0,0-.6-1L34.5,79V48c0-26.63,20.63-29.5,29.5-29.5S93.5,21.37,93.5,48V79ZM100,70.5a1.5,1.5,0,0,1,1.5,1.5V88A5.51,5.51,0,0,1,96,93.5H88.8l1.38-4.15,7.59-7.58A2.49,2.49,0,0,0,98.5,80V70.5Z"/><path class="cls-2" d="M63.42,49.39a1.66,1.66,0,0,0,.58.11,1.56,1.56,0,0,0,.57-.11A1.52,1.52,0,0,0,65.5,48a1.36,1.36,0,0,0,0-.29,2.29,2.29,0,0,0-.08-.28,2.15,2.15,0,0,0-.14-.26,1.57,1.57,0,0,0-.42-.42l-.26-.14-.28-.08a1.42,1.42,0,0,0-.58,0l-.28.08a1.59,1.59,0,0,0-.26.14,1.45,1.45,0,0,0-.23.19,2.11,2.11,0,0,0-.19.23,2.15,2.15,0,0,0-.14.26,2.29,2.29,0,0,0-.08.28,1.36,1.36,0,0,0,0,.29,1.47,1.47,0,0,0,.44,1.06A1.58,1.58,0,0,0,63.42,49.39Z"/><path class="cls-2" d="M63.42,41.39a1.66,1.66,0,0,0,.58.11,1.56,1.56,0,0,0,.57-.11A1.52,1.52,0,0,0,65.5,40a1.36,1.36,0,0,0,0-.29,2.29,2.29,0,0,0-.08-.28,2.15,2.15,0,0,0-.14-.26,1.45,1.45,0,0,0-.19-.23,2.11,2.11,0,0,0-.23-.19,1.26,1.26,0,0,0-.26-.13,1.31,1.31,0,0,0-.28-.09,1.42,1.42,0,0,0-.58,0,1.31,1.31,0,0,0-.28.09,1.05,1.05,0,0,0-.26.13,1.57,1.57,0,0,0-.42.42,2.15,2.15,0,0,0-.14.26,2.29,2.29,0,0,0-.08.28,1.36,1.36,0,0,0,0,.29,1.47,1.47,0,0,0,.44,1.06A1.58,1.58,0,0,0,63.42,41.39Z"/><path class="cls-2" d="M72,94.5H56a1.5,1.5,0,0,0,0,3H72a1.5,1.5,0,0,0,0-3Z"/><path class="cls-2" d="M57.5,64A1.5,1.5,0,0,0,56,62.5H40a1.5,1.5,0,0,0,0,3H54.32a6.51,6.51,0,0,1-6.32,5,1.5,1.5,0,0,0,0,3A9.51,9.51,0,0,0,57.5,64Z"/><path class="cls-2" d="M88,62.5H72A1.5,1.5,0,0,0,70.5,64,9.51,9.51,0,0,0,80,73.5a1.5,1.5,0,0,0,0-3,6.51,6.51,0,0,1-6.32-5H88a1.5,1.5,0,0,0,0-3Z"/><path class="cls-2" d="M72,86.5H65.5V80a1.5,1.5,0,0,0-3,0v8A1.5,1.5,0,0,0,64,89.5h8a1.5,1.5,0,0,0,0-3Z"/><path class="cls-2" d="M64,65.5A1.5,1.5,0,0,0,65.5,64V56a1.5,1.5,0,0,0-3,0v8A1.5,1.5,0,0,0,64,65.5Z"/></g></svg>