<svg xmlns="http://www.w3.org/2000/svg" viewBox="0 0 128 128"><defs><style>.cls-1{fill:none;}.cls-2{fill:#0b0b0b;}</style></defs><g id="OUTLINES_copy_2" data-name="OUTLINES copy 2"><path class="cls-1" d="M21.5,64V50.5h-11V72a13.4,13.4,0,0,0,2.36,7.61l1.37-1.38a2.5,2.5,0,0,1,3.54,3.54l-1.38,1.37A13.4,13.4,0,0,0,24,85.5h5.5V79.21A18.54,18.54,0,0,1,21.5,64Z"/><path class="cls-1" d="M101.5,24A13.52,13.52,0,0,0,88,10.5H40A13.52,13.52,0,0,0,26.5,24V64A13.55,13.55,0,0,0,33,75.52l7.65,2.07a2.5,2.5,0,1,1-1.3,4.82l-4.85-1.3V103L49,117.5H61.5V112a2.5,2.5,0,0,1,5,0v5.5H79L93.5,103V81.11l-4.85,1.3a2.5,2.5,0,1,1-1.3-4.82L95,75.52A13.55,13.55,0,0,0,101.5,64ZM86.94,102.94a1.45,1.45,0,0,1,.23-.19,1.59,1.59,0,0,1,.26-.14l.28-.08a1.42,1.42,0,0,1,.58,0l.28.08.26.14a2.11,2.11,0,0,1,.23.19A1.5,1.5,0,0,1,89.5,104a1.56,1.56,0,0,1-.11.57,1.54,1.54,0,0,1-.82.82,1.56,1.56,0,0,1-.57.11,1.62,1.62,0,0,1-.58-.11,1.58,1.58,0,0,1-.48-.33,1.51,1.51,0,0,1-.33-.49,1.56,1.56,0,0,1-.11-.57A1.5,1.5,0,0,1,86.94,102.94Zm-16-72L81.88,20l-2.94-2.94a1.5,1.5,0,0,1,2.12-2.12L84,17.88l2.94-2.94a1.5,1.5,0,0,1,2.12,2.12L86.12,20l2.94,2.94a1.49,1.49,0,0,1,0,2.12,1.5,1.5,0,0,1-2.12,0L84,22.12,73.06,33.06a1.5,1.5,0,0,1-2.12,0A1.49,1.49,0,0,1,70.94,30.94ZM41.77,65.77a3.68,3.68,0,0,1-.38.31,3.55,3.55,0,0,1-.43.23,2.79,2.79,0,0,1-.47.14,2.43,2.43,0,0,1-1,0,2.43,2.43,0,0,1-.9-.37,2.43,2.43,0,0,1-.69-.69,2.43,2.43,0,0,1-.37-.9,2.43,2.43,0,0,1,0-1,2.43,2.43,0,0,1,.37-.9,2.43,2.43,0,0,1,.69-.69,2.43,2.43,0,0,1,.9-.37,2.51,2.51,0,0,1,2.26.68,2.51,2.51,0,0,1,0,3.54ZM80,98.5H48a2.5,2.5,0,0,1,0-5H80a2.5,2.5,0,0,1,0,5Zm-9.5-12V80a1.5,1.5,0,0,1,3,0v8A1.5,1.5,0,0,1,72,89.5H56A1.5,1.5,0,0,1,54.5,88V80a1.5,1.5,0,0,1,3,0v6.5ZM88.79,42.37l-6.62,2.21a18.39,18.39,0,0,1-12,20.83l10.49,5.25A1.5,1.5,0,0,1,80,73.5a1.44,1.44,0,0,1-.67-.16L65.49,66.42c-.49,0-1,.08-1.49.08s-1,0-1.49-.08L48.67,73.34a1.5,1.5,0,1,1-1.34-2.68l10.49-5.25a18.39,18.39,0,0,1-12-20.83l-6.62-2.21a2.5,2.5,0,0,1,1.58-4.74L64,45.37l23.21-7.74a2.5,2.5,0,1,1,1.58,4.74Z"/><path class="cls-1" d="M106.5,64a18.54,18.54,0,0,1-8,15.21V85.5H104a13.4,13.4,0,0,0,7.61-2.36l-1.38-1.37a2.5,2.5,0,0,1,3.54-3.54l1.37,1.38A13.4,13.4,0,0,0,117.5,72V50.5h-11Z"/><path class="cls-1" d="M72,48v0a8,8,0,0,1-16,0v0l-5.36-1.79A13.68,13.68,0,0,0,50.5,48a13.5,13.5,0,0,0,27,0,13.68,13.68,0,0,0-.14-1.82Z"/><path class="cls-2" d="M120,45.5H106.5V24A18.52,18.52,0,0,0,88,5.5H40A18.52,18.52,0,0,0,21.5,24V45.5H8A2.5,2.5,0,0,0,5.5,48V72A18.33,18.33,0,0,0,9.29,83.17L6.23,86.23a2.52,2.52,0,0,0,0,3.54,2.51,2.51,0,0,0,3.54,0l3.06-3.06A18.33,18.33,0,0,0,24,90.5h5.5V104a2.51,2.51,0,0,0,.73,1.77l16,16a2.51,2.51,0,0,0,1.77.73H80a2.51,2.51,0,0,0,1.77-.73l16-16A2.51,2.51,0,0,0,98.5,104V90.5H104a18.33,18.33,0,0,0,11.17-3.79l3.06,3.06a2.51,2.51,0,0,0,3.54,0,2.52,2.52,0,0,0,0-3.54l-3.06-3.06A18.33,18.33,0,0,0,122.5,72V48A2.5,2.5,0,0,0,120,45.5Zm-90.5,40H24a13.4,13.4,0,0,1-7.61-2.36l1.38-1.37a2.5,2.5,0,0,0-3.54-3.54l-1.37,1.38A13.4,13.4,0,0,1,10.5,72V50.5h11V64a18.54,18.54,0,0,0,8,15.21Zm65.5-10-7.65,2.07a2.5,2.5,0,1,0,1.3,4.82l4.85-1.3V103L79,117.5H66.5V112a2.5,2.5,0,0,0-5,0v5.5H49L34.5,103V81.11l4.85,1.3a2.5,2.5,0,1,0,1.3-4.82L33,75.52A13.55,13.55,0,0,1,26.5,64V24A13.52,13.52,0,0,1,40,10.5H88A13.52,13.52,0,0,1,101.5,24V64A13.55,13.55,0,0,1,95,75.52ZM117.5,72a13.4,13.4,0,0,1-2.36,7.61l-1.37-1.38a2.5,2.5,0,0,0-3.54,3.54l1.38,1.37A13.4,13.4,0,0,1,104,85.5H98.5V79.21a18.54,18.54,0,0,0,8-15.21V50.5h11Z"/><path class="cls-2" d="M56,78.5A1.5,1.5,0,0,0,54.5,80v8A1.5,1.5,0,0,0,56,89.5H72A1.5,1.5,0,0,0,73.5,88V80a1.5,1.5,0,0,0-3,0v6.5h-13V80A1.5,1.5,0,0,0,56,78.5Z"/><path class="cls-2" d="M80,93.5H48a2.5,2.5,0,0,0,0,5H80a2.5,2.5,0,0,0,0-5Z"/><path class="cls-2" d="M87.21,37.63,64,45.37,40.79,37.63a2.5,2.5,0,0,0-1.58,4.74l6.62,2.21a18.39,18.39,0,0,0,12,20.83L47.33,70.66a1.5,1.5,0,1,0,1.34,2.68l13.84-6.92c.49,0,1,.08,1.49.08s1,0,1.49-.08l13.84,6.92a1.44,1.44,0,0,0,.67.16,1.5,1.5,0,0,0,.67-2.84L70.18,65.41a18.39,18.39,0,0,0,12-20.83l6.62-2.21a2.5,2.5,0,1,0-1.58-4.74ZM64,61.5A13.52,13.52,0,0,1,50.5,48a13.68,13.68,0,0,1,.14-1.82L56,48v0a8,8,0,0,0,16,0v0l5.36-1.79A13.68,13.68,0,0,1,77.5,48,13.52,13.52,0,0,1,64,61.5Z"/><path class="cls-2" d="M39.51,61.55a2.43,2.43,0,0,0-.9.37,2.43,2.43,0,0,0-.69.69,2.43,2.43,0,0,0-.37.9,2.43,2.43,0,0,0,0,1,2.43,2.43,0,0,0,.37.9,2.43,2.43,0,0,0,.69.69,2.43,2.43,0,0,0,.9.37,2.43,2.43,0,0,0,1,0,2.79,2.79,0,0,0,.47-.14,3.55,3.55,0,0,0,.43-.23,3.68,3.68,0,0,0,.38-.31,2.51,2.51,0,0,0,0-3.54A2.51,2.51,0,0,0,39.51,61.55Z"/><path class="cls-2" d="M86.94,105.06a1.58,1.58,0,0,0,.48.33,1.62,1.62,0,0,0,.58.11,1.56,1.56,0,0,0,.57-.11,1.54,1.54,0,0,0,.82-.82,1.56,1.56,0,0,0,.11-.57,1.5,1.5,0,0,0-.44-1.06,2.11,2.11,0,0,0-.23-.19l-.26-.14-.28-.08a1.42,1.42,0,0,0-.58,0l-.28.08a1.59,1.59,0,0,0-.26.14,1.45,1.45,0,0,0-.23.19A1.5,1.5,0,0,0,86.5,104a1.56,1.56,0,0,0,.11.57A1.51,1.51,0,0,0,86.94,105.06Z"/><path class="cls-2" d="M72,33.5a1.51,1.51,0,0,0,1.06-.44L84,22.12l2.94,2.94a1.5,1.5,0,0,0,2.12,0,1.49,1.49,0,0,0,0-2.12L86.12,20l2.94-2.94a1.5,1.5,0,0,0-2.12-2.12L84,17.88l-2.94-2.94a1.5,1.5,0,0,0-2.12,2.12L81.88,20,70.94,30.94a1.49,1.49,0,0,0,0,2.12A1.51,1.51,0,0,0,72,33.5Z"/></g></svg>