<svg xmlns="http://www.w3.org/2000/svg" viewBox="0 0 128 128"><defs><style>.cls-1{fill:none;}.cls-2{fill:#0b0b0b;}</style></defs><g id="OUTLINES_copy_2" data-name="OUTLINES copy 2"><path class="cls-1" d="M109.5,80V68l-11,5.5V85.36C102.69,85,109.5,83.64,109.5,80Z"/><path class="cls-1" d="M80,86.5a6.51,6.51,0,0,0,6.32-5H73.68A6.51,6.51,0,0,0,80,86.5Z"/><path class="cls-1" d="M29.5,85.36V73.54L18.5,68V80C18.5,83.64,25.31,85,29.5,85.36Z"/><path class="cls-1" d="M57.25,117.5h13.5L93.5,87.17V65.25l-6.41-4.81-5.32,5.33a2.51,2.51,0,0,1-3.54,0L72,59.54l-6.23,6.23a2.52,2.52,0,0,1-3.54,0L56,59.54l-6.23,6.23a2.52,2.52,0,0,1-3.54,0l-5.32-5.33L34.5,65.25V87.17ZM70.53,79.7a1.27,1.27,0,0,1,.06-.18.38.38,0,0,1,0-.1,1.51,1.51,0,0,1,.09-.18l0-.07a1.45,1.45,0,0,1,.19-.23l8-8a1.5,1.5,0,0,1,2.12,2.12L75.62,78.5H88A1.5,1.5,0,0,1,89.5,80a9.5,9.5,0,0,1-19,0A1.53,1.53,0,0,1,70.53,79.7Zm-7.87,1a1.5,1.5,0,0,1,2.68-1.34l8,16A1.49,1.49,0,0,1,72,97.5H64a1.5,1.5,0,0,1,0-3h5.57ZM64,102.5a1.5,1.5,0,0,1,0,3H56a1.5,1.5,0,0,1,0-3Zm-24-24H52.38l-5.44-5.44a1.5,1.5,0,0,1,2.12-2.12l8,8a1.45,1.45,0,0,1,.19.23l0,.06a.87.87,0,0,1,.1.19.32.32,0,0,1,0,.09c0,.07.05.13.06.19a1.53,1.53,0,0,1,0,.3,9.5,9.5,0,0,1-19,0A1.5,1.5,0,0,1,40,78.5Z"/><path class="cls-1" d="M48,86.5a6.51,6.51,0,0,0,6.32-5H41.68A6.51,6.51,0,0,0,48,86.5Z"/><path class="cls-2" d="M14.69,61.87A2.5,2.5,0,0,0,13.5,64V80c0,9,12.84,10.28,17.23,10.47L54,121.5a2.49,2.49,0,0,0,2,1H72a2.49,2.49,0,0,0,2-1l23.27-31C101.66,90.28,114.5,89,114.5,80V64a2.5,2.5,0,0,0-3.62-2.24L98.5,68V64.41l7.87-23.62a2.48,2.48,0,0,0-.29-2.18l-16-24A2.5,2.5,0,0,0,88,13.5H73L65.77,6.23a2.52,2.52,0,0,0-3.54,0L55,13.5H40a2.5,2.5,0,0,0-2.08,1.11l-16,24a2.48,2.48,0,0,0-.29,2.18L29.5,64.41V68L17.12,61.76A2.53,2.53,0,0,0,14.69,61.87ZM98.5,73.54l11-5.5V80c0,3.64-6.81,5-11,5.36ZM40.91,60.44l5.32,5.33a2.52,2.52,0,0,0,3.54,0L56,59.54l6.23,6.23a2.52,2.52,0,0,0,3.54,0L72,59.54l6.23,6.23a2.51,2.51,0,0,0,3.54,0l5.32-5.33,6.41,4.81V87.17L70.75,117.5H57.25L34.5,87.17V65.25ZM18.5,68l11,5.5V85.36c-4.19-.39-11-1.72-11-5.36Z"/><path class="cls-2" d="M62.5,96A1.5,1.5,0,0,0,64,97.5h8a1.49,1.49,0,0,0,1.34-2.17l-8-16a1.5,1.5,0,0,0-2.68,1.34L69.57,94.5H64A1.5,1.5,0,0,0,62.5,96Z"/><path class="cls-2" d="M48,89.5A9.51,9.51,0,0,0,57.5,80a1.53,1.53,0,0,0,0-.3c0-.06,0-.12-.06-.19a.32.32,0,0,0,0-.09.87.87,0,0,0-.1-.19l0-.06a1.45,1.45,0,0,0-.19-.23l-8-8a1.5,1.5,0,0,0-2.12,2.12l5.44,5.44H40A1.5,1.5,0,0,0,38.5,80,9.51,9.51,0,0,0,48,89.5Zm6.32-8a6.49,6.49,0,0,1-12.64,0Z"/><path class="cls-2" d="M80,89.5A9.51,9.51,0,0,0,89.5,80,1.5,1.5,0,0,0,88,78.5H75.62l5.44-5.44a1.5,1.5,0,0,0-2.12-2.12l-8,8a1.45,1.45,0,0,0-.19.23l0,.07a1.51,1.51,0,0,0-.09.18.38.38,0,0,0,0,.1,1.27,1.27,0,0,0-.06.18,1.53,1.53,0,0,0,0,.3A9.51,9.51,0,0,0,80,89.5Zm6.32-8a6.49,6.49,0,0,1-12.64,0Z"/><path class="cls-2" d="M54.5,104a1.5,1.5,0,0,0,1.5,1.5h8a1.5,1.5,0,0,0,0-3H56A1.5,1.5,0,0,0,54.5,104Z"/></g></svg>