<svg xmlns="http://www.w3.org/2000/svg" viewBox="0 0 128 128"><defs><style>.cls-1{fill:none;}.cls-2{fill:#0b0b0b;}</style></defs><g id="OUTLINES_copy_2" data-name="OUTLINES copy 2"><path class="cls-1" d="M112.43,25.42l8.69,4.34c.1,0,.18.12.27.17A17.55,17.55,0,0,0,121.5,28,17.33,17.33,0,0,0,119,19.08l-6,6A1.48,1.48,0,0,1,112.43,25.42Z"/><path class="cls-1" d="M35.28,45.5c1.56-1,6.22-4.65,6.22-10s-4.62-8.22-6.08-9H26.5V32a2.5,2.5,0,0,1-5,0V10.68A17.5,17.5,0,0,0,24,45.5Z"/><path class="cls-1" d="M110.94,22.94l6.33-6.33a17.45,17.45,0,0,0-10.77-5.93V22.45l4.1,2.05A1.49,1.49,0,0,1,110.94,22.94Z"/><path class="cls-1" d="M10.73,58.5a13.49,13.49,0,0,0,3.77,7.08V64a1.5,1.5,0,0,1,3,0v3.82A13.46,13.46,0,0,0,24,69.5,13.21,13.21,0,0,0,27.69,69L22.45,58.5Z"/><path class="cls-1" d="M93.53,58.25l-8.94,8.94a6.5,6.5,0,0,0,8.94-8.94Z"/><path class="cls-1" d="M100.05,50.5H92a2.54,2.54,0,0,1-1.23-.32C90.4,50,81.5,44.85,81.5,35.5c0-9.53,9.11-13.62,9.5-13.79a2.46,2.46,0,0,1,1-.21h.24c-2.23-1.89-6-3-12.24-3-10.36,0-13.36,3.63-13.5,5.57v0A2.46,2.46,0,0,1,64,26.54,2.54,2.54,0,0,1,61.5,24c-.13-1.85-3.12-5.5-13.5-5.5-6.26,0-10,1.11-12.24,3H36a2.46,2.46,0,0,1,1,.21c.39.17,9.5,4.26,9.5,13.79,0,9.35-8.9,14.47-9.27,14.68A2.54,2.54,0,0,1,36,50.5H28l-1.3,5.21L30.82,64a9.48,9.48,0,0,1,2.46-9.1,1.49,1.49,0,0,1,2.12,0L46.5,66V64a1.5,1.5,0,0,1,3,0V93.5h29V64a1.5,1.5,0,0,1,3,0v2l11.1-11.1a1.49,1.49,0,0,1,2.12,0A9.48,9.48,0,0,1,97.18,64l4.17-8.33Zm-27,6.56-8,8a1.5,1.5,0,0,1-2.12,0l-8-8a1.5,1.5,0,0,1,2.12-2.12L64,61.88l6.94-6.94a1.5,1.5,0,0,1,2.12,2.12Z"/><path class="cls-1" d="M46.33,93.5h.17V68.57a9.5,9.5,0,0,1-13.22-.2,8.19,8.19,0,0,1-.68-.76l13,25.93C45.82,93.52,46.07,93.5,46.33,93.5Z"/><path class="cls-1" d="M104,69.5a13.46,13.46,0,0,0,6.5-1.68V64a1.5,1.5,0,0,1,3,0v1.58a13.49,13.49,0,0,0,3.77-7.08H105.55L100.31,69A13.21,13.21,0,0,0,104,69.5Z"/><path class="cls-1" d="M118.88,34.24,106.5,28v4a2.5,2.5,0,0,1-5,0V26.5H92.58c-1.45.77-6.08,3.64-6.08,9s4.65,8.94,6.22,10H104a17.53,17.53,0,0,0,16.25-11l-.25,0A2.48,2.48,0,0,1,118.88,34.24Z"/><path class="cls-1" d="M88,71.15a9.44,9.44,0,0,1-6.5-2.58V93.5h.17c.26,0,.51,0,.76,0l13-25.93a8.19,8.19,0,0,1-.68.76A9.45,9.45,0,0,1,88,71.15Z"/><path class="cls-1" d="M43.41,67.19l-8.94-8.94a6.5,6.5,0,0,0,8.94,8.94Z"/><path class="cls-1" d="M81.67,98.5H46.33a2.07,2.07,0,0,0-2,2.71l5,14.88a2.07,2.07,0,0,0,2,1.41H76.71a2.07,2.07,0,0,0,2-1.41l5-14.88a2.07,2.07,0,0,0-2-2.71ZM61.06,113.06a1.5,1.5,0,0,1-2.12,0l-8-8a1.5,1.5,0,0,1,2.12-2.12l8,8A1.49,1.49,0,0,1,61.06,113.06Zm16-8-8,8a1.5,1.5,0,0,1-2.12,0,1.49,1.49,0,0,1,0-2.12l8-8a1.5,1.5,0,0,1,2.12,2.12Z"/><path class="cls-2" d="M126.5,28A22.52,22.52,0,0,0,104,5.5,2.5,2.5,0,0,0,101.5,8V21.5h-3c-2.41-4.72-7.62-8-18.55-8-9,0-13.63,2.44-16,5-2.37-2.53-7-5-16-5-10.93,0-16.14,3.28-18.55,8H26.5V8A2.5,2.5,0,0,0,24,5.5a22.5,22.5,0,0,0-1.19,45l-.76,3H8A2.5,2.5,0,0,0,5.5,56a18.47,18.47,0,0,0,9,15.84V80a1.5,1.5,0,0,0,3,0V73.3A18.2,18.2,0,0,0,30,73.5L41.11,95.81a7.64,7.64,0,0,0-.51.62,7,7,0,0,0-1,6.36l5,14.88a7,7,0,0,0,6.7,4.83H76.71a7,7,0,0,0,6.7-4.83l5-14.88a7,7,0,0,0-1-6.36,7.64,7.64,0,0,0-.51-.62L98.05,73.5a18.2,18.2,0,0,0,12.45-.2V80a1.5,1.5,0,0,0,3,0V71.84a18.47,18.47,0,0,0,9-15.84,2.5,2.5,0,0,0-2.5-2.5H106l-.76-3A22.53,22.53,0,0,0,126.5,28Zm-5,0a17.55,17.55,0,0,1-.11,1.93c-.09-.05-.17-.12-.27-.17l-8.69-4.34a1.48,1.48,0,0,0,.63-.36l6-6A17.33,17.33,0,0,1,121.5,28Zm-15-17.32a17.45,17.45,0,0,1,10.77,5.93l-6.33,6.33a1.49,1.49,0,0,0-.34,1.56l-4.1-2.05ZM6.5,28a17.52,17.52,0,0,1,15-17.32V32a2.5,2.5,0,0,0,5,0V26.5h8.92c1.46.78,6.08,3.65,6.08,9s-4.66,9-6.22,10H24A17.52,17.52,0,0,1,6.5,28ZM24,69.5a13.46,13.46,0,0,1-6.5-1.68V64a1.5,1.5,0,0,0-3,0v1.58a13.49,13.49,0,0,1-3.77-7.08H22.45L27.69,69A13.21,13.21,0,0,1,24,69.5Zm8.6-1.89a8.19,8.19,0,0,0,.68.76,9.5,9.5,0,0,0,13.22.2V93.5h-.17c-.26,0-.51,0-.76,0Zm1.87-9.36,8.94,8.94a6.5,6.5,0,0,1-8.94-8.94Zm49.16,43-5,14.88a2.07,2.07,0,0,1-2,1.41H51.29a2.07,2.07,0,0,1-2-1.41l-5-14.88a2.07,2.07,0,0,1,2-2.71H81.67a2.07,2.07,0,0,1,2,2.71Zm-1.2-7.67c-.25,0-.5,0-.76,0H81.5V68.57a9.5,9.5,0,0,0,13.22-.2,8.19,8.19,0,0,0,.68-.76Zm2.16-26.35,8.94-8.94a6.5,6.5,0,0,1-8.94,8.94ZM97.18,64a9.48,9.48,0,0,0-2.46-9.1,1.49,1.49,0,0,0-2.12,0L81.5,66V64a1.5,1.5,0,0,0-3,0V93.5h-29V64a1.5,1.5,0,0,0-3,0v2L35.4,54.94a1.49,1.49,0,0,0-2.12,0A9.48,9.48,0,0,0,30.82,64l-4.17-8.33L28,50.5H36a2.54,2.54,0,0,0,1.23-.32C37.6,50,46.5,44.85,46.5,35.5c0-9.53-9.11-13.62-9.5-13.79a2.46,2.46,0,0,0-1-.21h-.24c2.23-1.89,6-3,12.24-3,10.38,0,13.37,3.65,13.5,5.5A2.54,2.54,0,0,0,64,26.54a2.46,2.46,0,0,0,2.5-2.45v0c.14-1.94,3.14-5.57,13.5-5.57,6.26,0,10,1.11,12.24,3H92a2.46,2.46,0,0,0-1,.21c-.39.17-9.5,4.26-9.5,13.79,0,9.35,8.9,14.47,9.27,14.68A2.54,2.54,0,0,0,92,50.5h8l1.3,5.21Zm8.37-5.54h11.72a13.49,13.49,0,0,1-3.77,7.08V64a1.5,1.5,0,0,0-3,0v3.82A13.46,13.46,0,0,1,104,69.5a13.21,13.21,0,0,1-3.69-.52ZM104,45.5H92.72c-1.57-1.06-6.22-4.65-6.22-10s4.63-8.23,6.08-9h8.92V32a2.5,2.5,0,0,0,5,0V28l12.38,6.2a2.48,2.48,0,0,0,1.12.26l.25,0A17.53,17.53,0,0,1,104,45.5Z"/><path class="cls-2" d="M74.94,102.94l-8,8a1.49,1.49,0,0,0,0,2.12,1.5,1.5,0,0,0,2.12,0l8-8a1.5,1.5,0,0,0-2.12-2.12Z"/><path class="cls-2" d="M53.06,102.94a1.5,1.5,0,0,0-2.12,2.12l8,8a1.5,1.5,0,0,0,2.12,0,1.49,1.49,0,0,0,0-2.12Z"/><path class="cls-2" d="M70.94,54.94,64,61.88l-6.94-6.94a1.5,1.5,0,0,0-2.12,2.12l8,8a1.5,1.5,0,0,0,2.12,0l8-8a1.5,1.5,0,0,0-2.12-2.12Z"/></g></svg>