<svg xmlns="http://www.w3.org/2000/svg" viewBox="0 0 128 128"><defs><style>.cls-1{fill:none;}.cls-2{fill:#0b0b0b;}</style></defs><g id="OUTLINES_copy_2" data-name="OUTLINES copy 2"><path class="cls-1" d="M73.5,96.62V104a1.5,1.5,0,0,1-3,0V97.5h-5V104a1.5,1.5,0,0,1-3,0V97.5h-5V104a1.5,1.5,0,0,1-3,0V96.62L39.38,81.5H35.55l14,28H78.46l14-28H88.62Z"/><path class="cls-1" d="M87.77,26.35,81.5,32.62V40a1.5,1.5,0,0,1-3,0V32a1.5,1.5,0,0,1,.44-1.06l6.37-6.37A38.62,38.62,0,0,0,64,18.5c-12.47,0-23,5.2-29.65,13.73l6.71,6.71A1.5,1.5,0,0,1,41.5,40v8a1.5,1.5,0,0,1-3,0V40.62l-5.93-5.93A38.62,38.62,0,0,0,26.5,56,37.15,37.15,0,0,0,34,78.5h6a1.5,1.5,0,0,1,1.06.44L54.5,92.38V88a1.5,1.5,0,0,1,3,0v6.5h5V88a1.5,1.5,0,0,1,3,0v6.5h5V88a1.5,1.5,0,0,1,3,0v4.38L86.94,78.94A1.5,1.5,0,0,1,88,78.5h6A37.15,37.15,0,0,0,101.5,56C101.5,43.53,96.3,33,87.77,26.35ZM48,74.5a10.5,10.5,0,0,1,0-21,2.51,2.51,0,0,1,1.77.73l8,8A2.51,2.51,0,0,1,58.5,64,10.51,10.51,0,0,1,48,74.5Zm25.06,6.56a1.5,1.5,0,0,1-2.12,0L65.5,75.62V80a1.5,1.5,0,0,1-3,0V75.62l-5.44,5.44a1.5,1.5,0,0,1-2.12-2.12l8-8a1.63,1.63,0,0,1,.49-.33h0a1.43,1.43,0,0,1,1.1,0h0a1.63,1.63,0,0,1,.49.33l8,8A1.49,1.49,0,0,1,73.06,81.06ZM80,74.5A10.51,10.51,0,0,1,69.5,64a2.51,2.51,0,0,1,.73-1.77l8-8A2.51,2.51,0,0,1,80,53.5a10.5,10.5,0,0,1,0,21Z"/><path class="cls-2" d="M64,13.5C51.92,13.5,41,17.93,33.2,26A42.8,42.8,0,0,0,21.5,56a42.17,42.17,0,0,0,8.36,25.32l15.9,31.8A2.52,2.52,0,0,0,48,114.5H80a2.52,2.52,0,0,0,2.24-1.38l15.9-31.8A42.17,42.17,0,0,0,106.5,56,42.8,42.8,0,0,0,94.8,26C87,17.93,76.08,13.5,64,13.5Zm14.46,96H49.54l-14-28h3.83L54.5,96.62V104a1.5,1.5,0,0,0,3,0V97.5h5V104a1.5,1.5,0,0,0,3,0V97.5h5V104a1.5,1.5,0,0,0,3,0V96.62L88.62,81.5h3.83ZM94,78.5H88a1.5,1.5,0,0,0-1.06.44L73.5,92.38V88a1.5,1.5,0,0,0-3,0v6.5h-5V88a1.5,1.5,0,0,0-3,0v6.5h-5V88a1.5,1.5,0,0,0-3,0v4.38L41.06,78.94A1.5,1.5,0,0,0,40,78.5H34A37.15,37.15,0,0,1,26.5,56a38.62,38.62,0,0,1,6.07-21.31l5.93,5.93V48a1.5,1.5,0,0,0,3,0V40a1.5,1.5,0,0,0-.44-1.06l-6.71-6.71C41,23.7,51.53,18.5,64,18.5a38.62,38.62,0,0,1,21.31,6.07l-6.37,6.37A1.5,1.5,0,0,0,78.5,32v8a1.5,1.5,0,0,0,3,0V32.62l6.27-6.27C96.3,33,101.5,43.53,101.5,56A37.15,37.15,0,0,1,94,78.5Z"/><path class="cls-2" d="M65.06,70.94a1.63,1.63,0,0,0-.49-.33h0a1.43,1.43,0,0,0-1.1,0h0a1.63,1.63,0,0,0-.49.33l-8,8a1.5,1.5,0,0,0,2.12,2.12l5.44-5.44V80a1.5,1.5,0,0,0,3,0V75.62l5.44,5.44a1.5,1.5,0,0,0,2.12,0,1.49,1.49,0,0,0,0-2.12Z"/><path class="cls-2" d="M58.5,64a2.51,2.51,0,0,0-.73-1.77l-8-8A2.51,2.51,0,0,0,48,53.5,10.5,10.5,0,1,0,58.5,64Z"/><path class="cls-2" d="M80,53.5a2.51,2.51,0,0,0-1.77.73l-8,8A2.51,2.51,0,0,0,69.5,64,10.5,10.5,0,1,0,80,53.5Z"/></g></svg>