<svg xmlns="http://www.w3.org/2000/svg" viewBox="0 0 128 128"><defs><style>.cls-1{fill:none;}.cls-2{fill:#0b0b0b;}</style></defs><g id="OUTLINES_copy_2" data-name="OUTLINES copy 2"><path class="cls-1" d="M109.5,50.5H73.7l4.93,8.21a2.51,2.51,0,0,1-.15,2.79h31Z"/><path class="cls-1" d="M30.2,50.5H18.5v11h32a2.51,2.51,0,0,1-.15-2.79l4.93-8.21Z"/><path class="cls-1" d="M37.63,72.79l-2.1-6.29h-9V88a2.56,2.56,0,0,1-.26,1.12l-6.61,13.21L45.5,108.8V81l-7.27-7.27A2.55,2.55,0,0,1,37.63,72.79Z"/><path class="cls-1" d="M69.5,80V70.52l-3.25,3.25a2.5,2.5,0,0,1-3.53,0L58.5,69.55V80a2.51,2.51,0,0,1-.73,1.77L51.54,88,64,100.46,76.46,88l-6.23-6.23A2.51,2.51,0,0,1,69.5,80Z"/><path class="cls-1" d="M101.5,88V66.5h-9l-2.1,6.29a2.55,2.55,0,0,1-.6,1L82.5,81V108.8l25.87-6.47-6.61-13.21A2.56,2.56,0,0,1,101.5,88Z"/><path class="cls-1" d="M53.5,45.5V19.69C38.9,23,28,33.21,26.64,45.5H53.5Z"/><path class="cls-1" d="M101.36,45.5C100,33.21,89.1,23,74.5,19.69V45.5h26.86Z"/><path class="cls-1" d="M64.49,37.5a2.5,2.5,0,0,1,2.14,1.21L69.5,43.5v-33h-11V45.12l3.84-6.41A2.51,2.51,0,0,1,64.49,37.5Z"/><polygon class="cls-1" points="73.34 59.61 64.48 44.86 55.63 59.61 64.48 68.47 73.34 59.61"/><path class="cls-2" d="M112,66.5a2.5,2.5,0,0,0,2.5-2.5V48a2.5,2.5,0,0,0-2.5-2.5h-5.61c-1.33-15-14.48-27.32-31.89-30.93V8A2.5,2.5,0,0,0,72,5.5H56A2.5,2.5,0,0,0,53.5,8v6.57c-17.41,3.61-30.56,16-31.89,30.93H16A2.5,2.5,0,0,0,13.5,48V64A2.5,2.5,0,0,0,16,66.5h5.5V87.41l-7.74,15.47a2.48,2.48,0,0,0,0,2.16,2.54,2.54,0,0,0,1.66,1.39l32,8a2.54,2.54,0,0,0,.61.07,2.5,2.5,0,0,0,2.5-2.5V98.5H55l7.27,7.27a2.51,2.51,0,0,0,3.54,0L73,98.5H77.5V112a2.5,2.5,0,0,0,2.5,2.5,2.54,2.54,0,0,0,.61-.07l32-8a2.54,2.54,0,0,0,1.66-1.39,2.48,2.48,0,0,0,0-2.16L106.5,87.41V66.5ZM74.5,19.69C89.1,23,100,33.21,101.36,45.5H74.5Zm-16-9.19h11v33l-2.87-4.79a2.51,2.51,0,0,0-4.29,0L58.5,45.12Zm6,34.36,8.85,14.75-8.85,8.85-8.86-8.85Zm-11-25.17V45.5H26.64C28,33.21,38.9,23,53.5,19.69Zm-8,89.11-25.87-6.47,6.61-13.21A2.56,2.56,0,0,0,26.5,88V66.5h9l2.1,6.29a2.55,2.55,0,0,0,.6,1L45.5,81Zm4.84-50.09a2.51,2.51,0,0,0,.15,2.79h-32v-11H55.27ZM64,100.46,51.54,88l6.23-6.23A2.51,2.51,0,0,0,58.5,80V69.55l4.22,4.22a2.5,2.5,0,0,0,3.53,0l3.25-3.25V80a2.51,2.51,0,0,0,.73,1.77L76.46,88Zm44.37,1.87L82.5,108.8V81l7.27-7.27a2.55,2.55,0,0,0,.6-1l2.1-6.29h9V88a2.56,2.56,0,0,0,.26,1.12ZM78.48,61.5a2.51,2.51,0,0,0,.15-2.79L73.7,50.5h35.8v11Z"/></g></svg>