<svg xmlns="http://www.w3.org/2000/svg" viewBox="0 0 128 128"><defs><style>.cls-1{fill:none;}.cls-2{fill:#0b0b0b;}</style></defs><g id="OUTLINES_copy_2" data-name="OUTLINES copy 2"><path class="cls-1" d="M61.86,41.29l-12-20a2.24,2.24,0,0,1-.23-.53C36.06,25.2,26.5,35.74,26.5,48V93.5H40a2.55,2.55,0,0,1,1.39.42L62.5,108V66.5H49l-7.27,7.27A2.5,2.5,0,0,1,37.5,72V56A2.5,2.5,0,0,1,40,53.5H62.5V42A2.44,2.44,0,0,1,61.86,41.29Z"/><polygon class="cls-1" points="64 11.54 55.15 20.39 64 35.14 72.85 20.39 64 11.54"/><path class="cls-1" d="M78.37,20.76a2.24,2.24,0,0,1-.23.53l-12,20a2.44,2.44,0,0,1-.64.68V53.5H88A2.5,2.5,0,0,1,90.5,56V72a2.5,2.5,0,0,1-4.27,1.77L79,66.5H65.5V108L86.61,93.92A2.55,2.55,0,0,1,88,93.5h13.5V48C101.5,35.74,91.94,25.2,78.37,20.76Z"/><path class="cls-2" d="M74,14.48,65.77,6.23a2.52,2.52,0,0,0-3.54,0L54,14.48C35.37,18.14,21.5,31.78,21.5,48V96A2.5,2.5,0,0,0,24,98.5H39.24l23.37,15.58a2.51,2.51,0,0,0,2.78,0L88.76,98.5H104a2.5,2.5,0,0,0,2.5-2.5V48C106.5,31.78,92.63,18.14,74,14.48ZM62.5,53.5H40A2.5,2.5,0,0,0,37.5,56V72a2.5,2.5,0,0,0,4.27,1.77L49,66.5H62.5V108L41.39,93.92A2.55,2.55,0,0,0,40,93.5H26.5V48c0-12.26,9.56-22.8,23.13-27.24a2.24,2.24,0,0,0,.23.53l12,20a2.44,2.44,0,0,0,.64.68ZM64,35.14,55.15,20.39,64,11.54l8.85,8.85ZM101.5,93.5H88a2.55,2.55,0,0,0-1.39.42L65.5,108V66.5H79l7.27,7.27A2.5,2.5,0,0,0,90.5,72V56A2.5,2.5,0,0,0,88,53.5H65.5V42a2.44,2.44,0,0,0,.64-.68l12-20a2.24,2.24,0,0,0,.23-.53C91.94,25.2,101.5,35.74,101.5,48Z"/></g></svg>