<svg xmlns="http://www.w3.org/2000/svg" viewBox="0 0 128 128"><defs><style>.cls-1{fill:none;}.cls-2{fill:#0b0b0b;}</style></defs><g id="OUTLINES_copy_2" data-name="OUTLINES copy 2"><rect class="cls-1" x="58.01" y="14.01" width="11.97" height="11.97" transform="translate(4.6 51.11) rotate(-45)"/><path class="cls-1" d="M50.23,21.77a2.56,2.56,0,0,1-.6-1C36.06,25.2,26.5,35.74,26.5,48V88a2.51,2.51,0,0,1-.73,1.77L20,95.5,53.5,115.58V81L38.23,65.77A2.51,2.51,0,0,1,37.5,64V56a2.5,2.5,0,0,1,3.89-2.08L62.5,68V34l-.27-.22Z"/><polygon class="cls-1" points="21.5 54.04 11.54 64 21.5 73.96 21.5 54.04"/><path class="cls-1" d="M101.5,88V48c0-12.26-9.56-22.8-23.13-27.24a2.56,2.56,0,0,1-.6,1l-12,12L65.5,34V68L86.61,53.92A2.5,2.5,0,0,1,90.5,56v8a2.51,2.51,0,0,1-.73,1.77L74.5,81v34.54L108,95.5l-5.74-5.73A2.51,2.51,0,0,1,101.5,88Z"/><polygon class="cls-1" points="106.5 73.96 116.46 64 106.5 54.04 106.5 73.96"/><path class="cls-2" d="M106.47,46.93C105.87,31.18,92.22,18.06,74,14.48L65.77,6.23a2.52,2.52,0,0,0-3.54,0L54,14.48c-18.21,3.58-31.86,16.7-32.46,32.45L6.23,62.23a2.52,2.52,0,0,0,0,3.54L21.5,81V87l-7.27,7.27a2.51,2.51,0,0,0-.71,2.08,2.46,2.46,0,0,0,1.19,1.83l40,24A2.5,2.5,0,0,0,58.5,120V106.5h11V120a2.5,2.5,0,0,0,1.27,2.18,2.56,2.56,0,0,0,1.23.32,2.49,2.49,0,0,0,1.29-.36l40-24a2.46,2.46,0,0,0,1.19-1.83,2.51,2.51,0,0,0-.71-2.08L106.5,87V81l15.27-15.27a2.52,2.52,0,0,0,0-3.54ZM11.54,64l10-10V74Zm51,4L41.39,53.92A2.5,2.5,0,0,0,37.5,56v8a2.51,2.51,0,0,0,.73,1.77L53.5,81v34.54L20,95.5l5.74-5.73A2.51,2.51,0,0,0,26.5,88V48c0-12.26,9.56-22.8,23.13-27.24a2.56,2.56,0,0,0,.6,1l12,12,.27.22Zm-7-48L64,11.54,72.46,20,64,28.46ZM108,95.5,74.5,115.58V81L89.77,65.77A2.51,2.51,0,0,0,90.5,64V56a2.5,2.5,0,0,0-3.89-2.08L65.5,68V34l.27-.22,12-12a2.56,2.56,0,0,0,.6-1C91.94,25.2,101.5,35.74,101.5,48V88a2.51,2.51,0,0,0,.73,1.77ZM106.5,74V54l10,10Z"/></g></svg>