<svg xmlns="http://www.w3.org/2000/svg" viewBox="0 0 128 128"><defs><style>.cls-1{fill:none;}.cls-2{fill:#0b0b0b;}</style></defs><g id="OUTLINES_copy_2" data-name="OUTLINES copy 2"><path class="cls-1" d="M97.13,19.33,90.5,32.59v5.87l10.94,5.46C101.06,31.85,99.1,22.16,97.13,19.33Z"/><path class="cls-1" d="M64.5,113.41a1.43,1.43,0,0,1-1,0l.5,1Z"/><path class="cls-1" d="M69.5,96V64a2.52,2.52,0,0,1,1.38-2.24l16-8A2.5,2.5,0,0,1,90.5,56v8a2.51,2.51,0,0,1-.73,1.77l-7.58,7.58-7.33,22L88,108.46,101.5,95V49.55L86.88,42.24A2.52,2.52,0,0,1,85.5,40V32a2.56,2.56,0,0,1,.26-1.12l2.63-5.26A43.44,43.44,0,0,0,65.5,18.53v92.88l4-8Z"/><path class="cls-1" d="M37.5,32.59,30.87,19.33c-2,2.83-3.93,12.52-4.31,24.59L37.5,38.46Z"/><path class="cls-1" d="M38.69,53.87a2.53,2.53,0,0,1,2.43-.11l16,8A2.52,2.52,0,0,1,58.5,64v39.41l4,8V18.53a43.44,43.44,0,0,0-22.89,7.09l2.63,5.26A2.56,2.56,0,0,1,42.5,32v8a2.52,2.52,0,0,1-1.38,2.24L26.5,49.55V95L40,108.46,53.14,95.33l-7.33-22-7.58-7.58A2.51,2.51,0,0,1,37.5,64V56A2.5,2.5,0,0,1,38.69,53.87Z"/><path class="cls-2" d="M53.76,105.12l8,16a2.51,2.51,0,0,0,4.48,0l8-16A2.56,2.56,0,0,0,74.5,104v-2l11.73,11.73a2.52,2.52,0,0,0,3.54,0l16-16A2.51,2.51,0,0,0,106.5,96V48c0-10.37-1-34.5-10.5-34.5a2.52,2.52,0,0,0-2.24,1.38l-3.13,6.26A48.72,48.72,0,0,0,64,13.5a48.72,48.72,0,0,0-26.63,7.64l-3.13-6.26A2.52,2.52,0,0,0,32,13.5c-9.48,0-10.5,24.13-10.5,34.5V96a2.51,2.51,0,0,0,.73,1.77l16,16a2.52,2.52,0,0,0,3.54,0L53.5,102v2A2.56,2.56,0,0,0,53.76,105.12ZM90.5,32.59l6.63-13.26c2,2.83,3.93,12.52,4.31,24.59L90.5,38.46Zm-25-14.06a43.44,43.44,0,0,1,22.89,7.09l-2.63,5.26A2.56,2.56,0,0,0,85.5,32v8a2.52,2.52,0,0,0,1.38,2.24l14.62,7.31V95L88,108.46,74.86,95.33l7.33-22,7.58-7.58A2.51,2.51,0,0,0,90.5,64V56a2.5,2.5,0,0,0-3.62-2.24l-16,8A2.52,2.52,0,0,0,69.5,64v39.41l-4,8Zm-1.5,95a1.64,1.64,0,0,0,.5-.09l-.5,1-.5-1A1.64,1.64,0,0,0,64,113.5ZM30.87,19.33,37.5,32.59v5.87L26.56,43.92C26.94,31.85,28.9,22.16,30.87,19.33Zm7.36,46.44,7.58,7.58,7.33,22L40,108.46,26.5,95V49.55l14.62-7.31A2.52,2.52,0,0,0,42.5,40V32a2.56,2.56,0,0,0-.26-1.12l-2.63-5.26A43.44,43.44,0,0,1,62.5,18.53v92.88l-4-8V64a2.52,2.52,0,0,0-1.38-2.24l-16-8A2.5,2.5,0,0,0,37.5,56v8A2.51,2.51,0,0,0,38.23,65.77Z"/></g></svg>