<svg xmlns="http://www.w3.org/2000/svg" viewBox="0 0 128 128"><defs><style>.cls-1{fill:none;}.cls-2{fill:#0b0b0b;}</style></defs><g id="OUTLINES_copy_2" data-name="OUTLINES copy 2"><path class="cls-1" d="M72.24,19.08a2.51,2.51,0,0,1-1.4-.71L65.5,13V37.86l35.65,11.89C99.78,37.69,93.72,22.25,72.24,19.08Z"/><path class="cls-1" d="M109.5,57.8,64,42.63,18.5,57.8V78.2L64,93.37,109.5,78.2ZM33.5,72a1.5,1.5,0,0,1-3,0V64a1.5,1.5,0,0,1,3,0Zm16,8a1.5,1.5,0,0,1-3,0V56a1.5,1.5,0,0,1,3,0Zm16,0a1.5,1.5,0,0,1-3,0V56a1.5,1.5,0,0,1,3,0Zm16,0a1.5,1.5,0,0,1-3,0V56a1.5,1.5,0,0,1,3,0Zm16-8a1.5,1.5,0,0,1-3,0V64a1.5,1.5,0,0,1,3,0Z"/><polygon class="cls-1" points="26.5 101.95 62.5 109.15 62.5 98.14 26.5 86.14 26.5 101.95"/><polygon class="cls-1" points="65.5 109.15 101.5 101.95 101.5 86.14 65.5 98.14 65.5 109.15"/><path class="cls-1" d="M62.5,13l-5.34,5.33a2.51,2.51,0,0,1-1.4.71C34.28,22.25,28.22,37.69,26.85,49.75L62.5,37.86Z"/><path class="cls-2" d="M106.5,84.47l6.29-2.1A2.5,2.5,0,0,0,114.5,80V56a2.5,2.5,0,0,0-1.71-2.37l-6.47-2.16c-1-12.37-6.55-33-32.53-37.21l-8-8a2.52,2.52,0,0,0-3.54,0l-8,8c-26,4.24-31.56,24.84-32.53,37.21l-6.47,2.16A2.5,2.5,0,0,0,13.5,56V80a2.5,2.5,0,0,0,1.71,2.37l6.29,2.1V104a2.5,2.5,0,0,0,2,2.45l40,8a2.43,2.43,0,0,0,1,0l40-8a2.5,2.5,0,0,0,2-2.45ZM65.5,13l5.34,5.33a2.51,2.51,0,0,0,1.4.71c21.48,3.17,27.54,18.61,28.91,30.67L65.5,37.86Zm-9.74,6a2.51,2.51,0,0,0,1.4-.71L62.5,13V37.86L26.85,49.75C28.22,37.69,34.28,22.25,55.76,19.08Zm6.74,90.07-36-7.2V86.14l36,12Zm39-7.2-36,7.2v-11l36-12ZM64,93.37,18.5,78.2V57.8L64,42.63,109.5,57.8V78.2Z"/><path class="cls-2" d="M32,62.5A1.5,1.5,0,0,0,30.5,64v8a1.5,1.5,0,0,0,3,0V64A1.5,1.5,0,0,0,32,62.5Z"/><path class="cls-2" d="M96,62.5A1.5,1.5,0,0,0,94.5,64v8a1.5,1.5,0,0,0,3,0V64A1.5,1.5,0,0,0,96,62.5Z"/><path class="cls-2" d="M48,54.5A1.5,1.5,0,0,0,46.5,56V80a1.5,1.5,0,0,0,3,0V56A1.5,1.5,0,0,0,48,54.5Z"/><path class="cls-2" d="M64,54.5A1.5,1.5,0,0,0,62.5,56V80a1.5,1.5,0,0,0,3,0V56A1.5,1.5,0,0,0,64,54.5Z"/><path class="cls-2" d="M80,54.5A1.5,1.5,0,0,0,78.5,56V80a1.5,1.5,0,0,0,3,0V56A1.5,1.5,0,0,0,80,54.5Z"/></g></svg>