<svg xmlns="http://www.w3.org/2000/svg" viewBox="0 0 128 128"><defs><style>.cls-1{fill:none;}.cls-2{fill:#0b0b0b;}</style></defs><g id="OUTLINES_copy_2" data-name="OUTLINES copy 2"><polygon class="cls-1" points="108.05 19.95 90.5 25.8 90.5 37.5 102.2 37.5 108.05 19.95"/><polygon class="cls-1" points="21.5 62.04 11.54 72 21.5 81.96 21.5 62.04"/><polygon class="cls-1" points="72.42 23.39 64 12.17 55.59 23.39 64 29 72.42 23.39"/><polygon class="cls-1" points="37.5 37.5 37.5 25.8 19.95 19.95 25.8 37.5 37.5 37.5"/><polygon class="cls-1" points="20.05 109.5 30.96 109.5 35.78 104.69 25.12 99.35 20.05 109.5"/><path class="cls-1" d="M50,49.5a2.49,2.49,0,0,1,0-3L60.41,32.61l-9.8-6.53A2.51,2.51,0,0,1,50,22.5l1.79-2.39a42.08,42.08,0,0,0-9.3,3.75c0,.05,0,.09,0,.14V40A2.5,2.5,0,0,1,40,42.5H27.16A23.39,23.39,0,0,0,26.5,48V71.57L56.67,86.66A1.49,1.49,0,0,1,57.5,88v24a1.5,1.5,0,0,1-3,0V88.93l-28-14V94.45l14.62,7.31a2.51,2.51,0,0,1,.65,4l-1.89,1.89,21.62,8.65V81L48.68,68.22l-2.44,4.9a2.52,2.52,0,0,1-2,1.37H44a2.51,2.51,0,0,1-2-1l-12-16a2.5,2.5,0,0,1,2-4H44a2.52,2.52,0,0,1,2.24,1.38l3.81,7.64L62.5,75V66a2.32,2.32,0,0,1-.5-.49Z"/><path class="cls-1" d="M86.88,101.76l14.62-7.31V74.93l-28,14V112a1.5,1.5,0,0,1-3,0V88a1.49,1.49,0,0,1,.83-1.34L101.5,71.57V48a23.39,23.39,0,0,0-.66-5.5H88A2.5,2.5,0,0,1,85.5,40V24c0-.05,0-.09,0-.14a42.08,42.08,0,0,0-9.3-3.75L78,22.5a2.51,2.51,0,0,1-.61,3.58l-9.8,6.53L78,46.5a2.49,2.49,0,0,1,0,3l-12,16a2.32,2.32,0,0,1-.5.49v9L78,62.52l3.81-7.64A2.52,2.52,0,0,1,84,53.5H96a2.5,2.5,0,0,1,2,4l-12,16a2.51,2.51,0,0,1-2,1h-.22a2.52,2.52,0,0,1-2-1.37l-2.44-4.9L66.5,81v35.27l21.62-8.65-1.89-1.89a2.51,2.51,0,0,1,.65-4Z"/><polygon class="cls-1" points="64 36.17 55.13 48 64 59.83 72.88 48 64 36.17"/><polygon class="cls-1" points="92.22 104.69 97.04 109.5 107.95 109.5 102.88 99.35 92.22 104.69"/><polygon class="cls-1" points="106.5 81.96 116.46 72 106.5 62.04 106.5 81.96"/><path class="cls-2" d="M106.5,55V48a28.27,28.27,0,0,0-.71-6.26,2.37,2.37,0,0,0,.58-1l8-24a2.49,2.49,0,0,0-3.16-3.16L90,20.71a47.6,47.6,0,0,0-18.28-6.63L66,6.5a2.5,2.5,0,0,0-4,0l-5.68,7.58A47.6,47.6,0,0,0,38,20.71L16.79,13.63a2.49,2.49,0,0,0-3.16,3.16l8,24a2.37,2.37,0,0,0,.58,1A28.27,28.27,0,0,0,21.5,48v7L6.23,70.23a2.52,2.52,0,0,0,0,3.54L21.5,89v6.37l-7.74,15.47A2.5,2.5,0,0,0,16,114.5H32a2.51,2.51,0,0,0,1.77-.73L36,111.5l27,10.82a2.46,2.46,0,0,0,.29.09h0a2.37,2.37,0,0,0,.65.09,2.59,2.59,0,0,0,.68-.09h0l.25-.08L92,111.5l2.26,2.27a2.51,2.51,0,0,0,1.77.73h16a2.5,2.5,0,0,0,2.24-3.62L106.5,95.41V89l15.27-15.27a2.52,2.52,0,0,0,0-3.54ZM90.5,25.8,108.05,20,102.2,37.5H90.5ZM64,12.17l8.41,11.22L64,29l-8.41-5.61ZM20,20,37.5,25.8V37.5H25.8ZM11.54,72l10-10V82ZM31,109.5H20l5.08-10.15,10.66,5.33ZM62.5,75,50.05,62.52l-3.81-7.64A2.52,2.52,0,0,0,44,53.5H32a2.5,2.5,0,0,0-2,4l12,16a2.51,2.51,0,0,0,2,1h.22a2.52,2.52,0,0,0,2-1.37l2.44-4.9L61.5,81v35.27l-21.62-8.65,1.89-1.89a2.51,2.51,0,0,0-.65-4L26.5,94.45V74.93l28,14V112a1.5,1.5,0,0,0,3,0V88a1.49,1.49,0,0,0-.83-1.34L26.5,71.57V48a23.39,23.39,0,0,1,.66-5.5H40A2.5,2.5,0,0,0,42.5,40V24c0-.05,0-.09,0-.14a42.08,42.08,0,0,1,9.3-3.75L50,22.5a2.51,2.51,0,0,0,.61,3.58l9.8,6.53L50,46.5a2.49,2.49,0,0,0,0,3l12,16a2.32,2.32,0,0,0,.5.49ZM64,59.83,55.12,48,64,36.17,72.88,48Zm22.23,45.94,1.89,1.89L66.5,116.31V81L79.32,68.22l2.44,4.9a2.52,2.52,0,0,0,2,1.37H84a2.51,2.51,0,0,0,2-1l12-16a2.5,2.5,0,0,0-2-4H84a2.52,2.52,0,0,0-2.24,1.38L78,62.52,65.5,75V66a2.32,2.32,0,0,0,.5-.49l12-16a2.49,2.49,0,0,0,0-3L67.59,32.61l9.8-6.53A2.51,2.51,0,0,0,78,22.5l-1.79-2.39a42.08,42.08,0,0,1,9.3,3.75c0,.05,0,.09,0,.14V40A2.5,2.5,0,0,0,88,42.5h12.84a23.39,23.39,0,0,1,.66,5.5V71.57L71.33,86.66A1.49,1.49,0,0,0,70.5,88v24a1.5,1.5,0,0,0,3,0V88.93l28-14V94.45l-14.62,7.31a2.51,2.51,0,0,0-.65,4ZM108,109.5H97l-4.82-4.82,10.66-5.33ZM106.5,82V62l10,10Z"/></g></svg>