<svg xmlns="http://www.w3.org/2000/svg" viewBox="0 0 128 128"><defs><style>.cls-1{fill:none;}.cls-2{fill:#0b0b0b;}</style></defs><g id="OUTLINES_copy_2" data-name="OUTLINES copy 2"><path class="cls-1" d="M86.88,53.76A2.5,2.5,0,0,1,90.5,56V72a2.52,2.52,0,0,1-1.38,2.24L74.5,81.54V116l27-13.5V48c0-15.87-16-28.85-36-29.47v43h5.91Z"/><path class="cls-1" d="M26.5,48v54.46l27,13.5V81.54l-14.62-7.3A2.52,2.52,0,0,1,37.5,72V56a2.5,2.5,0,0,1,3.62-2.24L56.59,61.5H62.5v-43C42.52,19.15,26.5,32.13,26.5,48Z"/><path class="cls-2" d="M70.69,122.13a2.45,2.45,0,0,0,1.31.37,2.59,2.59,0,0,0,1.12-.26l32-16A2.52,2.52,0,0,0,106.5,104V48c0-19-19.07-34.5-42.5-34.5S21.5,29,21.5,48v56a2.52,2.52,0,0,0,1.38,2.24l32,16A2.5,2.5,0,0,0,58.5,120V106.5h11V120A2.5,2.5,0,0,0,70.69,122.13ZM62.5,61.5H56.59L41.12,53.76A2.5,2.5,0,0,0,37.5,56V72a2.52,2.52,0,0,0,1.38,2.24l14.62,7.3V116l-27-13.5V48c0-15.87,16-28.85,36-29.47Zm3,0v-43c20,.62,36,13.6,36,29.47v54.46L74.5,116V81.54l14.62-7.3A2.52,2.52,0,0,0,90.5,72V56a2.5,2.5,0,0,0-3.62-2.24L71.41,61.5Z"/></g></svg>